<svg width="362" height="196" viewBox="0 0 362 196" fill="none" xmlns="http://www.w3.org/2000/svg">
<path d="M219.273 39.0706C222.46 37.7285 225.089 36.2746 227.922 35.4917C236.869 32.9753 245.648 33.7582 254.036 37.8031C255.453 38.4928 256.777 39.6112 257.802 40.8228C263.767 47.906 268.128 55.7721 268.893 65.2412C268.93 65.6699 269.154 66.0614 269.359 66.7324C270.03 66.7697 270.738 66.9188 271.428 66.8443C298.623 63.9178 314.151 81.6631 318.606 102.186C319.761 107.535 320.153 113.053 320.954 118.906C323.21 119.54 325.726 120.416 328.317 120.956C336.276 122.615 341.104 127.555 343.471 135.123C344.441 138.236 345.242 141.404 346.211 144.834C348.094 145.17 350.126 145.412 352.102 145.897C362.205 148.413 365.187 158.441 358.178 166.252C354.618 170.203 349.977 172.123 344.888 173.036C336.575 174.528 331.486 173.54 322.427 168.88C320.209 170.464 317.99 172.254 315.586 173.689C312.92 175.273 310.143 176.858 307.235 177.827C302.631 179.355 298.12 178.834 294.057 175.888C292.752 174.938 291.335 174.118 289.9 173.204C286.787 175.516 283.823 177.752 280.804 179.915C265.034 191.192 247.382 193.596 228.817 190.111C216.421 187.781 206.97 180.287 198.974 170.837C198.023 169.719 197.11 168.563 195.973 167.184C194.705 168.19 193.568 169.066 192.468 169.98C184.509 176.485 175.674 178.032 166.074 174.416C161.899 172.85 157.891 170.837 153.455 168.861C152.691 169.663 151.74 170.557 150.92 171.564C148.776 174.229 146.633 176.914 144.601 179.672C139.624 186.439 132.97 190.614 125.01 192.981C115.56 195.796 105.997 196.84 96.3419 194.528C89.2959 192.851 83.3125 188.806 77.2731 184.985C75.3905 183.792 73.6197 182.45 71.7557 181.145C64.4488 185.097 56.8436 187.501 48.8284 188.75C36.6565 190.633 25.081 188.321 13.9157 183.661C9.31158 181.741 5.65813 178.368 2.61981 174.397C0.532126 171.657 -0.343955 168.6 0.122046 165.17C0.904927 159.317 6.16141 155.403 11.9771 156.41C12.9837 156.577 13.9716 156.894 14.8663 157.118C23.1984 147.015 28.5481 145.561 39.0238 147.556C39.3966 135.104 45.4919 125.933 55.6507 119.204C65.679 112.568 76.2293 109.138 88.3453 113.985C92.4834 104.423 97.9822 96.5937 110.061 96.7801C108.588 94.5433 107.358 92.2693 105.736 90.3121C97.6653 80.6379 101.17 65.2412 108.122 57.7852C112.428 53.1625 117.61 50.1614 123.743 48.8007C124.749 48.577 125.774 48.3906 127.154 48.111C127.471 46.5639 127.788 44.9981 128.104 43.4137C130.882 29.6574 137.033 17.821 148.348 9.19065C159.308 0.802643 171.685 -1.8256 185.106 1.23136C193.717 3.20721 200.335 8.48233 206.001 15.0436C211.015 20.8593 214.631 27.5138 217.483 34.6157C218.024 35.9764 218.583 37.3557 219.254 39.0706H219.273ZM245.238 38.0641C243.803 37.6913 242.405 37.1693 240.951 37.0016C233.98 36.1814 227.717 38.2691 221.845 41.8666C220.764 42.5377 219.683 43.1714 218.322 43.9916C216.402 39.7044 214.725 35.7341 212.879 31.8569C207.623 20.8034 200.111 11.7816 189.225 5.83545C187.92 5.12713 186.541 4.21377 185.162 4.12057C179.812 3.74777 174.35 2.92761 169.131 3.63593C152.579 5.92865 142.252 16.6467 134.964 30.7758C132.373 35.79 130.49 41.0651 130.49 46.9554C130.49 50.7766 129.055 51.9322 125.532 51.6899C124.507 51.6154 123.426 51.7272 122.438 52.0068C105.96 56.8159 97.9263 76.332 108.551 89.7156C110.378 92.0269 112.465 94.1333 114.59 96.5005C113.808 97.7308 113.043 98.9051 112.316 100.024C106.165 97.9172 101.841 100.713 97.8517 104.273C93.8255 107.852 92.1851 112.885 90.3398 117.955C78.4288 112.885 67.3566 113.724 56.825 121.236C46.368 128.711 41.7079 139.13 41.0928 152.029C39.7507 151.451 38.856 151.246 38.2223 150.743C36.321 149.215 34.1401 149.065 31.866 149.196C27.1128 149.457 23.273 151.377 20.5515 155.384C19.2467 157.323 17.8301 159.187 16.4321 161.126C14.9595 160.548 13.8784 160.063 12.76 159.69C7.8763 158.05 4.67021 159.69 3.25357 164.648C2.52661 167.184 2.76893 169.551 4.42789 171.825C8.36094 177.212 13.6733 180.698 19.8246 182.841C34.7925 188.079 49.7045 187.557 64.3742 181.648C66.9838 180.604 69.1833 178.554 72.0725 176.653C77.2172 182.17 84.4682 185.674 91.4022 189.719C96.5469 192.72 102.008 193.41 107.75 193.186C109.539 193.112 111.31 192.888 113.099 192.758C125.644 191.788 136.008 186.681 143.706 176.541C145.962 173.577 148.217 170.613 150.51 167.668C151.218 166.773 152.038 165.953 152.467 165.45C157.668 167.575 162.365 169.905 167.304 171.396C176.457 174.174 184.975 172.999 192.208 166.065C193.456 164.872 195.004 163.977 196.402 162.952C197.222 163.493 197.818 163.735 198.172 164.164C199.198 165.431 200.241 166.718 201.099 168.097C207.679 178.889 217.893 184.91 229.674 187.128C248.37 190.651 266.152 187.632 281.717 175.665C284.289 173.689 286.992 171.881 289.397 170.185C292.491 171.769 295.045 173.335 297.803 174.434C303.339 176.653 308.633 176 313.386 172.291C314.784 171.191 316.033 169.886 317.394 168.731C319.146 167.202 320.936 165.711 322.65 164.276C332.325 172.962 344.273 172.105 352.549 167.594C356.258 165.562 358.327 162.486 358.7 158.348C359.241 152.383 355.159 148.283 349.212 148.767C347.46 148.916 345.727 149.308 343.751 149.643C343.453 148.506 343.136 147.556 342.968 146.586C342.521 144.089 342.111 141.591 341.719 139.093C340.265 129.773 334.729 124.628 325.54 123.156C324.067 122.913 322.594 122.671 321.141 122.373C320.022 122.131 318.922 121.814 317.748 121.497C317.748 120.062 317.748 118.869 317.748 117.694C317.841 105.392 314.691 94.0401 307.03 84.2913C297.691 72.4363 285.631 67.1052 270.421 70.0503C269.321 70.2554 268.184 70.2927 266.917 70.4231C266.246 66.9002 265.91 63.6195 264.978 60.5066C262.014 50.5902 258.212 41.2329 246.804 38.12C246.301 38.0827 245.798 38.0641 245.294 38.0268L245.238 38.0641Z" fill="black"/>
<path d="M246.748 38.1573C258.156 41.2702 261.958 50.6275 264.922 60.544C265.854 63.6569 266.19 66.9562 266.861 70.4605C268.128 70.33 269.265 70.2927 270.365 70.0877C285.575 67.1426 297.635 72.4736 306.974 84.3287C314.635 94.0588 317.785 105.411 317.692 117.732C317.692 118.906 317.692 120.099 317.692 121.534C318.885 121.851 319.966 122.168 321.085 122.41C322.539 122.708 324.011 122.969 325.484 123.193C334.673 124.647 340.209 129.81 341.663 139.13C342.055 141.628 342.465 144.126 342.912 146.624C343.08 147.593 343.397 148.544 343.695 149.681C345.689 149.364 347.404 148.954 349.157 148.805C355.103 148.32 359.185 152.421 358.644 158.385C358.271 162.542 356.202 165.618 352.493 167.631C344.236 172.142 332.287 172.999 322.594 164.313C320.88 165.767 319.09 167.258 317.338 168.768C315.996 169.942 314.747 171.247 313.33 172.328C308.559 176.038 303.283 176.69 297.747 174.472C295.007 173.372 292.454 171.806 289.341 170.222C286.936 171.937 284.233 173.726 281.661 175.702C266.097 187.669 248.314 190.689 229.618 187.166C217.819 184.948 207.604 178.927 201.043 168.134C200.204 166.736 199.142 165.469 198.116 164.201C197.762 163.772 197.166 163.53 196.346 162.99C194.948 164.015 193.4 164.891 192.152 166.102C184.938 173.037 176.401 174.211 167.249 171.434C162.309 169.924 157.612 167.594 152.411 165.487C151.964 165.972 151.144 166.792 150.454 167.706C148.161 170.651 145.906 173.614 143.65 176.578C135.952 186.7 125.607 191.826 113.043 192.795C111.254 192.925 109.483 193.168 107.694 193.224C101.952 193.447 96.491 192.739 91.3463 189.757C84.4122 185.712 77.1613 182.207 72.0166 176.69C69.1274 178.61 66.9279 180.642 64.3183 181.686C49.6672 187.594 34.7366 188.116 19.7686 182.878C13.6174 180.716 8.305 177.249 4.37196 171.862C2.713 169.588 2.47068 167.221 3.19764 164.686C4.63292 159.728 7.839 158.069 12.704 159.728C13.8225 160.1 14.9036 160.585 16.3761 161.163C17.7555 159.224 19.1721 157.36 20.4956 155.422C23.217 151.395 27.0382 149.476 31.8101 149.233C34.0842 149.121 36.265 149.252 38.1663 150.78C38.8001 151.284 39.6948 151.489 41.0369 152.067C41.652 139.168 46.312 128.748 56.7691 121.273C67.3007 113.761 78.3729 112.922 90.2838 117.993C92.1478 112.941 93.7695 107.89 97.7958 104.311C101.785 100.769 106.128 97.9545 112.26 100.061C112.987 98.9425 113.752 97.7495 114.535 96.5379C112.41 94.1706 110.322 92.0643 108.495 89.7529C97.8703 76.3694 105.923 56.8533 122.382 52.0441C123.37 51.7645 124.451 51.6527 125.476 51.7273C129.018 51.9882 130.434 50.8139 130.434 46.9927C130.434 41.0838 132.317 35.8273 134.908 30.8132C142.196 16.684 152.523 5.966 169.075 3.67328C174.294 2.94632 179.775 3.78512 185.106 4.15792C186.504 4.25112 187.883 5.16448 189.169 5.8728C200.055 11.8003 207.567 20.8407 212.823 31.8943C214.669 35.7714 216.346 39.7417 218.266 44.0289C219.608 43.2088 220.708 42.575 221.789 41.904C227.661 38.2878 233.924 36.2188 240.895 37.0389C242.349 37.2067 243.747 37.7472 245.182 38.1014C240.727 38.381 236.235 38.2878 231.855 39.0521C226.319 40.0027 221.752 42.9292 218.695 47.8688C227.456 40.6551 236.757 36.0883 248.631 41.4753C247.811 40.0773 247.233 39.1452 246.674 38.1946L246.748 38.1573ZM27.9329 158.74C29.8529 158.46 31.7728 158.199 33.6741 157.919C31.7231 156.838 29.8404 157.143 28.0261 158.833C27.0009 159.411 25.9571 159.989 24.9319 160.566C25.0997 160.79 25.2488 161.014 25.4165 161.237C26.2553 160.399 27.0941 159.578 27.9516 158.74H27.9329ZM139.717 113.09C143.818 112.345 147.9 111.599 152.206 110.816C146.073 109.772 143.184 110.332 139.792 113.165C136.66 113.37 135.393 115.886 133.808 118.03C135.784 116.39 137.76 114.731 139.736 113.09H139.717ZM162.085 26.3023C164.508 25.7803 166.913 24.9975 169.355 24.7924C171.778 24.5874 174.257 24.9415 176.718 25.0534C171.573 22.8352 166.596 22.276 162.141 26.3955C161.116 26.9547 160.091 27.4952 159.066 28.0544C159.252 28.334 159.457 28.6136 159.643 28.8746C160.445 28.0172 161.265 27.1784 162.067 26.3209L162.085 26.3023ZM62.7898 126.511C67.3566 125.15 71.942 123.808 77.2172 122.242C71.4015 121.944 66.5551 122.28 62.883 126.604C61.3545 126.474 60.6089 127.294 60.5716 128.934C61.3172 128.133 62.0628 127.313 62.7898 126.511ZM159.42 147.146C158.394 146.12 157.351 145.077 156.325 144.051C156.102 144.331 155.897 144.629 155.673 144.909C156.941 145.617 158.208 146.344 159.494 147.052C161.451 149.42 164.341 149.606 167.043 150.109C172.841 151.19 178.544 150.743 182.887 148.711C174.537 149.233 166.857 149.737 159.42 147.146ZM155.934 164.033C155.151 163.381 154.35 162.729 153.567 162.076C153.418 162.374 153.287 162.654 153.138 162.952C154.107 163.269 155.077 163.605 156.027 163.922C156.4 164.462 156.68 165.282 157.183 165.487C160.594 166.848 163.986 168.6 167.547 169.215C174.686 170.427 181.266 168.749 186.727 163.679C185.46 163.866 184.304 164.35 183.167 164.872C178.395 167.146 173.381 168.097 168.087 167.873C163.651 167.687 159.848 165.711 155.915 164.052L155.934 164.033ZM203.224 157.006C202.329 156.055 201.434 155.105 200.54 154.154C200.316 154.452 200.074 154.751 199.85 155.049C201.006 155.664 202.161 156.298 203.317 156.913C203.634 157.379 203.858 157.994 204.305 158.274C216.626 166.438 230.084 170.483 244.921 169.234C247.941 168.973 251.147 168.936 254.223 167.016C253.477 166.867 253.198 166.736 252.918 166.774C251.576 166.885 250.253 167.034 248.91 167.202C233.775 168.936 219.534 166.308 206.411 158.348C205.442 157.752 204.305 157.454 203.242 157.006H203.224ZM82.6228 181.872C81.2993 180.567 79.9759 179.262 78.6525 177.958C78.4288 178.237 78.1865 178.535 77.9628 178.815C79.4353 179.933 80.9079 181.033 82.3805 182.152C84.0581 183.326 85.6238 184.687 87.4319 185.619C92.3902 188.191 97.8144 189.328 103.332 189.775C111.571 190.428 119.754 190.185 127.284 186.103C134.498 182.189 140.426 176.858 144.955 170.017C146.055 168.358 146.894 166.494 147.844 164.723C147.583 164.574 147.322 164.406 147.043 164.257C145.216 166.68 143.408 169.122 141.544 171.545C130.267 186.178 115.429 190.912 97.5535 187.576C92.1851 186.569 87.4319 184.239 82.6228 181.909V181.872ZM255.08 85.5776C256.814 83.844 255.36 82.8188 254.763 81.8123C252.508 78.047 249.824 74.729 245.555 73.0515C238.696 70.3486 232.414 72.6414 226.076 75.5306C225.629 73.8157 225.238 72.399 224.883 70.9638C220.857 54.7842 209.524 44.7932 192.953 43.8798C178.488 43.0783 167.025 49.4159 158.301 60.7863C156.698 62.8926 155.412 65.2972 156.176 68.205C158.32 68.3355 158.506 66.602 159.271 65.409C160.78 63.0604 162.011 60.3203 164.042 58.5495C167.621 55.4553 171.424 52.3983 175.637 50.3479C194.724 41.0465 215.955 50.5343 222.013 70.8333C222.852 73.6666 223.43 76.5931 224.287 80.0974C226.878 78.8112 229.301 77.8047 231.538 76.4812C236.999 73.2379 242.125 73.9835 246.897 77.7115C248.985 79.3518 250.7 81.4767 252.601 83.3594C253.384 84.1423 254.242 84.8319 255.062 85.5776H255.08ZM172.766 116.091L174.071 115.159C173.474 113.761 173.12 112.177 172.225 111.021C170.604 108.896 168.758 106.939 166.838 105.075C158.32 96.8548 148.161 95.55 137.406 99.1102C126.911 102.577 120.686 110.108 119.157 121.236C118.971 122.597 118.542 123.92 118.188 125.449C117.144 124.871 116.622 124.628 116.119 124.312C105.83 117.806 90.5634 124.386 89.8924 140.566C89.8365 142.02 90.433 142.784 91.9987 142.318C92.7816 139.335 93.3594 136.409 94.3287 133.632C97.162 125.579 106.985 122.261 114.162 126.791C115.877 127.872 117.573 129.027 119.101 130.034C121.469 128.711 120.891 126.735 121.059 125.038C122.251 113.146 129.428 103.957 140.127 101.161C145.514 99.7626 151.125 99.2593 156.27 101.906C161.414 104.553 166.316 107.666 169.429 112.885C170.175 114.153 171.629 114.992 172.766 116.035V116.091ZM297.878 137.826C297.729 137.565 297.524 137.341 297.43 137.061C293.777 124.852 285.053 118.403 272.993 116.259C264.792 114.805 257.671 117.843 251.874 123.603C250.383 125.094 248.295 127.089 249.47 130.761C250.924 129.083 252.098 128.002 252.937 126.697C255.36 122.969 258.846 120.826 263.04 119.838C269.899 118.235 276.293 119.763 282.5 122.839C287.868 125.486 291.522 129.438 293.274 135.272C294.057 137.9 295.455 140.361 296.648 143.063C297.673 142.56 298.232 142.392 298.698 142.057C302.724 139.261 306.881 137.136 312.044 138.534C312.603 138.683 313.424 137.826 314.132 137.453C313.61 136.856 313.181 135.943 312.547 135.738C311.429 135.402 310.143 135.291 309.006 135.496C305.39 136.148 301.811 136.987 297.878 137.826ZM217.465 170.502C227.195 177.007 249.246 179.262 259.889 171.825C245.145 175.367 231.221 175.646 217.465 170.502ZM250.998 181.909C231.631 186.551 217.092 178.591 203.727 167.407C209.524 179.859 238.397 189.291 250.998 181.909ZM135.616 38.7911C138.151 31.4469 141.152 25.0534 146.223 19.8155C151.162 14.7082 157.239 11.4275 163.837 8.94841C149.988 10.0109 135.56 25.1466 135.616 38.7911ZM298.269 105.914C301.643 93.8351 287.253 74.9341 270.067 77.8606C287.495 79.5755 296.331 89.3056 298.269 105.914ZM44.4853 143.231C50.972 124.162 64.3742 117.098 83.2379 119.018C63.4236 112.009 44.2989 129.959 44.4853 143.231ZM267.234 73.7411C269.545 73.6293 270.85 73.592 272.155 73.4802C278.231 72.9583 284.159 73.8343 289.378 76.8913C293.945 79.5755 298.046 83.0611 302.351 86.1927C303.209 86.8264 304.01 87.5161 304.831 88.1872C298.176 75.922 281.512 69.4166 267.234 73.7411ZM257.261 127.76C262.928 122.727 269.713 123.025 276.33 124.237C283.898 125.616 286.806 131.768 288.688 139.503C289.713 131.581 285.016 124.983 277.784 122.988C272.788 121.609 267.737 121.776 262.797 123.249C260.43 123.957 258.081 124.964 257.261 127.779V127.76ZM160.799 69.7894C164.788 64.1602 168.609 58.4004 174.686 54.691C180.93 50.8885 188.219 51.1121 195.003 49.4345C179.57 47.6451 166.279 54.7097 160.799 69.7894ZM149.466 104.702C146.465 103.416 143.52 103.547 140.631 104.385C131.311 107.069 122.643 118.626 122.345 129.68C126.93 115.569 133.305 104.609 149.466 104.702ZM6.88836 163.008C5.73268 165.804 6.3478 168.283 7.85764 170.651C10.0012 174.024 13.0023 176.392 16.488 178.218C22.8815 181.574 29.797 182.319 36.8429 182.338C37.5512 182.338 38.2409 182.04 38.9492 181.872C37.2343 181.201 35.6313 181.126 34.0282 180.977C27.3178 180.362 20.7193 179.281 14.9222 175.497C10.4113 172.552 6.57148 169.197 6.907 163.008H6.88836ZM335.195 147.257L336.183 147.201C335.754 142.374 335.121 137.602 333.033 133.091C331.672 130.146 329.584 127.946 326.733 126.418C322.128 123.957 317.282 123.286 312.175 124.256C313.591 124.591 315.045 124.666 316.499 124.796C326.211 125.71 330.945 129.736 333.331 139.13C334.021 141.833 334.599 144.555 335.214 147.257H335.195ZM302.221 119.726C307.216 112.065 304.327 93.8351 296.778 86.6587C301.829 97.5631 305.166 108.151 302.221 119.726ZM255.267 133.781C257 132.774 258.063 132.047 259.218 131.488C267.55 127.387 276.516 127.35 282.071 137.714C282.705 138.888 283.469 139.969 284.177 141.088C282.723 134.713 279.536 129.792 272.975 127.965C267.271 126.381 259.722 128.748 255.267 133.762V133.781ZM136.66 168.992C127.154 175.87 117.405 182.152 105.308 183.344C118.02 183.55 128.16 178.013 136.66 168.992ZM117.759 111.282C123.389 101.347 132.28 96.0532 143.24 93.6673C133.734 92.0456 122.046 100.079 117.759 111.282ZM173.232 7.84864C176.997 8.44513 180.632 8.57561 183.969 9.67537C187.454 10.831 190.791 12.6578 193.866 14.6895C196.681 16.5535 199.03 19.0699 201.602 21.2881C196.886 11.3902 186.205 6.46928 173.251 7.83L173.232 7.84864ZM151.964 150.855C161.414 157.174 178.861 158.907 184.714 154.602C164.807 155.962 164.229 154.713 151.964 150.855ZM217.726 78.8858C217.614 66.0987 210.214 54.02 200.484 51.5968C211.761 57.8598 215.097 68.1491 217.726 78.8858ZM251.408 87.7957C250.383 81.7191 245.965 78.1215 239.329 77.4319C232.992 76.7795 228.09 79.1281 226.468 83.6017C234.986 76.183 243.095 77.3946 251.408 87.7957ZM326.509 162.151L325.819 162.971C327.609 164.127 329.268 165.692 331.225 166.363C337.581 168.526 344.086 168.377 350.517 166.513C351.766 166.158 352.959 165.376 353.966 164.537C355.103 163.605 356.463 162.617 356.221 160.529C345.783 169.178 333.611 168.041 326.509 162.169V162.151ZM250.271 117.974C258.547 112.699 267.811 112.606 277.131 112.755C267.401 110.369 258.23 111.077 250.271 117.974ZM10.4859 162.766C8.82692 171.825 22.4901 179.113 31.4186 177.697C27.411 176.336 22.9561 175.18 18.818 173.316C14.4189 171.34 11.6788 167.612 10.4859 162.766ZM293.255 167.892C302.37 174.919 315.027 172.459 318.531 162.673C311.038 170.8 302.948 173.409 293.255 167.892ZM258.025 180.772C266.339 180.94 280.058 174.136 284.494 167.855C276.404 173.074 268.184 177.995 258.025 180.772ZM312.622 119.279C314.579 110.555 312.547 102.503 308.148 94.8789C309.975 102.931 312.454 110.872 312.622 119.279ZM195.842 59.4256C188.908 53.0134 176.438 56.1636 169.951 65.8564C177.295 58.6054 185.628 55.2875 195.842 59.4256ZM95.2607 139.857C97.1993 135.235 99.5666 131.917 103.779 130.463C108.178 128.934 112.018 130.891 116.399 133.221C113.155 128.599 108.849 127.182 103.966 128.599C99.1565 129.978 95.7454 134.098 95.2607 139.876V139.857ZM253.496 43.8612C255.285 47.2723 257.559 50.4597 258.659 54.02C259.778 57.6175 259.74 61.5692 260.206 65.3718C262.424 56.2195 259.591 47.7756 253.496 43.8612ZM56.4149 130.015C48.2133 134.88 44.1311 144.294 46.5543 152.383C46.9271 143.66 49.9095 136.111 56.4149 130.015ZM120.387 173.465C112.074 177.007 103.593 178.293 94.7574 175.478C103.686 180.176 112.149 178.498 120.387 173.465ZM197.762 56.4805C206.094 59.9475 210.848 66.2851 212.898 74.9155C213.252 65.9496 206.914 58.3631 197.762 56.4805ZM110.229 65.0176C114.74 57.8412 121.972 55.3807 130.565 53.554C121.618 52.4542 112.26 57.9158 110.229 65.0176ZM79.2676 157.304C85.5679 163.251 93.1358 165.487 101.673 164.704C93.9 163.251 86.0339 162.058 79.2676 157.304ZM156.624 158.255C161.712 163.642 173.642 165.282 180.39 161.461C171.983 161.685 163.837 163.437 156.624 158.255ZM47.9523 181.667C56.359 181.797 66.2382 178.834 70.2831 174.901C62.8084 177.156 55.4643 179.393 47.9523 181.667ZM94.7015 115.439C98.094 107.647 103.593 102.596 112.484 101.925C103.295 100.956 95.9504 106.454 94.7015 115.439ZM290.124 161.592C298.418 167.743 309.901 167.799 313.219 161.461C305.352 166.606 297.729 164.779 290.124 161.592ZM35.2958 154.546C32.9658 151.824 30.1511 152.085 27.5042 152.924C22.9747 154.359 20.4397 157.808 18.5757 162.915C26.479 153.744 27.0569 153.465 35.2958 154.527V154.546ZM60.1243 174.584C53.2834 175.199 46.778 175.777 40.7759 176.317C46.3307 178.312 53.3766 177.79 60.1243 174.584ZM292.696 157.621C300.152 162.058 308.484 161.61 312.902 156.41C306.173 159.709 299.928 159.541 292.696 157.621ZM175.972 13.3661C167.938 11.558 161.06 14.4286 154.573 18.7717C161.414 15.7707 168.367 13.2356 175.972 13.3661ZM139.27 120.621C143.986 115.364 150.323 115.663 157.034 115.737C151.218 112.326 143.576 114.451 139.27 120.621ZM181.583 78.8112C187.771 76.1457 193.922 76.7981 200.074 78.8485C194.761 74.4308 188.107 74.3749 181.583 78.8112ZM166.354 98.29C171.424 101.794 176.363 105.448 178.507 111.674C177.78 104.124 172.486 100.825 166.354 98.29ZM205.554 26.1531C207.996 31.13 210.083 36.2933 214.184 40.2637C212.6 34.7835 209.133 30.4217 205.554 26.1531ZM319.258 144.033C313.722 141.274 308.148 140.677 302.575 143.809C308.148 142.187 313.666 143.418 319.258 144.033ZM228.071 159.989C225.089 159.336 222.032 158.87 219.124 157.938C216.272 157.043 213.569 155.664 210.792 154.508C215.731 158.926 221.323 161.331 228.071 159.989ZM125.346 58.009C117.778 58.9782 113.714 62.6503 114.329 68.3542C116.566 62.7994 120.481 59.817 125.346 58.009ZM225.331 46.5267C231.016 42.6869 237.13 41.643 243.747 42.9851C237.577 39.6485 230.979 40.8974 225.331 46.5267ZM114.889 169.775C111.571 170.259 108.253 171.154 104.935 171.135C101.785 171.135 98.6159 170.203 95.4658 169.663C101.99 173.018 108.532 173.558 114.889 169.756V169.775ZM106.78 71.728C106.091 78.6807 107.6 84.4032 111.515 89.8834C109.912 83.7322 108.402 77.9911 106.78 71.728ZM255.565 158.535C249.582 158.814 243.617 159.094 236.813 159.411C243.598 161.07 249.526 161.312 255.565 158.535ZM149.708 61.8488C150.1 59.407 150.249 56.9092 150.92 54.5419C151.61 52.0628 152.802 49.7328 153.772 47.3282C150.025 51.5036 147.9 56.2009 149.708 61.8488ZM221.267 110.108C227.493 108.635 233.495 109.94 239.479 111.58C233.7 107.573 227.568 107.703 221.267 110.108ZM227.698 116.445C232.433 116.688 236.869 117.732 240.783 121.348C239.292 116.129 235.285 114.731 227.698 116.445ZM276.199 139.503C274.168 132.7 267.439 131.357 260.579 136.297C266.451 134.135 272.173 132.625 276.199 139.503ZM145.141 57.6362C146.689 52.9761 148.254 48.2975 149.988 43.0597C146.167 47.6451 144.172 52.156 145.141 57.6362ZM197.203 26.5073C200.185 31.652 203.037 36.517 206.038 41.6803C205.218 35.2681 201.994 30.6081 197.203 26.5073ZM158.786 21.0271C163.539 20.412 167.864 19.8528 173.064 19.1818C167.416 17.0009 163.129 18.082 158.786 21.0271ZM143.091 153.986C140.202 157.248 137.257 160.585 134.293 163.903C139.419 162.468 141.544 158.479 143.091 153.986ZM346.118 161.032C343.62 161.032 341.085 161.275 338.606 160.958C336.015 160.622 333.499 159.765 330.964 159.131C335.717 162.691 340.88 163.139 346.118 161.032ZM244.027 85.9317C240.709 81.0107 236.571 80.6939 230.755 84.776C235.713 83.0052 239.646 82.9679 244.027 85.9317ZM322.893 130.985C318.438 126.753 313.964 126.847 309.099 127.723C313.554 128.766 317.767 129.773 322.893 130.985ZM99.0446 114.954C101.058 110.779 103.872 107.498 108.383 105.951C102.269 106.846 99.492 109.455 99.0446 114.954ZM201.36 64.6448C202.926 68.3914 204.417 71.9703 205.777 75.1951C207.269 72.1381 206.132 69.1184 201.36 64.6448ZM184.751 83.9372C189.598 82.4647 194.146 83.639 198.564 85.8572C194.426 81.6445 189.747 81.6072 184.751 83.9372ZM330.647 144.07C331.001 139.391 329.734 135.589 325.707 132.923C327.422 136.8 329.044 140.435 330.647 144.07ZM161.377 143.529C165.888 146.288 169.262 146.698 172.822 144.946C169.113 144.499 165.683 144.07 161.377 143.529ZM70.1526 129.605C65.7163 129.531 62.1188 131.059 59.155 135.085C63.1812 133.091 66.6669 131.339 70.1526 129.605ZM294.914 111.823C294.784 113.575 294.839 115.364 294.485 117.061C294.15 118.701 293.386 120.248 292.826 121.851C296.032 119.018 296.871 115.681 294.914 111.823ZM179.104 70.4046C174.537 69.9758 170.921 72.4923 170.063 76.3321C172.878 74.4867 176.047 72.3991 179.104 70.4046ZM174.723 76.6863C178.488 74.9341 181.806 73.4056 185.944 71.467C180.744 71.4298 177.482 73.1819 174.723 76.6863ZM236.254 52.1933C240.504 53.0321 243.356 55.8094 245.835 59.0901C244.754 54.1505 242.312 52.3983 236.254 52.1933ZM216.607 106.436C218.732 106.026 220.857 105.373 223.001 105.261C225.294 105.15 227.605 105.541 229.916 105.709C225.294 103.043 220.801 103.453 216.607 106.436ZM70.5254 155.534C72.3149 159.15 75.0922 161.648 79.0625 162.84C76.2106 160.399 73.3773 157.975 70.5254 155.534ZM273.888 159.075C270.067 160.604 266.264 162.114 262.443 163.642C266.917 163.586 270.943 162.393 273.888 159.075ZM233.458 125.449C231.687 122.354 226.151 121.702 222.143 124.125C227.4 123.603 228.928 123.771 233.458 125.449ZM246.86 54.5233C246.618 48.8008 243.729 46.6945 237.82 47.496C242.629 47.1232 244.847 50.3479 246.86 54.5233ZM130.919 64.7566C126.352 65.465 124.712 67.3103 124.88 71.6721C126.837 69.4353 129.036 66.9189 130.919 64.7566ZM294.933 127.089C298.828 124.33 299.369 120.9 298.791 117.135C297.58 120.267 296.349 123.435 294.933 127.089ZM255.733 58.0649C255.77 52.7897 254.782 50.5157 251.8 48.4093C253.011 51.3545 254.204 54.3182 255.733 58.0649ZM270.402 166.829C275.566 166.774 277.336 166.084 279.946 163.381C276.367 164.667 273.385 165.748 270.402 166.829ZM69.8916 132.905C66.1077 133.203 63.554 135.197 61.4477 139.056C64.6724 136.707 67.282 134.806 69.8916 132.905ZM242.331 156.018C245.661 157.124 248.109 157.255 249.675 156.41C247.028 156.261 244.679 156.13 242.331 156.018ZM98.3363 181.499C95.0184 180.493 91.7191 179.486 88.4012 178.479C91.2904 180.959 94.5338 182.207 98.3363 181.499ZM234.93 87.5534C236.944 88.7464 239.106 90.0139 241.436 91.3932C239.945 87.7398 239.292 87.3856 234.93 87.5534ZM154.443 120.453C150.976 118.309 149.485 118.421 146.707 120.826C149.093 120.714 151.647 120.584 154.443 120.453ZM100.536 138.813C103.145 136.968 105.587 135.235 107.675 133.743C103.761 133.352 102.12 134.414 100.536 138.813ZM25.6402 170.036C23.3102 168.675 20.9616 167.314 17.8301 165.506C20.1228 168.675 22.1732 170.483 25.6402 170.036ZM107.694 109.847C103.127 110.835 102.251 111.636 101.71 115.141C103.556 113.519 105.531 111.767 107.694 109.847ZM138.468 152.216C136.847 154.341 135.225 156.466 133.603 158.572C136.996 157.696 138.151 155.198 138.468 152.216ZM350.555 151.358C352.176 152.756 353.332 153.465 354.096 154.471C354.879 155.496 355.289 156.82 356.184 158.684C356.016 153.837 355.55 153.222 350.555 151.358ZM306.49 116.837C306.9 116.837 307.31 116.837 307.72 116.837V108.001C307.515 108.001 307.328 108.002 307.123 107.983L306.471 116.837H306.49ZM118.02 71.262C119.288 68.932 120.537 66.602 121.804 64.2534C118.859 65.7259 117.89 68.2237 118.02 71.262ZM113.975 75.0646C113.323 77.3946 113.192 79.7059 115.746 82.1851C115.001 79.2399 114.497 77.1523 113.975 75.0646ZM152.336 80.2092C152.858 78.1961 153.399 76.183 154.163 73.2565C151.926 75.7729 150.957 77.6555 152.336 80.2092ZM164.322 113.165C163.614 110.257 161.862 108.617 159.047 108.207C160.799 109.866 162.57 111.506 164.322 113.165ZM248.668 135.011C245.052 135.458 244.511 135.924 243.542 139.335C245.238 137.9 246.897 136.521 248.668 135.011ZM238.435 57.8598C239.926 59.2206 241.436 60.5999 243.039 62.0725C242.349 58.419 242.163 58.2513 238.435 57.8598ZM289.9 119.726C292.137 118.459 292.845 116.613 292.379 113.631C291.391 116.054 290.645 117.899 289.9 119.726ZM315.716 137.956C317.655 139.485 318.96 140.528 320.693 141.889C320.6 138.571 318.792 138.124 315.716 137.956ZM66.4432 139.149C66.6669 139.447 66.9092 139.764 67.1329 140.062C68.6987 138.813 70.9168 138.347 71.2337 135.589C69.6307 136.782 68.0276 137.956 66.4246 139.149H66.4432ZM274.298 145.803C273.764 143.654 272.36 142.411 270.086 142.075C271.484 143.306 272.77 144.443 274.298 145.803ZM242.256 153.614C242.256 153.744 242.256 153.893 242.256 154.024H247.568C247.568 153.893 247.568 153.744 247.568 153.614H242.256ZM209.468 42.8733C209.748 42.7241 210.046 42.575 210.326 42.4259C209.71 40.9347 209.077 39.4435 208.462 37.9523C208.257 38.0268 208.052 38.1014 207.846 38.1946C208.387 39.7604 208.928 41.3261 209.468 42.8733ZM139.587 54.8588C139.904 54.8588 140.22 54.8588 140.556 54.8402C140.91 53.1253 141.264 51.3917 141.618 49.6769C141.283 49.6209 140.947 49.5464 140.612 49.4905C140.276 51.2799 139.941 53.0693 139.587 54.8588ZM102.437 140.323C102.698 140.603 102.959 140.883 103.22 141.181C104.152 140.305 105.103 139.41 106.035 138.534C105.83 138.31 105.625 138.068 105.42 137.844C104.432 138.683 103.425 139.503 102.437 140.342V140.323ZM71.4947 162.505C71.6997 162.244 71.9048 161.964 72.0912 161.703C70.9355 160.865 69.7798 160.007 68.6241 159.168C68.4564 159.429 68.27 159.672 68.1022 159.933C69.2206 160.79 70.3577 161.648 71.4761 162.505H71.4947ZM192.618 160.921C192.468 160.585 192.338 160.231 192.189 159.895C190.996 160.51 189.784 161.107 188.591 161.722C188.685 161.946 188.796 162.188 188.89 162.412C190.138 161.908 191.369 161.405 192.618 160.921ZM158.04 77.1523C157.17 78.7553 157.096 80.1719 157.817 81.4022C157.891 79.8923 157.966 78.513 158.04 77.1523ZM76.4157 155.012C76.6393 154.825 76.863 154.639 77.0681 154.452C76.3411 153.483 75.5955 152.533 74.8685 151.563C74.7008 151.694 74.533 151.824 74.3652 151.936C75.0549 152.961 75.726 153.986 76.4157 155.012ZM151.777 92.8285C151.777 92.8285 151.777 93.0149 151.777 93.1081C152.802 93.2013 153.846 93.2759 154.872 93.3691C154.872 93.1827 154.872 93.0149 154.89 92.8285H151.777ZM30.3748 162.281C30.5426 162.598 30.7103 162.915 30.8781 163.232C32.0338 162.84 33.1894 162.468 34.3265 162.076C34.2519 161.815 34.1587 161.554 34.0842 161.275C32.8539 161.61 31.6237 161.946 30.3748 162.281ZM135.467 153.129C135.169 152.868 134.871 152.626 134.554 152.365C133.696 153.371 132.858 154.359 132 155.366L132.709 156.018C133.622 155.049 134.535 154.098 135.449 153.129H135.467ZM337.357 157.174C337.357 157.342 337.357 157.528 337.357 157.696H341.738C341.738 157.528 341.738 157.342 341.738 157.174H337.357Z" fill="white"/>
<path d="M246.748 38.1573C247.307 39.108 247.867 40.04 248.705 41.438C236.85 36.051 227.53 40.6178 218.77 47.8315C221.826 42.8919 226.375 39.9654 231.929 39.0148C236.291 38.2692 240.802 38.3624 245.257 38.0641C245.76 38.1014 246.264 38.1201 246.767 38.1573H246.748Z" fill="black"/>
<path d="M255.08 85.5774C254.26 84.8318 253.403 84.1421 252.62 83.3592C250.719 81.4766 249.022 79.333 246.916 77.7113C242.144 73.9833 237.018 73.2377 231.557 76.481C229.32 77.8231 226.897 78.8297 224.306 80.0972C223.448 76.5929 222.87 73.6664 222.032 70.8331C215.974 50.5341 194.743 41.0464 175.655 50.3477C171.442 52.3981 167.621 55.4551 164.061 58.5493C162.011 60.3201 160.78 63.0416 159.289 65.4089C158.525 66.6018 158.339 68.3354 156.195 68.2049C155.449 65.297 156.717 62.8925 158.32 60.7861C167.043 49.4157 178.507 43.0781 192.972 43.8796C209.543 44.793 220.876 54.7654 224.902 70.9636C225.256 72.3989 225.648 73.8155 226.095 75.5304C232.433 72.6412 238.714 70.3485 245.574 73.0513C249.842 74.7289 252.527 78.0654 254.782 81.8121C255.379 82.8186 256.832 83.8438 255.099 85.5774H255.08Z" fill="black"/>
<path d="M172.766 116.091C171.629 115.047 170.194 114.209 169.429 112.941C166.298 107.703 161.414 104.609 156.27 101.962C151.125 99.3152 145.496 99.8185 140.127 101.217C129.428 103.994 122.233 113.202 121.059 125.094C120.891 126.772 121.487 128.766 119.101 130.09C117.573 129.083 115.895 127.928 114.162 126.847C106.985 122.298 97.1621 125.635 94.3288 133.687C93.3409 136.465 92.7817 139.391 91.9988 142.374C90.433 142.84 89.8366 142.057 89.8925 140.622C90.5635 124.442 105.83 117.862 116.119 124.367C116.622 124.684 117.144 124.945 118.188 125.504C118.542 123.976 118.971 122.653 119.157 121.292C120.686 110.145 126.912 102.633 137.406 99.1661C148.161 95.6059 158.32 96.9107 166.839 105.131C168.758 106.995 170.604 108.952 172.225 111.077C173.12 112.251 173.474 113.836 174.071 115.215L172.766 116.147V116.091Z" fill="black"/>
<path d="M297.878 137.825C301.811 136.987 305.39 136.148 309.006 135.495C310.143 135.29 311.429 135.402 312.548 135.738C313.181 135.924 313.61 136.856 314.132 137.453C313.424 137.844 312.603 138.683 312.044 138.534C306.881 137.117 302.724 139.242 298.698 142.057C298.232 142.374 297.673 142.56 296.648 143.063C295.455 140.36 294.057 137.9 293.274 135.272C291.522 129.456 287.868 125.504 282.5 122.839C276.293 119.782 269.899 118.235 263.04 119.838C258.846 120.826 255.36 122.969 252.937 126.697C252.098 128.002 250.924 129.083 249.47 130.761C248.295 127.089 250.383 125.094 251.874 123.603C257.653 117.843 264.792 114.805 272.993 116.259C285.053 118.384 293.777 124.852 297.43 137.061C297.505 137.341 297.729 137.564 297.878 137.825Z" fill="black"/>
<path d="M82.6228 181.872C87.4319 184.22 92.1852 186.55 97.5535 187.538C115.429 190.875 130.267 186.159 141.544 171.508C143.389 169.103 145.197 166.662 147.043 164.22C147.304 164.369 147.565 164.537 147.844 164.686C146.894 166.457 146.073 168.302 144.955 169.98C140.426 176.82 134.479 182.151 127.284 186.066C119.754 190.148 111.571 190.39 103.332 189.738C97.8144 189.309 92.3902 188.172 87.4319 185.581C85.6425 184.649 84.0581 183.27 82.3805 182.114L82.6415 181.835L82.6228 181.872Z" fill="black"/>
<path d="M203.224 157.006C204.286 157.454 205.423 157.752 206.393 158.348C219.515 166.308 233.756 168.917 248.892 167.202C250.215 167.053 251.557 166.904 252.899 166.774C253.179 166.755 253.477 166.867 254.204 167.016C251.129 168.917 247.923 168.973 244.903 169.234C230.084 170.483 216.607 166.457 204.286 158.274C203.857 157.975 203.634 157.379 203.298 156.913L203.205 157.006H203.224Z" fill="black"/>
<path d="M217.465 170.501C231.24 175.665 245.164 175.366 259.889 171.825C249.246 179.262 227.176 177.007 217.465 170.501Z" fill="black"/>
<path d="M250.998 181.909C238.397 189.29 209.524 179.859 203.727 167.407C217.092 178.591 231.631 186.55 250.998 181.909Z" fill="black"/>
<path d="M135.616 38.7911C135.56 25.1653 149.988 10.0109 163.837 8.94846C157.239 11.4462 151.162 14.7269 146.223 19.8156C141.152 25.0348 138.17 31.447 135.616 38.7911Z" fill="black"/>
<path d="M298.269 105.914C296.331 89.3055 287.495 79.5754 270.067 77.8605C287.253 74.9341 301.643 93.835 298.269 105.914Z" fill="black"/>
<path d="M44.4853 143.231C44.3176 129.959 63.4423 112.009 83.238 119.018C64.3556 117.116 50.9534 124.162 44.4853 143.231Z" fill="black"/>
<path d="M267.234 73.741C281.512 69.4352 298.176 75.9405 304.831 88.187C304.01 87.516 303.209 86.8263 302.351 86.1925C298.064 83.0424 293.963 79.5567 289.378 76.8912C284.159 73.8342 278.231 72.9581 272.155 73.48C270.85 73.5919 269.526 73.6105 267.234 73.741Z" fill="black"/>
<path d="M257.261 127.76C258.081 124.945 260.411 123.939 262.797 123.23C267.737 121.758 272.77 121.59 277.784 122.969C285.035 124.964 289.714 131.562 288.688 139.484C286.806 131.767 283.898 125.616 276.33 124.218C269.713 123.007 262.928 122.727 257.261 127.741V127.76Z" fill="black"/>
<path d="M160.799 69.7894C166.261 54.7097 179.57 47.6451 195.004 49.4345C188.219 51.1308 180.912 50.8884 174.686 54.691C168.609 58.4004 164.788 64.1601 160.799 69.7894Z" fill="black"/>
<path d="M149.466 104.702C133.305 104.628 126.93 115.569 122.345 129.68C122.643 118.626 131.311 107.069 140.631 104.385C143.52 103.546 146.465 103.416 149.466 104.702Z" fill="black"/>
<path d="M6.88834 163.008C6.55282 169.197 10.3927 172.552 14.9036 175.497C20.7192 179.299 27.2992 180.362 34.0096 180.977C35.6126 181.126 37.2343 181.201 38.9305 181.872C38.2222 182.04 37.5325 182.338 36.8242 182.338C29.7597 182.319 22.8442 181.555 16.4693 178.218C12.9836 176.392 9.98259 174.006 7.83899 170.65C6.32914 168.283 5.71402 165.804 6.8697 163.008H6.88834Z" fill="black"/>
<path d="M335.195 147.257C334.561 144.555 334.002 141.833 333.313 139.13C330.945 129.736 326.192 125.71 316.481 124.796C315.027 124.666 313.573 124.591 312.156 124.256C317.263 123.268 322.129 123.939 326.714 126.418C329.566 127.946 331.672 130.146 333.014 133.091C335.102 137.602 335.736 142.374 336.164 147.202L335.177 147.257H335.195Z" fill="black"/>
<path d="M302.221 119.726C305.166 108.132 301.83 97.5443 296.778 86.6586C304.327 93.835 307.216 112.065 302.221 119.726Z" fill="black"/>
<path d="M255.267 133.781C259.722 128.748 267.29 126.399 272.975 127.984C279.536 129.81 282.723 134.731 284.177 141.106C283.469 139.988 282.686 138.888 282.071 137.732C276.516 127.369 267.569 127.406 259.218 131.507C258.063 132.066 257 132.793 255.267 133.799V133.781Z" fill="black"/>
<path d="M136.66 168.992C128.142 178.013 118.02 183.55 105.308 183.345C117.405 182.152 127.172 175.889 136.66 168.992Z" fill="black"/>
<path d="M117.759 111.282C122.046 100.061 133.734 92.0456 143.24 93.6673C132.28 96.0532 123.389 101.366 117.759 111.282Z" fill="black"/>
<path d="M173.232 7.84852C186.187 6.48779 196.868 11.4088 201.584 21.3066C199.03 19.0698 196.663 16.5534 193.848 14.708C190.772 12.6763 187.436 10.8496 183.95 9.69388C180.632 8.59412 176.979 8.46364 173.213 7.86716L173.232 7.84852Z" fill="black"/>
<path d="M155.953 164.033C159.886 165.711 163.688 167.687 168.106 167.873C173.4 168.097 178.414 167.165 183.186 164.872C184.323 164.331 185.478 163.865 186.746 163.679C181.284 168.749 174.704 170.427 167.565 169.215C164.005 168.619 160.613 166.848 157.202 165.487C156.68 165.282 156.419 164.462 156.046 163.921L155.953 164.033Z" fill="black"/>
<path d="M151.964 150.855C164.229 154.713 164.807 155.962 184.714 154.602C178.861 158.907 161.414 157.174 151.964 150.855Z" fill="black"/>
<path d="M217.726 78.8858C215.097 68.1491 211.761 57.8599 200.484 51.5968C210.214 54.02 217.614 66.0801 217.726 78.8858Z" fill="black"/>
<path d="M251.408 87.7955C243.076 77.413 234.986 76.2014 226.468 83.6015C228.09 79.1279 232.992 76.7606 239.33 77.4317C245.965 78.1213 250.383 81.7189 251.408 87.7955Z" fill="black"/>
<path d="M326.509 162.151C333.611 168.022 345.783 169.159 356.221 160.51C356.463 162.598 355.103 163.586 353.966 164.518C352.959 165.357 351.766 166.14 350.517 166.494C344.086 168.358 337.6 168.507 331.225 166.345C329.268 165.674 327.609 164.108 325.819 162.952L326.509 162.132V162.151Z" fill="black"/>
<path d="M250.271 117.974C258.231 111.096 267.401 110.369 277.132 112.755C267.812 112.605 258.547 112.699 250.271 117.974Z" fill="black"/>
<path d="M10.4859 162.766C11.6788 167.612 14.4189 171.34 18.8179 173.316C22.956 175.18 27.411 176.336 31.4186 177.696C22.49 179.113 8.8269 171.825 10.4859 162.766Z" fill="black"/>
<path d="M293.255 167.892C302.948 173.409 311.038 170.781 318.531 162.673C315.008 172.477 302.37 174.919 293.255 167.892Z" fill="black"/>
<path d="M258.025 180.772C268.184 177.976 276.423 173.055 284.494 167.855C280.058 174.155 266.339 180.959 258.025 180.772Z" fill="black"/>
<path d="M312.622 119.279C312.454 110.872 309.975 102.931 308.148 94.8789C312.529 102.503 314.579 110.555 312.622 119.279Z" fill="black"/>
<path d="M195.842 59.4255C185.628 55.2688 177.277 58.5867 169.951 65.8564C176.438 56.1635 188.908 53.032 195.842 59.4255Z" fill="black"/>
<path d="M95.2607 139.857C95.764 134.079 99.1565 129.959 103.966 128.58C108.868 127.182 113.155 128.58 116.399 133.203C111.999 130.873 108.16 128.916 103.779 130.444C99.5666 131.917 97.1993 135.216 95.2607 139.839V139.857Z" fill="black"/>
<path d="M253.496 43.8612C259.591 47.757 262.425 56.2009 260.206 65.3718C259.74 61.5692 259.778 57.6175 258.659 54.02C257.559 50.4598 255.285 47.2723 253.496 43.8612Z" fill="black"/>
<path d="M56.4149 130.015C49.9095 136.111 46.9085 143.66 46.5543 152.383C44.1311 144.294 48.2133 134.88 56.4149 130.015Z" fill="black"/>
<path d="M120.387 173.465C112.167 178.498 103.686 180.194 94.7574 175.478C103.574 178.293 112.074 176.988 120.387 173.465Z" fill="black"/>
<path d="M197.762 56.4805C206.914 58.3632 213.233 65.9683 212.898 74.9155C210.848 66.2852 206.094 59.9476 197.762 56.4805Z" fill="black"/>
<path d="M110.229 65.0175C112.26 57.9157 121.618 52.4541 130.565 53.5539C121.972 55.3806 114.721 57.8411 110.229 65.0175Z" fill="black"/>
<path d="M79.2676 157.304C86.0339 162.058 93.9 163.25 101.673 164.704C93.1358 165.487 85.5679 163.25 79.2676 157.304Z" fill="black"/>
<path d="M156.624 158.255C163.837 163.418 172.002 161.685 180.39 161.461C173.642 165.282 161.713 163.642 156.624 158.255Z" fill="black"/>
<path d="M47.9524 181.667C55.4643 179.393 62.8085 177.174 70.2831 174.9C66.2383 178.833 56.359 181.797 47.9524 181.667Z" fill="black"/>
<path d="M94.7015 115.439C95.9318 106.454 103.295 100.956 112.484 101.925C103.611 102.596 98.1127 107.647 94.7015 115.439Z" fill="black"/>
<path d="M159.42 147.146C166.857 149.718 174.537 149.233 182.887 148.711C178.563 150.743 172.841 151.19 167.043 150.109C164.341 149.606 161.47 149.438 159.494 147.052L159.42 147.146Z" fill="black"/>
<path d="M290.124 161.592C297.729 164.779 305.352 166.587 313.219 161.461C309.901 167.799 298.418 167.761 290.124 161.592Z" fill="black"/>
<path d="M35.2958 154.546C27.0383 153.483 26.4791 153.763 18.5757 162.934C20.4397 157.808 22.9747 154.359 27.5043 152.943C30.1511 152.104 32.9658 151.843 35.2958 154.564V154.546Z" fill="black"/>
<path d="M60.1243 174.584C53.3767 177.808 46.3307 178.312 40.776 176.317C46.7781 175.777 53.2835 175.199 60.1243 174.584Z" fill="black"/>
<path d="M292.696 157.621C299.928 159.56 306.154 159.709 312.902 156.41C308.484 161.61 300.171 162.058 292.696 157.621Z" fill="black"/>
<path d="M175.972 13.366C168.348 13.2355 161.395 15.7706 154.573 18.7716C161.079 14.4285 167.938 11.5579 175.972 13.366Z" fill="black"/>
<path d="M139.27 120.621C143.557 114.451 151.218 112.345 157.034 115.737C150.342 115.662 144.004 115.364 139.27 120.621Z" fill="black"/>
<path d="M181.583 78.8112C188.107 74.3935 194.78 74.4308 200.074 78.8484C193.904 76.798 187.753 76.1456 181.583 78.8112Z" fill="black"/>
<path d="M166.354 98.29C172.486 100.825 177.78 104.143 178.507 111.674C176.363 105.448 171.442 101.794 166.354 98.29Z" fill="black"/>
<path d="M205.554 26.1531C209.133 30.4403 212.581 34.8021 214.184 40.2636C210.083 36.2933 207.996 31.1114 205.554 26.1531Z" fill="black"/>
<path d="M319.258 144.033C313.685 143.418 308.149 142.187 302.575 143.809C308.149 140.696 313.722 141.274 319.258 144.033Z" fill="black"/>
<path d="M228.071 159.989C221.323 161.349 215.731 158.945 210.792 154.508C213.569 155.664 216.272 157.043 219.124 157.938C222.032 158.851 225.089 159.317 228.071 159.989Z" fill="black"/>
<path d="M125.346 58.0089C120.481 59.817 116.566 62.7808 114.329 68.3541C113.714 62.6503 117.778 58.9782 125.346 58.0089Z" fill="black"/>
<path d="M225.331 46.5266C230.979 40.8973 237.577 39.6298 243.747 42.985C237.13 41.6616 231.016 42.7054 225.331 46.5266Z" fill="black"/>
<path d="M114.889 169.775C108.532 173.577 101.99 173.037 95.4658 169.681C98.616 170.203 101.785 171.135 104.935 171.154C108.253 171.154 111.571 170.278 114.889 169.793V169.775Z" fill="black"/>
<path d="M106.78 71.7279C108.421 77.991 109.912 83.7321 111.515 89.8833C107.582 84.4031 106.091 78.662 106.78 71.7279Z" fill="black"/>
<path d="M255.565 158.535C249.507 161.312 243.598 161.088 236.813 159.411C243.617 159.094 249.6 158.814 255.565 158.535Z" fill="black"/>
<path d="M149.708 61.8488C147.9 56.2008 150.025 51.5036 153.772 47.3282C152.802 49.7327 151.628 52.0628 150.92 54.5419C150.249 56.9092 150.1 59.4069 149.708 61.8488Z" fill="black"/>
<path d="M221.267 110.108C227.568 107.685 233.7 107.554 239.479 111.58C233.495 109.94 227.493 108.654 221.267 110.108Z" fill="black"/>
<path d="M227.698 116.445C235.285 114.73 239.292 116.128 240.783 121.348C236.869 117.731 232.433 116.669 227.698 116.445Z" fill="black"/>
<path d="M276.199 139.503C272.155 132.625 266.432 134.135 260.579 136.297C267.439 131.357 274.168 132.699 276.199 139.503Z" fill="black"/>
<path d="M145.141 57.6361C144.172 52.1745 146.167 47.645 149.988 43.0596C148.236 48.2974 146.689 52.9574 145.141 57.6361Z" fill="black"/>
<path d="M197.203 26.5072C201.975 30.608 205.2 35.268 206.038 41.6802C203.037 36.5355 200.204 31.6518 197.203 26.5072Z" fill="black"/>
<path d="M158.786 21.027C163.129 18.0819 167.398 17.0008 173.064 19.1817C167.864 19.8527 163.539 20.4119 158.786 21.027Z" fill="black"/>
<path d="M143.091 153.986C141.544 158.479 139.419 162.486 134.293 163.903C137.257 160.566 140.202 157.23 143.091 153.986Z" fill="black"/>
<path d="M346.118 161.032C340.88 163.139 335.698 162.691 330.964 159.131C333.518 159.765 336.034 160.641 338.606 160.958C341.067 161.275 343.602 161.032 346.118 161.032Z" fill="black"/>
<path d="M62.8643 126.604C66.5364 122.261 71.4015 121.925 77.1985 122.242C71.9234 123.808 67.3566 125.15 62.7711 126.511L62.8457 126.604H62.8643Z" fill="black"/>
<path d="M244.027 85.9318C239.646 82.968 235.695 83.0239 230.755 84.7761C236.571 80.6753 240.709 80.9922 244.027 85.9318Z" fill="black"/>
<path d="M322.893 130.985C317.767 129.773 313.535 128.785 309.099 127.723C313.983 126.828 318.456 126.735 322.893 130.985Z" fill="black"/>
<path d="M99.0447 114.954C99.5107 109.455 102.269 106.846 108.383 105.951C103.854 107.498 101.058 110.779 99.0447 114.954Z" fill="black"/>
<path d="M201.36 64.6448C206.132 69.1184 207.269 72.1381 205.777 75.1951C204.417 71.9704 202.926 68.3915 201.36 64.6448Z" fill="black"/>
<path d="M184.751 83.9371C189.747 81.6071 194.444 81.6444 198.564 85.8571C194.127 83.6389 189.598 82.4646 184.751 83.9371Z" fill="black"/>
<path d="M330.647 144.07C329.044 140.435 327.422 136.8 325.707 132.923C329.734 135.57 331.02 139.372 330.647 144.07Z" fill="black"/>
<path d="M162.16 26.3769C166.596 22.2574 171.592 22.8166 176.736 25.0348C174.276 24.9229 171.797 24.5688 169.373 24.7738C166.932 24.9789 164.527 25.7617 162.104 26.2837L162.16 26.3582V26.3769Z" fill="black"/>
<path d="M161.377 143.529C165.683 144.051 169.113 144.48 172.822 144.946C169.262 146.698 165.888 146.307 161.377 143.529Z" fill="black"/>
<path d="M70.1526 129.605C66.667 131.339 63.1813 133.091 59.155 135.085C62.1188 131.059 65.7163 129.531 70.1526 129.605Z" fill="black"/>
<path d="M294.914 111.823C296.871 115.681 296.033 119.018 292.826 121.851C293.404 120.267 294.15 118.701 294.485 117.06C294.84 115.364 294.784 113.575 294.914 111.823Z" fill="black"/>
<path d="M179.104 70.4044C176.047 72.4176 172.878 74.4866 170.063 76.332C170.921 72.4921 174.537 69.9757 179.104 70.4044Z" fill="black"/>
<path d="M174.723 76.6863C177.482 73.182 180.744 71.4298 185.944 71.4671C181.788 73.387 178.488 74.9341 174.723 76.6863Z" fill="black"/>
<path d="M236.254 52.1932C242.331 52.3796 244.754 54.1504 245.835 59.09C243.337 55.8094 240.485 53.032 236.254 52.1932Z" fill="black"/>
<path d="M216.607 106.436C220.82 103.453 225.294 103.043 229.916 105.709C227.605 105.541 225.294 105.131 223.001 105.261C220.857 105.373 218.732 106.026 216.607 106.436Z" fill="black"/>
<path d="M70.5254 155.533C73.3773 157.975 76.2106 160.398 79.0625 162.84C75.1108 161.647 72.3148 159.15 70.5254 155.533Z" fill="black"/>
<path d="M273.888 159.075C270.943 162.412 266.917 163.605 262.443 163.642C266.264 162.113 270.067 160.604 273.888 159.075Z" fill="black"/>
<path d="M233.458 125.449C228.928 123.771 227.419 123.585 222.143 124.125C226.151 121.702 231.668 122.354 233.458 125.449Z" fill="black"/>
<path d="M246.86 54.5233C244.847 50.3479 242.629 47.1046 237.82 47.496C243.729 46.7131 246.636 48.8008 246.86 54.5233Z" fill="black"/>
<path d="M130.919 64.7566C129.036 66.9002 126.837 69.4352 124.88 71.672C124.712 67.3289 126.352 65.4836 130.919 64.7566Z" fill="black"/>
<path d="M139.792 113.165C143.184 110.332 146.073 109.772 152.206 110.816C147.919 111.599 143.818 112.345 139.717 113.09L139.773 113.165H139.792Z" fill="black"/>
<path d="M294.933 127.089C296.349 123.435 297.58 120.267 298.791 117.135C299.369 120.9 298.829 124.33 294.933 127.089Z" fill="black"/>
<path d="M255.733 58.0648C254.204 54.3181 253.011 51.373 251.8 48.4092C254.782 50.5156 255.789 52.7896 255.733 58.0648Z" fill="black"/>
<path d="M270.402 166.829C273.385 165.748 276.367 164.667 279.946 163.381C277.337 166.084 275.566 166.773 270.402 166.829Z" fill="black"/>
<path d="M69.8917 132.905C67.2821 134.806 64.6911 136.689 61.4478 139.056C63.5354 135.216 66.1078 133.221 69.8917 132.905Z" fill="black"/>
<path d="M242.331 156.018C244.679 156.149 247.028 156.279 249.675 156.41C248.121 157.255 245.673 157.124 242.331 156.018Z" fill="black"/>
<path d="M98.3364 181.499C94.5338 182.207 91.2904 180.958 88.4012 178.479C91.7192 179.486 95.0185 180.492 98.3364 181.499Z" fill="black"/>
<path d="M234.93 87.5533C239.292 87.3856 239.945 87.7397 241.436 91.3932C239.106 90.0138 236.944 88.7276 234.93 87.5533Z" fill="black"/>
<path d="M154.443 120.453C151.647 120.583 149.093 120.714 146.707 120.826C149.485 118.421 150.976 118.291 154.443 120.453Z" fill="black"/>
<path d="M100.536 138.813C102.12 134.414 103.761 133.371 107.675 133.743C105.569 135.235 103.145 136.949 100.536 138.813Z" fill="black"/>
<path d="M25.6402 170.036C22.1732 170.464 20.1228 168.675 17.8301 165.506C20.9616 167.333 23.2916 168.693 25.6402 170.036Z" fill="black"/>
<path d="M107.694 109.847C105.531 111.767 103.537 113.519 101.71 115.141C102.269 111.655 103.145 110.835 107.694 109.847Z" fill="black"/>
<path d="M138.468 152.216C138.151 155.198 136.996 157.696 133.603 158.572C135.225 156.447 136.847 154.322 138.468 152.216Z" fill="black"/>
<path d="M350.555 151.358C355.55 153.222 356.016 153.837 356.184 158.684C355.289 156.82 354.879 155.496 354.096 154.471C353.332 153.464 352.176 152.756 350.555 151.358Z" fill="black"/>
<path d="M306.49 116.837L307.142 107.983C307.347 107.983 307.533 107.983 307.738 108.002V116.837C307.328 116.837 306.918 116.837 306.508 116.837H306.49Z" fill="black"/>
<path d="M118.02 71.2619C117.89 68.2236 118.859 65.7444 121.804 64.2532C120.537 66.5832 119.288 68.9132 118.02 71.2619Z" fill="black"/>
<path d="M139.717 113.09C137.741 114.731 135.766 116.39 133.79 118.03C135.374 115.886 136.642 113.351 139.773 113.165L139.717 113.09Z" fill="black"/>
<path d="M113.975 75.0646C114.497 77.1523 115.019 79.2213 115.746 82.1851C113.174 79.7059 113.323 77.3946 113.975 75.0646Z" fill="black"/>
<path d="M152.337 80.2093C150.939 77.6556 151.926 75.7543 154.163 73.2565C153.399 76.183 152.877 78.1961 152.337 80.2093Z" fill="black"/>
<path d="M164.322 113.165C162.57 111.506 160.799 109.866 159.047 108.207C161.862 108.598 163.614 110.257 164.322 113.165Z" fill="black"/>
<path d="M248.668 135.011C246.897 136.502 245.238 137.9 243.542 139.335C244.511 135.924 245.033 135.458 248.668 135.011Z" fill="black"/>
<path d="M238.435 57.8599C242.163 58.2513 242.349 58.4191 243.039 62.0725C241.417 60.5999 239.926 59.2206 238.435 57.8599Z" fill="black"/>
<path d="M289.9 119.726C290.646 117.899 291.391 116.073 292.379 113.631C292.845 116.613 292.155 118.458 289.9 119.726Z" fill="black"/>
<path d="M315.716 137.956C318.792 138.124 320.6 138.59 320.693 141.889C318.96 140.51 317.636 139.484 315.716 137.956Z" fill="black"/>
<path d="M66.4432 139.149C68.0463 137.956 69.6493 136.782 71.2524 135.589C70.9355 138.347 68.6987 138.813 67.1516 140.062C66.9279 139.764 66.6856 139.447 66.4619 139.149H66.4432Z" fill="black"/>
<path d="M274.298 145.803C272.77 144.443 271.465 143.306 270.086 142.075C272.36 142.411 273.764 143.654 274.298 145.803Z" fill="black"/>
<path d="M242.256 153.614H247.568C247.568 153.744 247.568 153.893 247.568 154.024H242.256C242.256 153.893 242.256 153.744 242.256 153.614Z" fill="black"/>
<path d="M82.3805 182.133C80.9079 181.014 79.4353 179.915 77.9628 178.796C78.1864 178.517 78.4288 178.218 78.6524 177.939C79.9759 179.244 81.2993 180.548 82.6228 181.853L82.3618 182.133H82.3805Z" fill="black"/>
<path d="M28.0262 158.833C29.8405 157.155 31.7231 156.851 33.6741 157.92C31.7915 158.18 29.8529 158.46 27.933 158.74L28.0262 158.833Z" fill="black"/>
<path d="M209.468 42.8732C208.928 41.3074 208.387 39.7417 207.847 38.1945C208.052 38.12 208.257 38.0454 208.462 37.9522C209.077 39.4434 209.711 40.9346 210.326 42.4258C210.046 42.5749 209.748 42.7241 209.468 42.8732Z" fill="black"/>
<path d="M139.587 54.8588C139.922 53.0694 140.258 51.2799 140.612 49.4905C140.947 49.5464 141.283 49.621 141.618 49.6769C141.264 51.3918 140.91 53.1253 140.556 54.8402C140.239 54.8402 139.922 54.8402 139.587 54.8588Z" fill="black"/>
<path d="M102.437 140.323C103.425 139.484 104.432 138.664 105.42 137.825C105.625 138.049 105.83 138.291 106.035 138.515C105.103 139.391 104.152 140.286 103.22 141.162C102.959 140.882 102.698 140.603 102.437 140.304V140.323Z" fill="black"/>
<path d="M71.4947 162.505C70.3763 161.647 69.2393 160.79 68.1208 159.933C68.2886 159.672 68.475 159.429 68.6428 159.168C69.7984 160.007 70.9541 160.865 72.1098 161.703C71.9048 161.964 71.6997 162.244 71.5133 162.505H71.4947Z" fill="black"/>
<path d="M159.494 147.071C158.227 146.363 156.959 145.636 155.673 144.927C155.897 144.648 156.102 144.35 156.325 144.07C157.351 145.095 158.395 146.139 159.42 147.164L159.494 147.071Z" fill="black"/>
<path d="M192.618 160.921C191.369 161.424 190.138 161.927 188.89 162.412C188.796 162.188 188.685 161.946 188.591 161.722C189.784 161.107 190.996 160.51 192.189 159.895C192.338 160.231 192.468 160.585 192.618 160.921Z" fill="black"/>
<path d="M158.04 77.1522C157.966 78.5316 157.891 79.8923 157.817 81.4021C157.096 80.1719 157.17 78.7553 158.04 77.1522Z" fill="black"/>
<path d="M76.4156 155.012C75.726 153.986 75.0549 152.961 74.3652 151.936C74.533 151.805 74.7008 151.675 74.8685 151.563C75.5955 152.532 76.3411 153.483 77.068 154.452C76.8444 154.639 76.6207 154.825 76.4156 155.012Z" fill="black"/>
<path d="M151.777 92.8286H154.89C154.89 93.015 154.89 93.1827 154.872 93.3691C153.846 93.2759 152.803 93.2014 151.777 93.1082C151.777 93.015 151.777 92.9218 151.777 92.8286Z" fill="black"/>
<path d="M30.3748 162.281C31.605 161.946 32.8352 161.61 34.0841 161.275C34.1587 161.536 34.2519 161.797 34.3264 162.076C33.1708 162.468 32.0151 162.84 30.878 163.232C30.7103 162.915 30.5425 162.598 30.3748 162.281Z" fill="black"/>
<path d="M27.933 158.74C27.0942 159.578 26.2554 160.399 25.398 161.237C25.2302 161.014 25.0811 160.79 24.9133 160.566C25.9385 159.989 26.9824 159.411 28.0076 158.833L27.9144 158.74H27.933Z" fill="black"/>
<path d="M135.467 153.129C134.554 154.098 133.64 155.049 132.727 156.018L132.019 155.366C132.876 154.359 133.715 153.371 134.572 152.365C134.871 152.626 135.169 152.868 135.486 153.129H135.467Z" fill="black"/>
<path d="M337.357 157.174H341.738C341.738 157.341 341.738 157.528 341.738 157.696H337.357C337.357 157.528 337.357 157.341 337.357 157.174Z" fill="black"/>
<path d="M162.085 26.3022C161.284 27.1596 160.464 27.9984 159.662 28.8559C159.476 28.5763 159.271 28.2967 159.084 28.0357C160.109 27.4765 161.135 26.9359 162.16 26.3767L162.104 26.3022H162.085Z" fill="black"/>
<path d="M62.7898 126.511L60.5717 128.934C60.6089 127.294 61.3545 126.474 62.883 126.604L62.8085 126.511H62.7898Z" fill="black"/>
<path d="M156.046 163.921C155.077 163.605 154.107 163.269 153.157 162.952C153.306 162.654 153.436 162.374 153.585 162.076C154.368 162.728 155.17 163.381 155.953 164.033L156.046 163.921Z" fill="black"/>
<path d="M203.317 156.913L199.85 155.049C200.074 154.751 200.316 154.452 200.54 154.154C201.434 155.105 202.329 156.055 203.224 157.006L203.317 156.913Z" fill="black"/>
</svg>
