<svg width="304" height="191" viewBox="0 0 304 191" fill="none" xmlns="http://www.w3.org/2000/svg">
<path d="M85.8191 172.151C82.1125 173.552 78.3386 175.143 74.4568 176.396C71.3972 177.394 68.2568 178.472 65.0893 178.688C52.6758 179.523 40.2891 179.348 28.3877 174.995C21.7564 172.569 15.3407 169.671 10.7041 164.091C2.68449 154.467 -1.14337 143.361 0.29882 130.813C1.88927 117.011 11.9441 106.295 26.2986 102.818C29.7221 101.982 33.3208 101.794 36.8387 101.362C37.89 101.228 38.9548 101.254 40.1948 101.201C40.4104 98.7071 40.4239 96.3349 40.8687 94.057C41.5965 90.3774 42.2165 86.59 43.5913 83.1395C48.457 70.8877 61.585 63.852 74.8072 66.0894C76.7077 66.4129 78.5812 66.8981 80.7647 67.3699C81.0342 65.1864 81.3712 63.1107 81.5599 61.0081C82.2203 53.7028 84.2017 46.8154 88.0969 40.5749C91.2913 35.4531 94.3374 30.2235 97.8957 25.3578C105.255 15.276 114.838 7.97069 126.632 3.69805C144.234 -2.66374 161.231 -0.561115 177.472 8.03808C183.915 11.4481 189.939 15.7208 195.978 19.8451C197.973 21.2064 199.657 23.1743 201.1 25.1421C205.534 31.2209 209.78 37.4344 214.268 43.8636C224.363 39.4562 235.052 38.0409 245.214 44.6453C255.269 51.1823 258.733 61.2237 258.612 72.923C259.07 72.9903 259.474 73.1386 259.852 73.0847C265.701 72.2355 271.254 73.4621 276.551 75.7534C278.573 76.6295 280.487 78.0312 282.078 79.5678C288.426 85.7409 291.566 93.5853 293.116 102.131C294.478 109.651 294.505 117.132 291.903 124.464C291.769 124.842 291.755 125.273 291.688 125.718C292.092 125.826 292.389 125.974 292.699 125.987C299.64 126.27 304.896 132.39 303.872 140.503C302.821 148.874 295.839 156.058 286.808 158.349C282.981 159.319 279.139 159.198 275.325 158.591C274.125 159.778 272.98 160.91 271.834 162.055C262.264 171.598 250.781 177.34 237.41 179.052C231.224 179.847 224.956 179.995 218.729 180.346C217.462 180.413 216.101 180.319 214.901 179.928C209.672 178.243 204.442 176.572 199.32 174.59C196.234 173.391 193.363 171.625 189.98 169.913C188.834 170.762 187.352 171.787 185.963 172.932C178.725 178.957 170.746 180.13 162.08 176.626C160.462 175.979 159.263 176.073 157.996 177.246C156.89 178.27 155.61 179.092 154.451 180.063C146.647 186.68 137.414 189.74 127.413 190.171C120 190.495 112.668 189.807 105.834 185.953C101.427 183.459 96.9118 181.181 92.8952 178.081C90.523 176.248 88.2721 174.253 85.7652 172.164L85.8191 172.151ZM213.082 47.8801C212.287 46.101 211.774 44.4432 210.885 43.0414C207.34 37.5153 203.768 32.0026 200.008 26.6113C198.673 24.6973 196.975 22.9452 195.156 21.4491C184.184 12.432 172.081 5.77372 157.942 2.94326C146.755 0.705852 136.066 1.89195 125.661 6.07024C111.495 11.7446 101.023 21.6378 93.7443 34.9948C92.3022 37.6366 90.7252 40.2244 89.3504 42.9066C87.9756 45.5753 86.5469 48.2575 85.563 51.0745C83.8377 55.9806 83.1908 61.1294 82.9077 66.3051C82.8403 67.4373 82.7056 68.556 82.5977 69.8094C79.8212 69.1625 77.449 68.502 75.0364 68.0707C60.7493 65.5503 47.3383 73.9473 43.8205 87.8705C42.9444 91.3614 43.1061 95.1218 42.8231 98.761C42.7152 100.23 42.6748 101.699 42.6074 103.303C41.327 103.303 40.37 103.249 39.4265 103.303C35.8817 103.505 32.283 103.424 28.819 104.044C15.0846 106.511 4.70625 116.606 2.4284 129.977C0.703171 140.059 3.08884 149.467 8.5341 158.079C11.5128 162.783 15.1655 166.854 20.449 169.105C24.2094 170.709 27.9564 172.38 31.7438 173.93C36.8926 176.032 42.257 177.03 47.837 176.962C50.4249 176.922 53.0127 176.989 55.5871 177.124C64.7389 177.569 73.3381 175.534 81.4925 171.463C82.7325 170.843 84.0399 170.25 85.3878 169.927C86.1021 169.752 87.4769 169.927 87.6926 170.372C89.0269 173.067 91.8304 174.051 93.7713 175.979C96.9657 179.146 100.713 181.464 104.635 183.486C114.07 188.325 124.084 189.592 134.462 187.61C141.93 186.182 148.345 182.421 154.289 177.825C155.947 176.545 157.43 175.022 159.209 173.431C166.649 176.518 174.453 178.607 182.095 173.108C172.633 175.022 167.323 174.779 163.212 171.585C173.172 174.981 181.435 172.542 188.807 166.948C189.656 167.204 190.29 167.325 190.842 167.595C191.409 167.878 191.907 168.296 192.446 168.66C199.738 173.499 208 175.952 216.276 178.351C216.991 178.553 217.772 178.566 218.527 178.526C224.336 178.283 230.186 178.432 235.928 177.677C249.473 175.911 261.267 170.291 270.917 160.438C272.171 159.158 273.249 157.931 272.4 156.111C274.624 155.006 276.093 156.731 277.818 156.988C287.051 158.349 297.106 153.375 300.624 145.639C302.726 141.016 302.673 136.433 299.99 132.039C298.292 129.263 295.879 127.699 292.456 128.023C291.337 128.13 290.192 128.036 288.695 128.036C289.208 126.769 289.612 126.014 289.814 125.219C290.569 122.092 291.728 118.979 291.863 115.811C292.038 111.431 291.688 106.969 291.068 102.629C290.219 96.7257 288.291 91.0918 284.868 86.1183C278.951 77.5326 271.025 73.4621 260.445 75.3491C259.151 75.5782 257.776 75.376 256.442 75.376C256.442 74.3786 256.388 73.7317 256.442 73.0982C257.358 63.4207 253.881 55.3202 247.303 48.4867C245.78 46.9097 243.799 45.4675 241.764 44.7262C231.992 41.1949 222.409 40.777 213.136 47.8936L213.082 47.8801Z" fill="black"/>
<path d="M213.082 47.8801C222.355 40.7501 231.925 41.1814 241.71 44.7127C243.759 45.454 245.726 46.8827 247.249 48.4732C253.84 55.3202 257.304 63.4072 256.388 73.0847C256.334 73.7182 256.388 74.3651 256.388 75.3625C257.736 75.3625 259.097 75.5647 260.391 75.3356C270.971 73.4486 278.91 77.5325 284.814 86.1048C288.237 91.0783 290.151 96.7122 291.014 102.616C291.647 106.969 291.984 111.417 291.809 115.798C291.688 118.952 290.515 122.079 289.76 125.206C289.572 126.014 289.154 126.756 288.642 128.022C290.138 128.022 291.283 128.117 292.402 128.009C295.826 127.686 298.238 129.249 299.936 132.026C302.632 136.42 302.673 141.002 300.57 145.625C297.052 153.348 286.997 158.335 277.765 156.974C276.053 156.718 274.584 154.993 272.346 156.098C273.195 157.931 272.117 159.144 270.864 160.424C261.213 170.277 249.433 175.898 235.874 177.663C230.132 178.418 224.269 178.27 218.473 178.512C217.718 178.539 216.937 178.539 216.222 178.337C207.947 175.938 199.684 173.485 192.393 168.646C191.853 168.296 191.355 167.865 190.789 167.581C190.236 167.312 189.616 167.204 188.753 166.935C181.381 172.528 173.118 174.968 163.158 171.571C167.282 174.765 172.593 175.022 182.041 173.094C174.399 178.58 166.581 176.504 159.155 173.418C157.376 175.022 155.893 176.531 154.235 177.812C148.291 182.394 141.889 186.155 134.409 187.597C124.03 189.578 114.016 188.311 104.581 183.473C100.659 181.464 96.9118 179.132 93.7174 175.965C91.7765 174.038 88.973 173.054 87.6386 170.358C87.423 169.913 86.0482 169.738 85.3339 169.913C83.986 170.237 82.6921 170.83 81.4386 171.45C73.2707 175.534 64.685 177.556 55.5332 177.111C52.9453 176.989 50.3575 176.922 47.7831 176.949C42.2031 177.03 36.8387 176.019 31.6899 173.916C27.9025 172.366 24.1555 170.695 20.3951 169.091C15.1116 166.827 11.4589 162.77 8.4802 158.066C3.03494 149.467 0.649269 140.045 2.3745 129.963C4.65234 116.593 15.0442 106.511 28.7651 104.031C32.2291 103.411 35.8278 103.505 39.3726 103.29C40.3161 103.236 41.2731 103.29 42.5535 103.29C42.6209 101.686 42.6479 100.217 42.7692 98.7475C43.0522 95.1083 42.8905 91.3479 43.7666 87.857C47.2709 73.9338 60.6954 65.5368 74.9825 68.0573C77.3951 68.4886 79.7673 69.149 82.5438 69.796C82.6517 68.5559 82.7864 67.4238 82.8538 66.2916C83.1504 61.1024 83.7838 55.9672 85.5091 51.061C86.5065 48.244 87.9352 45.5619 89.2965 42.8931C90.6713 40.2109 92.2483 37.6366 93.6904 34.9813C100.969 21.6243 111.441 11.7312 125.607 6.05676C136.013 1.89194 146.714 0.692368 157.888 2.92978C172.04 5.76023 184.13 12.4185 195.102 21.4356C196.921 22.9317 198.62 24.6704 199.954 26.5978C203.701 31.9891 207.286 37.5018 210.831 43.0279C211.734 44.4297 212.233 46.0875 213.028 47.8667L213.082 47.8801ZM126.995 24.4547C128.478 23.3495 129.974 22.2443 131.457 21.1391C133.196 20.6269 134.907 20.0608 136.659 19.6295C138.398 19.1982 140.177 18.8882 141.943 18.5108C141.889 18.2951 141.822 18.0929 141.768 17.8773C138.142 18.3221 134.409 18.376 131.497 21.193C129.435 21.4625 128.047 22.743 126.861 24.3065C126.079 24.8726 125.311 25.4387 124.529 26.0047C124.704 26.1934 124.879 26.3821 125.055 26.5843C125.702 25.87 126.349 25.1556 126.995 24.4547ZM30.3421 105.082C26.366 105.797 22.6055 107.023 19.492 109.759C14.0602 112.913 8.54759 120.69 8.34542 125.691C8.7902 124.842 9.18108 124.208 9.49108 123.534C11.8228 118.52 14.6533 113.884 19.182 110.501C19.3572 110.366 19.3438 109.975 19.4246 109.705C19.7346 109.705 20.0851 109.813 20.3412 109.705C23.4816 108.411 26.6086 107.091 29.7221 105.756C29.9647 105.648 30.0725 105.284 30.2747 105.055H34.5608L34.5339 104.57C33.1321 104.745 31.7304 104.921 30.3421 105.096V105.082ZM95.3483 118.979C96.8309 118.345 98.2731 117.617 99.7827 117.118C101.198 116.647 102.707 116.404 104.163 116.054C105.578 115.717 106.98 115.366 108.395 115.016C108.328 114.814 108.261 114.598 108.193 114.396C103.53 114.854 98.7987 115.151 95.1326 118.763C94.4587 119.248 93.7713 119.747 93.0974 120.232C93.2591 120.421 93.4209 120.609 93.5826 120.798C94.1757 120.192 94.7552 119.585 95.3483 118.979ZM122.534 81.4547C124.758 81.2121 127.022 80.5921 129.192 80.8482C131.282 81.0908 133.276 82.223 135.285 82.9643C133.169 78.9073 126.429 78.1256 122.588 81.5221C120.755 81.576 120.742 81.5626 119.367 83.0048C120.499 82.4521 121.523 81.9669 122.534 81.4682V81.4547ZM101.104 54.8484C100.82 54.9563 100.457 54.9832 100.281 55.1854C96.6287 59.7007 94.243 64.7955 93.34 70.5507C93.2187 71.2786 93.3265 72.0468 93.3265 72.8016C93.9735 72.1142 94.243 71.4268 94.4048 70.7125C95.6583 65.4424 97.6531 60.4959 100.645 55.9672C100.861 55.6302 100.915 55.1854 101.036 54.7945C101.818 54.0128 102.6 53.2176 103.381 52.4358C103.179 52.2741 102.977 52.1258 102.775 51.9641L101.09 54.8484H101.104ZM185.182 147.984C184.184 147.418 183.187 146.865 182.189 146.299C182.095 146.528 182.014 146.757 181.92 146.973C183.025 147.283 184.13 147.593 185.236 147.903C186.139 148.388 186.988 149.022 187.945 149.318C195.142 151.556 202.38 151.219 209.631 149.628C210.009 149.547 210.346 149.251 210.71 149.049C209.604 148.712 208.594 148.806 207.583 148.941C202.447 149.615 197.299 150.033 192.136 149.251C189.805 148.887 187.5 148.402 185.182 147.97V147.984ZM96.5209 123.372C96.9252 123.251 97.37 123.211 97.7205 123.022C101.548 120.825 105.686 120.016 110.08 120.016C114.973 120.016 119.677 120.973 124.273 122.523C125.135 122.806 126.012 123.036 126.888 123.278C126.955 123.049 127.036 122.833 127.103 122.604C124.502 121.688 121.955 120.569 119.286 119.922C112.344 118.224 105.444 118.197 98.8796 121.512C98.0035 121.957 97.3296 122.793 96.5748 123.453C94.7552 124.168 94.7283 124.141 93.65 126.432C94.8496 125.152 95.6852 124.262 96.5074 123.386L96.5209 123.372ZM126.982 29.6169C127.198 29.59 127.44 29.6439 127.615 29.5361C134.624 25.2095 142.401 23.8347 150.475 23.6865C153.13 23.6325 155.772 23.6865 158.494 23.6865C158.4 23.3225 158.4 23.1608 158.333 23.1204C158.063 22.9586 157.78 22.7295 157.497 22.7025C147.671 21.786 138.129 22.5543 129.327 27.5413C128.438 28.04 127.723 28.8622 126.928 29.5361C124.92 30.1965 123.909 31.8544 122.817 33.4313C124.205 32.1509 125.594 30.8839 126.982 29.6035V29.6169ZM209.2 160.182C208.364 159.778 207.529 159.373 206.693 158.969L206.504 159.67C207.434 159.818 208.351 159.953 209.281 160.101C209.914 160.559 210.494 161.179 211.208 161.435C220.32 164.684 229.66 165.708 239.216 163.983C244.028 163.12 248.678 161.705 252.843 159.023C251.67 159.158 250.565 159.494 249.473 159.872C240.052 163.107 230.415 164.481 220.508 162.837C216.708 162.204 212.974 161.085 209.2 160.195V160.182ZM141.444 115.838C141.7 116.593 141.795 117.482 142.266 118.075C143.533 119.666 144.962 121.149 146.337 122.645C146.849 123.197 147.429 123.709 147.968 124.235C147.617 121.836 146.081 120.394 144.558 118.938C143.506 117.927 142.482 116.876 141.444 115.852C140.865 114.598 140.501 113.183 139.679 112.105C133.115 103.492 124.3 98.0601 114.11 94.9466C111.118 94.0301 107.681 94.1244 104.5 94.3805C90.6713 95.4588 80.2525 101.928 73.8638 114.463C73.5268 115.11 73.1629 115.744 72.7316 116.498C66.0463 113.237 59.2936 113.52 52.5005 115.568C51.2875 115.932 50.007 116.431 49.0231 117.199C42.9848 121.957 39.3322 128.103 38.7526 135.88C38.6717 136.959 39.0491 138.064 39.2244 139.317C40.7609 138.617 40.6665 137.633 40.707 136.689C40.7744 135.409 40.7339 134.088 41.017 132.848C41.8931 129.047 43.0387 125.367 46.2735 122.739C48.0123 121.337 49.3736 119.275 51.301 118.318C55.5197 116.229 60.1428 115.622 64.8467 116.229C67.5424 116.579 70.1437 117.186 72.0577 119.41C72.4081 119.828 73.109 119.949 73.8368 120.286C74.1333 119.491 74.3894 118.911 74.5646 118.318C76.546 111.471 80.7243 106.322 86.6682 102.508C91.17 99.6236 96.0491 97.7096 101.319 96.7931C104.918 96.1731 108.598 95.2835 112.183 96.4157C122.548 99.691 131.861 104.597 138.088 114.032C138.803 115.11 139.557 116.62 141.404 115.838H141.444ZM217.22 76.2521C215.023 72.1277 213.19 68.219 210.898 64.5933C209.187 61.8976 207.165 59.2559 204.793 57.1398C196.908 50.131 187.486 46.8693 177 46.6132C168.307 46.3975 160.408 48.581 153.588 54.2284C148.103 58.7707 143.574 63.9598 140.932 70.6855C140.043 72.9634 138.87 75.1334 137.778 77.4517C136.511 76.8991 135.554 76.4273 134.557 76.0499C130.244 74.4056 125.931 74.2708 121.685 76.2117C120.202 76.8856 118.76 77.8021 118.545 80.336C125.338 76.3195 131.713 75.3895 137.994 80.3765C138.654 79.3791 139.22 78.7321 139.571 77.9773C140.622 75.7399 141.673 73.5025 142.59 71.1977C144.544 66.2916 147.577 62.1672 151.567 58.7437C153.197 57.3419 154.882 55.9941 156.527 54.5924C160.247 51.4384 164.627 49.7806 169.385 48.9854C173.469 48.3114 177.539 48.3654 181.61 49.0258C189.481 50.2928 196.935 52.5841 202.919 58.2315C206.477 61.5876 209.281 65.5368 211.64 69.796C213.095 72.4242 214.389 75.1469 215.926 78.1795C217.166 78.0312 218.541 78.0447 219.821 77.6808C229.66 74.9312 236.224 77.8965 240.578 87.1291C241.049 88.14 241.44 89.2857 243.314 89.5957C242.963 85.3769 241.4 82.0748 238.529 79.4869C232.221 73.826 224.956 73.7182 217.22 76.2656V76.2521ZM206.275 118.736C209.402 116.323 212.017 113.574 215.211 111.983C223.312 107.913 231.952 105.581 241.13 106.605C250.808 107.684 259.003 111.673 264.138 120.313C266.995 125.111 269.3 130.233 271.834 135.206C272.198 135.921 272.548 136.662 272.939 137.484C274.745 136.703 274.543 135.651 273.95 134.506C272.872 132.403 271.888 130.233 270.675 128.198C268.141 123.952 265.769 119.558 262.804 115.636C258.49 109.948 252.654 106.255 245.511 105.204C232.855 103.317 221.115 106.201 210.211 112.684C208.944 113.439 207.866 114.571 206.841 115.676C206.06 116.525 205.467 117.59 206.262 118.749L206.275 118.736ZM6.7954 131.096C5.54192 135.301 5.90583 139.668 6.9841 143.967C9.74717 155.047 16.7829 162.689 26.6221 167.999C34.2643 172.124 42.5535 173.903 51.1392 174.375C56.7058 174.685 62.2858 174.563 67.785 173.391C64.9411 173.189 62.1106 173.162 59.2667 173.189C49.1579 173.296 39.2109 172.272 29.9108 167.972C18.5485 162.729 10.475 154.467 7.68498 141.946C6.90323 138.428 7.06497 134.694 6.80888 131.096H6.7954ZM78.2038 164.63C57.7706 170.897 38.8335 168.134 21.5947 155.235C34.6282 170.843 65.6285 172.69 78.2038 164.63ZM142.307 177.933C121.847 185.75 104.163 181.626 89.0943 165.802C99.877 183.203 126.51 188.123 142.307 177.933ZM111.293 19.6295L111.765 20.0877C120.324 12.7016 130.554 9.48026 141.552 8.07851C152.955 6.62285 163.104 10.0868 172.795 15.8016C172.04 14.7368 171.191 13.9686 170.248 13.2946C166.972 10.9629 163.374 9.2107 159.478 8.26721C143.628 4.4124 128.963 7.47199 115.364 16.1655C113.881 17.109 112.655 18.4703 111.307 19.6295H111.293ZM130.096 110.865C125.27 102.144 111.158 96.2405 100.376 98.2892C92.0326 99.8797 81.0208 108.748 80.1716 114.571C91.9922 97.157 110.808 92.48 130.096 110.865ZM259.569 78.4221C265.594 78.8399 268.33 79.77 271.901 83.18C273.6 84.7974 275.177 86.617 276.525 88.5578C281.363 95.5666 283.722 103.451 284.153 111.889C284.355 115.852 284.194 119.828 284.194 123.79C284.652 123.372 284.841 122.914 284.922 122.429C286.66 112.334 285.097 102.71 280.757 93.4909C278.816 89.3665 276.376 85.5791 272.885 82.56C269.044 79.2443 264.704 77.4651 259.582 78.4221H259.569ZM246.926 170.668C238.057 173.525 229.162 175.264 219.74 173.633C210.548 172.043 201.544 170.142 193.242 165.627C208.472 177.259 234.661 177.326 246.926 170.668ZM85.2799 70.1464C84.9025 63.3803 87.0186 57.2072 89.5391 51.1284C93.5557 41.4779 99.0683 32.8383 106.738 25.6273C107.398 25.0073 108.449 24.5221 108.436 22.716C106.63 24.2256 105.147 25.2904 103.867 26.5439C93.9196 36.3831 88.2317 48.5406 85.0373 61.9515C84.4038 64.5933 84.3634 67.3968 85.2799 70.1329V70.1464ZM45.4109 100.203C45.6401 100.203 45.8692 100.217 46.0983 100.23C46.314 97.7905 46.4757 95.3375 46.7453 92.8979C47.554 85.2556 50.6136 79.0421 57.9728 75.6995C62.9193 73.4486 68.095 72.9095 73.419 74.0416C74.4299 74.2573 75.4542 74.4595 77.0177 74.783C75.279 72.9499 73.5268 72.4377 71.7477 72.3029C69.4024 72.1277 67.0033 72.0199 64.6715 72.3029C54.5358 73.5295 47.7157 79.7699 46.2196 89.3126C45.6535 92.8979 45.667 96.5775 45.4244 100.203H45.4109ZM252.439 68.3538C254.218 61.5068 249.716 53.3389 241.777 48.5001C233.124 43.2301 222.476 43.4997 217.462 48.3788C222.961 45.791 228.124 45.481 233.407 46.5727C238.61 47.651 243.166 49.9423 246.737 53.9724C250.35 58.0563 251.67 63.0837 252.452 68.3403L252.439 68.3538ZM187.473 57.8676C175.113 48.0014 148.305 59.4041 144.666 76.6295C154.168 58.3933 168.051 51.708 187.473 57.8676ZM218.743 169.981C233.771 172.42 259.03 164.603 264.947 155.774C258.45 160.937 251.145 164.455 243.179 166.611C235.186 168.768 226.965 169.388 218.743 169.981ZM262.305 126.796C257.304 114.652 240.551 107.118 227.571 111.053C242.209 109.571 253.49 115.393 262.305 126.796ZM206.922 40.7636C198.485 27.8917 188.255 17.136 173.428 11.7312C187.783 17.7425 197.083 29.5765 206.922 40.7636ZM98.2461 75.8073C98.92 73.3408 99.4457 70.8338 100.308 68.4346C101.225 65.9142 102.33 63.4476 103.611 61.1024C104.851 58.8515 106.36 56.7354 107.856 54.6328C109.339 52.5571 110.956 50.5758 112.506 48.5406L111.967 48.1632C106.94 53.7432 102.034 59.4176 99.2705 66.5881C98.1383 69.5129 97.4239 72.5321 98.2326 75.7938L98.2461 75.8073ZM69.0385 119.558C68.3107 119.154 67.6233 118.655 66.8415 118.372C60.938 116.242 51.301 118.749 47.2575 123.629C46.0444 125.084 45.0335 126.85 44.427 128.643C43.6857 130.799 43.1735 133.144 44.5214 136.136C44.5887 134.789 44.6022 134.182 44.6427 133.562C45.1144 126.432 48.8479 121.728 55.6949 119.706C60.0889 118.412 64.5233 118.129 69.025 119.558H69.0385ZM117.695 106.215C117.736 106.12 117.776 106.039 117.817 105.945C117.399 105.702 116.995 105.392 116.55 105.204C112.628 103.586 108.503 102.778 104.298 102.845C97.9766 102.953 92.1943 104.624 87.9352 109.732C87.5578 110.191 87.3421 110.784 87.0456 111.309C92.5583 104.988 99.5535 103.465 107.331 104.435C110.794 104.867 114.231 105.608 117.682 106.201L117.695 106.215ZM138.439 154.588C151.742 157.109 165.678 154.359 172 147.755C161.069 153.227 150.259 156.354 138.439 154.588ZM293.494 130.597C293.399 130.651 293.292 130.691 293.211 130.759C293.197 130.772 293.265 130.934 293.319 130.974C298.616 134.829 299.303 139.816 295.273 145.032C293.453 147.391 291.135 149.103 288.507 150.437C287.873 150.761 287.253 151.124 286.633 151.461C292.456 150.329 296.971 146.623 298.71 141.878C300.637 136.649 298.71 132.497 293.467 130.597H293.494ZM279.274 85.8891C287.199 93.9896 288.979 104.098 288.749 115.339C292.146 106.592 286.889 90.6335 279.274 85.8891ZM202.838 114.018C206.787 110.73 211.33 108.614 216.168 107.077C218.635 106.295 221.115 105.554 223.568 104.759C224.309 104.516 224.997 104.152 225.711 103.842C225.617 103.64 225.522 103.424 225.428 103.222C217.004 104.907 208.769 106.996 202.838 114.018ZM134.975 174.253C122.157 177.731 110.282 175.709 99.3513 168.148C106.01 175.857 126.942 179.429 134.975 174.253ZM138.317 148.887C146.66 152.863 161.204 151.542 165.827 146.852C150.61 150.949 149.653 151.017 138.317 148.887ZM156.284 48.4732C147.658 50.1984 137.563 61.8842 138.331 69.1625C140.46 58.8785 148.197 53.8511 156.284 48.4732ZM165.126 86.2935C167.39 86.1183 169.52 85.7813 171.636 85.8352C173.779 85.8756 175.962 86.0643 178.011 86.617C180.168 87.1965 182.284 88.1131 184.252 89.1778C186.004 90.1213 187.54 91.4826 189.683 93.0327C185.653 85.8352 173.428 82.8026 165.112 86.307L165.126 86.2935ZM237.397 68.7042C236.17 58.6628 223.366 52.8806 213.944 56.695C219.053 56.0211 223.622 55.8863 227.975 57.935C232.531 60.0646 234.512 64.5259 237.397 68.7177V68.7042ZM55.1558 100.756C55.2636 100.756 55.4388 100.756 55.4658 100.715C55.8432 99.8258 56.2071 98.9362 56.571 98.0466C58.4176 93.4235 61.7467 90.4583 66.5585 89.1913C67.9063 88.8274 69.2811 88.5309 70.629 88.1535C71.2355 87.9783 71.815 87.6952 72.9203 87.2504C62.9328 86.8057 55.5601 92.6418 55.1558 100.769V100.756ZM236.332 87.4391C230.415 78.8265 220.697 77.1551 214.632 83.2743C215.023 83.2474 215.373 83.0991 215.697 82.9239C221.843 79.5813 227.598 80.053 232.922 84.7165C234.014 85.6735 235.186 86.5361 236.332 87.4526V87.4391ZM190.896 60.415C193.255 61.8976 195.816 63.1376 197.919 64.9168C200.102 66.7633 201.962 69.0412 203.741 71.2921C205.372 73.3542 206.181 76.0095 208.23 77.7751C205.413 69.0816 199.28 63.5824 190.896 60.415ZM188.12 106.093C185.977 100.203 179.48 96.4562 172.552 96.7257C175.248 97.7096 178.227 98.3297 180.693 99.8123C183.295 101.362 185.397 103.734 188.106 106.093H188.12ZM39.0087 108.209C30.8947 107.198 23.2255 110.406 21.8642 115.312C29.5738 109.517 30.0186 109.341 39.0087 108.209ZM33.8869 150.356C24.8295 143.927 23.7377 140.827 23.1581 131.702C21.6486 140.571 26.6356 149.237 33.8869 150.356ZM135.406 160.128C142.59 160.775 150.421 160.398 158.063 157.891C150.286 158.659 142.496 159.427 135.406 160.128ZM42.5805 161.112C46.8396 165.465 55.021 165.978 61.4906 162.069C54.6571 163.74 48.457 165.061 42.5805 161.112ZM182.203 164.589C176.326 168.997 170.072 168.646 163.603 166.234C169.035 169.913 179.049 170.196 182.203 164.589ZM163.98 170.25C170.908 172.501 177.539 172.07 183.632 167.555C177.351 170.385 170.881 171.746 163.98 170.25ZM188.079 98.707C188.443 96.4292 187.325 94.6635 185.532 93.6392C182.944 92.1566 180.195 90.9031 177.391 89.9057C175.369 89.1913 173.563 89.6092 171.851 90.3639C178.496 90.647 184.777 91.6444 188.093 98.707H188.079ZM25.126 118.938C28.1047 113.789 32.8087 111.902 38.3752 111.565C31.6765 110.231 25.7999 113.452 25.126 118.938ZM185.829 140.989C191.463 143.752 197.07 146.946 203.553 143.752C200.614 143.509 197.595 143.846 194.697 143.428C191.678 142.997 188.78 141.838 185.815 140.989H185.829ZM104.298 125.003C110.511 124.006 116.698 123.413 122.79 125.785C116.752 122.011 110.538 123.13 104.298 125.003ZM147.9 32.2183C142.132 31.2748 136.606 32.5552 134.301 34.7926C138.695 33.957 143.304 33.0944 147.9 32.2183ZM62.8519 121.175C56.7462 119.949 50.0071 123.723 48.0257 129.923C51.7053 123.979 56.8136 121.822 62.8519 121.175ZM284.207 147.377C290.636 146.34 293.858 141.986 291.93 136.258C292.645 142.889 288.156 144.884 284.207 147.377ZM230.092 101.794C236.305 100.607 242.384 101.578 248.436 103.114C242.519 99.8662 236.359 99.974 230.092 101.794ZM248.193 75.5377L249.015 75.4973C249.5 70.9821 249.554 66.5072 247.627 61.992C247.829 66.6825 248.004 71.1168 248.193 75.5512V75.5377ZM232.208 122.995C236.44 122.779 239.688 124.869 242.694 127.551C241.198 123.521 236.777 121.593 232.208 122.995ZM274.085 94.7309C276.551 99.1653 277.118 104.112 277.872 109.005C278.87 103.654 277.32 98.9631 274.085 94.7309ZM69.3081 92.1835C64.4828 91.5096 60.1158 94.6231 59.4419 98.4375C60.6415 97.3592 61.9219 95.8631 63.5124 94.8388C65.1567 93.774 67.0841 93.1674 69.2946 92.1835H69.3081ZM232.437 119.127C234.634 119.41 236.817 119.396 238.785 120.03C240.699 120.636 242.397 121.903 244.621 123.116C241.696 118.749 237.572 117.496 232.437 119.127ZM66.3428 78.5165C62.6363 76.7643 57.3662 78.4221 54.8862 82.0613C58.0941 79.1769 62.3398 79.5543 66.3428 78.5165ZM269.92 156.61C265.971 159.373 262.022 162.136 258.059 164.899C262.965 163.511 266.699 160.438 269.92 156.61ZM211.667 102.98C216.546 101.78 220.899 100.702 225.266 99.6236C220.481 99.071 216.182 100.405 211.667 102.98ZM165.611 71.8851C167.309 71.0494 169.169 69.6612 171.231 69.2703C173.226 68.8929 175.41 69.5264 177.62 69.7286C173.024 66.5746 168.185 67.572 165.624 71.8851H165.611ZM236.13 56.5198C234.876 52.7054 230.334 51.1419 225.024 52.7728C229.472 52.7863 233.097 53.7567 236.13 56.5198ZM246.926 118.601C243.233 115.137 238.866 114.436 234.108 115.38C238.664 115.339 242.775 117.038 246.926 118.601ZM113.652 169.832C117.655 171.975 124.125 172.717 127.373 171.328C122.777 170.83 118.046 170.318 113.652 169.832ZM96.2783 55.2663C93.4613 58.1506 91.3856 61.5202 91.5339 65.8603C93.1109 62.3289 94.7013 58.7976 96.2783 55.2663ZM178.658 73.826C175.868 70.8607 171.852 71.1842 167.35 74.6886C171.043 73.4216 174.709 71.9121 178.658 73.826ZM137.091 15.8016C132.522 15.1142 128.882 16.5699 126.308 19.9664C128.249 18.9825 129.866 17.9986 131.619 17.3247C133.384 16.6508 135.271 16.2868 137.104 15.7881L137.091 15.8016ZM179.763 23.4439C182.971 25.816 186.179 28.1882 189.4 30.5604C187.055 26.9887 183.712 24.7917 179.763 23.4439ZM146.93 145.207C152.011 145.976 155.758 145.369 158.737 143.226C154.788 143.887 150.502 144.614 146.93 145.207ZM20.5703 143.752C19.9772 139.614 19.492 136.271 19.0203 132.996C17.969 136.487 18.4946 139.883 20.5703 143.752ZM201.868 45.6292C200.48 41.8688 197.622 39.6314 194.199 38.014C196.76 40.5479 199.307 43.0953 201.868 45.6292ZM168.091 78.3817C171.865 77.5595 175.437 78.5973 179.009 79.6891C175.652 76.6564 171.959 76.8182 168.091 78.3817ZM53.1475 128.157C55.358 125.327 59.0915 125.408 61.9084 123.804C58.1749 123.696 54.9671 124.626 53.1475 128.157ZM205.965 166.611C202.892 165.371 199.819 164.118 196.733 162.878C200.223 165.668 202.703 166.652 205.965 166.611ZM35.8278 114.086C31.6899 114.841 29.0617 116.889 28.6843 119.72C31.0834 117.833 33.6174 115.838 35.8278 114.086ZM229.512 86.7787C228.447 83.773 226.061 83.2878 221.236 85.1074C224.377 85.1478 227.234 84.5817 229.512 86.7787ZM246.468 74.1495C246.751 74.0956 247.02 74.0551 247.303 74.0012C246.953 70.699 246.117 67.5451 244.109 64.7146L246.468 74.1495ZM120.095 109.921C121.388 110.608 122.75 111.215 123.976 112.01C125.257 112.832 126.416 113.843 127.629 114.773C127.764 114.571 127.885 114.382 128.02 114.18C126.119 111.471 123.316 110.231 120.108 109.921H120.095ZM186.974 138.091C190.856 140.665 194.199 141.204 196.719 139.897C193.7 139.344 190.384 138.724 186.974 138.091ZM68.5802 129.263C66.5046 128.049 62.4206 129.438 60.628 132.363C63.3237 131.311 66.1272 130.219 68.5802 129.263ZM112.56 164.455C116.536 166.759 120.283 167.191 124.852 166.49C120.526 165.775 116.806 165.155 112.56 164.455ZM227.611 49.4571C230.86 49.1875 233.892 49.538 236.116 52.4223C235.281 48.7427 232.989 47.961 227.611 49.4571ZM273.141 104.651C273.438 99.6371 272.629 97.2244 270.527 95.2296C271.268 97.8849 272.104 100.904 273.141 104.651ZM115.835 81.8726C112.452 82.223 110.7 83.6652 109.447 86.6843C111.684 84.9996 113.76 83.4361 115.835 81.8726ZM123.033 71.8447C123.033 72.0873 123.033 72.3434 123.046 72.586C125.432 72.8555 127.818 73.1116 130.19 73.3812C130.217 73.1386 130.244 72.896 130.284 72.6399C127.966 71.6964 125.526 71.5616 123.033 71.8447ZM269.3 140.274C270.19 137.269 269.098 134.667 266.389 132.848C267.319 135.206 268.289 137.7 269.3 140.274ZM285.326 143.28C289.059 142.485 290.785 139.83 289.491 136.217C290.03 140.086 287.105 141.204 285.326 143.28ZM149.006 173.674C152.834 173.579 154.626 172.622 156.446 169.765C153.912 171.086 151.701 172.258 149.006 173.674ZM72.6911 170.951C75.7642 171.275 78.6081 170.223 81.0882 168.053C78.2847 169.024 75.4946 169.981 72.6911 170.951ZM266.052 142.39C266.645 139.263 265.567 136.878 263.087 134.923C264.057 137.363 265.054 139.883 266.052 142.39ZM85.8595 76.1712C83.2582 72.7882 81.5599 72.0603 79.0395 72.586C80.9399 73.5834 83.0695 74.7021 85.8595 76.1712ZM101.831 112.361C99.0009 111.835 96.5074 112.738 94.4317 114.854C96.8983 114.018 99.3648 113.183 101.831 112.361ZM131.794 86.2935C129.988 84.2313 127.925 84.1908 125.257 85.2826C127.764 85.6735 129.786 85.9835 131.794 86.2935ZM68.5668 131.352C64.3076 131.877 63.2698 132.511 62.7441 134.735C64.5772 133.67 66.4911 132.551 68.5668 131.352ZM107.479 72.7612C107.708 72.8151 107.937 72.869 108.166 72.9095C108.746 71.0764 109.339 69.2568 109.918 67.4238C107.937 68.7851 107.344 70.6451 107.479 72.7612ZM58.7949 85.2017C60.938 84.5143 63.0676 83.8269 65.2107 83.1395C62.5419 82.1421 60.5067 83.2339 58.7949 85.2017ZM69.2676 134.236C65.952 133.656 64.8467 134.263 64.5502 136.541C66.0328 135.813 67.5828 135.058 69.2676 134.236ZM258.571 136.312L262.197 142.013C261.968 139.479 260.741 137.592 258.571 136.312ZM242.869 73.4082C243.327 70.416 242.977 69.432 240.807 66.9925C241.562 69.3242 242.209 71.3595 242.869 73.4082ZM69.6316 95.014C69.5237 94.7983 69.4294 94.5961 69.3215 94.3805C67.1785 94.6096 65.8037 95.8496 65.1433 98.0601C66.6394 97.0492 68.1355 96.0249 69.6316 95.014ZM141.727 123.359C140.11 120.178 138.964 119.127 136.727 118.655C138.344 120.178 139.8 121.553 141.727 123.359ZM107.209 67.0464C106.98 66.8981 106.751 66.7633 106.535 66.6151C105.861 68.2055 104.635 69.5938 105.39 71.6829C105.996 70.1329 106.603 68.5829 107.209 67.0464ZM269.826 104.125C270.634 100.931 270.608 100.864 268.734 99.044C269.057 100.567 269.367 101.996 269.826 104.125ZM194.886 42.2192C196.059 43.6075 197.218 44.9958 198.39 46.384C198.215 44.214 197.07 42.8123 194.886 42.2192ZM280.393 152.027C278.978 151.879 277.549 151.717 276.134 151.569C277.481 152.526 278.816 153.362 280.393 152.027ZM293.979 141.137C295.704 139.587 295.367 138.347 294.788 136.379C294.478 138.212 294.276 139.371 293.979 141.137ZM227.692 89.4878C227.8 89.2318 227.895 88.9757 228.002 88.7196C227.059 88.4635 226.115 88.2074 225.158 87.9378C225.091 88.14 225.037 88.3422 224.97 88.5444C225.873 88.8544 226.789 89.1644 227.692 89.4744V89.4878ZM19.3977 152.23C19.2629 152.378 19.1146 152.513 18.9798 152.661C19.4785 153.214 19.9638 153.766 20.4625 154.305C20.5838 154.197 20.6916 154.103 20.8129 153.995C20.3412 153.402 19.8694 152.809 19.3977 152.23Z" fill="white"/>
<path d="M217.22 76.2521C224.956 73.7046 232.221 73.8125 238.529 79.4734C241.413 82.0612 242.963 85.3634 243.314 89.5822C241.44 89.2722 241.049 88.1265 240.578 87.1156C236.224 77.8829 229.66 74.9177 219.821 77.6673C218.541 78.0312 217.166 78.0177 215.926 78.166C214.389 75.1333 213.095 72.4107 211.64 69.7824C209.281 65.5233 206.477 61.5741 202.919 58.218C196.935 52.5706 189.495 50.2792 181.61 49.0123C177.539 48.3653 173.469 48.2979 169.385 48.9718C164.627 49.7671 160.247 51.4114 156.527 54.5788C154.882 55.9671 153.211 57.3284 151.567 58.7302C147.577 62.1672 144.558 66.2781 142.59 71.1842C141.673 73.4755 140.622 75.7264 139.571 77.9638C139.22 78.7051 138.654 79.3656 137.994 80.363C131.713 75.376 125.338 76.306 118.545 80.3225C118.76 77.7886 120.202 76.8855 121.685 76.1981C125.931 74.2573 130.244 74.392 134.557 76.0364C135.554 76.4138 136.511 76.8855 137.778 77.4381C138.87 75.1199 140.043 72.9499 140.932 70.672C143.574 63.9598 148.103 58.7571 153.588 54.2149C160.408 48.5675 168.307 46.384 177 46.5996C187.486 46.8692 196.908 50.131 204.793 57.1263C207.165 59.2424 209.187 61.8706 210.898 64.5798C213.19 68.2055 215.009 72.1142 217.22 76.2386V76.2521Z" fill="black"/>
<path d="M141.444 115.825C139.598 116.62 138.843 115.11 138.129 114.032C131.902 104.584 122.588 99.6909 112.223 96.4157C108.624 95.2835 104.958 96.1731 101.36 96.7931C96.0896 97.6961 91.2104 99.61 86.7086 102.508C80.7647 106.322 76.5864 111.471 74.6051 118.318C74.4298 118.911 74.1738 119.477 73.8772 120.286C73.1494 119.949 72.462 119.828 72.0981 119.41C70.1842 117.186 67.5828 116.579 64.8872 116.229C60.1697 115.622 55.5601 116.229 51.3414 118.318C49.414 119.275 48.0527 121.324 46.314 122.739C43.0657 125.354 41.92 129.033 41.0574 132.848C40.7744 134.088 40.8148 135.409 40.7474 136.689C40.707 137.633 40.7878 138.616 39.2648 139.317C39.0761 138.064 38.7122 136.959 38.793 135.88C39.3726 128.117 43.0252 121.971 49.0636 117.199C50.0475 116.431 51.3144 115.932 52.541 115.568C59.3341 113.52 66.0867 113.237 72.772 116.498C73.1898 115.73 73.5672 115.11 73.9042 114.463C80.2929 101.942 90.7117 95.4722 104.541 94.3804C107.721 94.1378 111.158 94.0435 114.151 94.9465C124.34 98.0466 133.155 103.478 139.719 112.104C140.541 113.183 140.905 114.598 141.485 115.851V115.838L141.444 115.825Z" fill="black"/>
<path d="M206.275 118.736C205.48 117.577 206.073 116.512 206.855 115.663C207.866 114.558 208.944 113.426 210.224 112.671C221.128 106.201 232.868 103.317 245.524 105.19C252.668 106.255 258.517 109.935 262.817 115.623C265.782 119.545 268.154 123.939 270.688 128.184C271.901 130.22 272.885 132.376 273.964 134.492C274.557 135.651 274.759 136.703 272.953 137.471C272.548 136.635 272.211 135.907 271.847 135.193C269.3 130.22 267.009 125.084 264.151 120.3C259.003 111.673 250.821 107.684 241.144 106.592C231.965 105.568 223.325 107.899 215.225 111.97C212.03 113.574 209.416 116.31 206.289 118.723L206.275 118.736Z" fill="black"/>
<path d="M6.79538 131.096C7.06495 134.694 6.88973 138.428 7.67148 141.946C10.475 154.467 18.535 162.729 29.8973 167.972C39.1974 172.259 49.1309 173.283 59.2532 173.189C62.0971 173.162 64.9276 173.189 67.7715 173.391C62.2589 174.563 56.6923 174.685 51.1257 174.375C42.54 173.903 34.2508 172.124 26.6086 167.999C16.7829 162.689 9.74714 155.047 6.9706 143.967C5.89233 139.654 5.52841 135.301 6.7819 131.096H6.79538Z" fill="black"/>
<path d="M78.2037 164.63C65.6284 172.703 34.6282 170.843 21.5946 155.235C38.8334 168.134 57.7705 170.897 78.2037 164.63Z" fill="black"/>
<path d="M142.307 177.933C126.51 188.136 99.877 183.203 89.0943 165.802C104.163 181.626 121.847 185.737 142.307 177.933Z" fill="black"/>
<path d="M111.293 19.6294C112.641 18.4703 113.868 17.1089 115.35 16.1655C128.963 7.47192 143.628 4.41233 159.465 8.26714C163.36 9.21063 166.959 10.9628 170.234 13.2946C171.164 13.955 172.027 14.7368 172.781 15.8015C163.091 10.0732 152.941 6.6093 141.539 8.07844C130.54 9.48019 120.324 12.7015 111.751 20.0877L111.28 19.6294H111.293Z" fill="black"/>
<path d="M130.096 110.865C110.808 92.4801 91.9922 97.1706 80.1716 114.571C81.0208 108.749 92.0326 99.8797 100.376 98.2893C111.158 96.2406 125.284 102.144 130.096 110.865Z" fill="black"/>
<path d="M259.569 78.4221C264.69 77.4652 269.03 79.2443 272.872 82.56C276.363 85.5792 278.802 89.3666 280.743 93.491C285.097 102.71 286.647 112.334 284.908 122.429C284.827 122.914 284.638 123.373 284.18 123.79C284.18 119.828 284.355 115.852 284.14 111.889C283.708 103.438 281.35 95.5532 276.511 88.5579C275.177 86.617 273.6 84.8109 271.888 83.18C268.303 79.77 265.58 78.84 259.555 78.4221H259.569Z" fill="black"/>
<path d="M246.926 170.668C234.661 177.326 208.472 177.259 193.242 165.627C201.531 170.142 210.548 172.029 219.74 173.633C229.162 175.264 238.057 173.525 246.926 170.668Z" fill="black"/>
<path d="M85.28 70.1464C84.3634 67.4238 84.4173 64.6068 85.0373 61.965C88.2317 48.5406 93.9196 36.3966 103.867 26.5573C105.147 25.2904 106.616 24.2256 108.436 22.7295C108.436 24.5221 107.398 25.0208 106.738 25.6408C99.0818 32.8517 93.5557 41.4914 89.5391 51.1419C87.0052 57.2206 84.8891 63.3937 85.28 70.1599V70.1464Z" fill="black"/>
<path d="M45.4109 100.203C45.667 96.5641 45.6535 92.898 46.2062 89.3128C47.7023 79.7701 54.5223 73.5296 64.658 72.3031C66.9898 72.02 69.389 72.1279 71.7342 72.3031C73.5133 72.4379 75.279 72.9366 77.0042 74.7831C75.4407 74.4596 74.4164 74.2574 73.4055 74.0418C68.0816 72.9096 62.9059 73.4487 57.9593 75.6996C50.6001 79.0423 47.5405 85.2693 46.7318 92.898C46.4757 95.3376 46.3005 97.7907 46.0849 100.23C45.8557 100.23 45.6266 100.217 45.3975 100.203H45.4109Z" fill="black"/>
<path d="M252.439 68.3537C251.67 63.0971 250.35 58.0562 246.724 53.9857C243.152 49.9557 238.596 47.6509 233.394 46.5861C228.124 45.4943 222.948 45.8044 217.449 48.3922C222.463 43.513 233.124 43.23 241.764 48.5135C249.689 53.3522 254.204 61.5201 252.425 68.3671L252.439 68.3537Z" fill="black"/>
<path d="M187.473 57.8676C168.037 51.7215 154.168 58.3933 144.666 76.6295C148.305 59.4042 175.113 48.0015 187.473 57.8676Z" fill="black"/>
<path d="M218.743 169.981C226.964 169.374 235.186 168.768 243.179 166.611C251.145 164.455 258.45 160.937 264.947 155.775C259.03 164.603 233.785 172.434 218.743 169.981Z" fill="black"/>
<path d="M262.305 126.796C253.503 115.393 242.222 109.557 227.571 111.053C240.537 107.131 257.304 114.665 262.305 126.796Z" fill="black"/>
<path d="M209.2 160.182C212.961 161.085 216.694 162.204 220.495 162.837C230.388 164.481 240.025 163.107 249.46 159.872C250.552 159.494 251.657 159.157 252.83 159.023C248.665 161.705 244.015 163.12 239.203 163.983C229.647 165.708 220.306 164.684 211.195 161.435C210.481 161.179 209.901 160.559 209.267 160.101L209.2 160.168V160.182Z" fill="black"/>
<path d="M206.922 40.7636C197.083 29.5766 187.783 17.7426 173.428 11.7312C188.255 17.1225 198.485 27.8918 206.922 40.7636Z" fill="black"/>
<path d="M126.915 29.5496C127.71 28.8757 128.424 28.0535 129.314 27.5548C138.115 22.5678 147.658 21.7995 157.484 22.7161C157.78 22.743 158.05 22.9721 158.319 23.1339C158.387 23.1743 158.387 23.3361 158.481 23.7C155.758 23.7 153.117 23.6595 150.461 23.7C142.388 23.8482 134.611 25.2095 127.602 29.5496C127.44 29.6439 127.184 29.6035 126.969 29.6305L126.901 29.5631L126.915 29.5496Z" fill="black"/>
<path d="M98.2461 75.8073C97.4374 72.5455 98.1653 69.5129 99.284 66.6016C102.047 59.4445 106.953 53.7702 111.981 48.1766L112.52 48.554C110.956 50.5758 109.352 52.5706 107.87 54.6463C106.374 56.7489 104.851 58.8515 103.624 61.1159C102.344 63.4611 101.225 65.9411 100.322 68.4481C99.4457 70.8338 98.9335 73.3542 98.2596 75.8208L98.2461 75.8073Z" fill="black"/>
<path d="M69.0385 119.558C64.5367 118.129 60.1158 118.412 55.7084 119.706C48.8479 121.715 45.1279 126.432 44.6561 133.562C44.6157 134.169 44.5888 134.789 44.5348 136.136C43.187 133.158 43.6992 130.812 44.4405 128.642C45.047 126.85 46.0579 125.084 47.2709 123.628C51.3145 118.749 60.9515 116.242 66.855 118.372C67.6233 118.655 68.3242 119.154 69.052 119.558H69.0385Z" fill="black"/>
<path d="M117.695 106.214C114.245 105.621 110.808 104.88 107.344 104.449C99.567 103.492 92.5717 105.001 87.0591 111.323C87.3556 110.797 87.5713 110.204 87.9487 109.746C92.2078 104.624 97.99 102.953 104.311 102.858C108.517 102.791 112.641 103.6 116.563 105.217C117.008 105.406 117.412 105.702 117.83 105.958C117.79 106.053 117.749 106.134 117.709 106.228L117.695 106.214Z" fill="black"/>
<path d="M138.439 154.588C150.259 156.354 161.069 153.227 172 147.755C165.678 154.359 151.742 157.109 138.439 154.588Z" fill="black"/>
<path d="M293.494 130.597C298.723 132.497 300.651 136.649 298.737 141.878C296.998 146.609 292.483 150.316 286.66 151.461C287.28 151.124 287.9 150.761 288.534 150.437C291.162 149.103 293.48 147.391 295.3 145.032C299.33 139.816 298.642 134.829 293.345 130.974C293.278 130.934 293.211 130.772 293.238 130.759C293.318 130.691 293.413 130.651 293.521 130.597H293.494Z" fill="black"/>
<path d="M279.274 85.889C286.889 90.6334 292.133 106.592 288.749 115.339C288.979 104.112 287.213 93.9895 279.274 85.889Z" fill="black"/>
<path d="M96.5883 123.44C97.3565 122.779 98.017 121.944 98.8931 121.499C105.457 118.183 112.358 118.21 119.299 119.909C121.968 120.555 124.515 121.688 127.117 122.591C127.049 122.82 126.969 123.035 126.901 123.265C126.025 123.009 125.149 122.793 124.286 122.51C119.677 120.96 114.986 119.989 110.094 120.003C105.7 120.003 101.562 120.825 97.7339 123.009C97.3835 123.211 96.9387 123.251 96.5344 123.359L96.5883 123.426V123.44Z" fill="black"/>
<path d="M202.838 114.019C208.769 106.996 217.004 104.907 225.428 103.222C225.522 103.425 225.617 103.64 225.711 103.842C224.997 104.152 224.309 104.516 223.568 104.759C221.115 105.554 218.635 106.282 216.168 107.077C211.33 108.627 206.774 110.73 202.838 114.019Z" fill="black"/>
<path d="M134.975 174.253C126.942 179.429 106.01 175.857 99.3513 168.148C110.282 175.709 122.17 177.731 134.975 174.253Z" fill="black"/>
<path d="M138.317 148.887C149.653 151.017 150.61 150.949 165.827 146.852C161.204 151.542 146.674 152.877 138.317 148.887Z" fill="black"/>
<path d="M156.284 48.4733C148.183 53.8511 140.447 58.8786 138.331 69.1626C137.562 61.8842 147.658 50.1985 156.284 48.4733Z" fill="black"/>
<path d="M165.126 86.2934C173.442 82.7891 185.667 85.8217 189.697 93.0191C187.554 91.4691 186.017 90.1078 184.265 89.1643C182.297 88.0995 180.181 87.183 178.025 86.6034C175.976 86.0508 173.779 85.8756 171.649 85.8217C169.533 85.7813 167.404 86.1047 165.139 86.28L165.126 86.2934Z" fill="black"/>
<path d="M237.397 68.7042C234.512 64.5124 232.531 60.0645 227.975 57.9215C223.622 55.8862 219.039 56.021 213.944 56.6815C223.379 52.8671 236.184 58.6628 237.397 68.6907V68.7042Z" fill="black"/>
<path d="M55.1558 100.756C55.5466 92.6283 62.9328 86.7922 72.9202 87.2369C71.815 87.6817 71.2355 87.9782 70.6289 88.14C69.2811 88.5174 67.9198 88.8139 66.5585 89.1778C61.7467 90.4583 58.4175 93.41 56.571 98.0331C56.2071 98.9227 55.8432 99.8123 55.4658 100.702C55.4388 100.756 55.2636 100.729 55.1558 100.742V100.756Z" fill="black"/>
<path d="M236.332 87.439C235.2 86.536 234.014 85.6599 232.922 84.7029C227.598 80.0394 221.843 79.5812 215.697 82.9103C215.373 83.0855 215.023 83.2338 214.632 83.2608C220.697 77.1416 230.428 78.8129 236.332 87.4256V87.439Z" fill="black"/>
<path d="M185.182 147.984C187.5 148.415 189.805 148.9 192.136 149.264C197.299 150.06 202.447 149.628 207.583 148.954C208.594 148.82 209.604 148.725 210.71 149.062C210.346 149.264 210.009 149.561 209.631 149.642C202.38 151.232 195.129 151.569 187.945 149.332C186.988 149.035 186.139 148.402 185.236 147.917L185.182 147.984Z" fill="black"/>
<path d="M190.896 60.415C199.28 63.5825 205.413 69.0681 208.23 77.7752C206.194 76.0095 205.386 73.3543 203.741 71.2921C201.949 69.0412 200.102 66.7633 197.919 64.9168C195.816 63.1377 193.255 61.8977 190.896 60.415Z" fill="black"/>
<path d="M188.12 106.093C185.397 103.735 183.295 101.362 180.707 99.8123C178.24 98.3297 175.248 97.6962 172.566 96.7258C179.494 96.4697 185.99 100.203 188.133 106.093H188.12Z" fill="black"/>
<path d="M101.05 54.7946C100.928 55.1854 100.874 55.6302 100.659 55.9672C97.653 60.4959 95.6717 65.4425 94.4182 70.7125C94.243 71.4269 93.9734 72.1143 93.34 72.8017C93.34 72.0469 93.2456 71.2786 93.3534 70.5508C94.2565 64.7955 96.6422 59.7007 100.295 55.1854C100.457 54.9833 100.834 54.9563 101.117 54.8485L101.063 54.7946H101.05Z" fill="black"/>
<path d="M39.0087 108.209C30.0186 109.342 29.5738 109.53 21.8642 115.312C23.239 110.406 30.8947 107.198 39.0087 108.209Z" fill="black"/>
<path d="M33.8869 150.356C26.6355 149.238 21.6485 140.571 23.1581 131.702C23.7377 140.827 24.8294 143.927 33.8869 150.356Z" fill="black"/>
<path d="M135.406 160.128C142.496 159.427 150.273 158.659 158.063 157.891C150.421 160.397 142.59 160.775 135.406 160.128Z" fill="black"/>
<path d="M42.5804 161.112C48.457 165.061 54.6571 163.74 61.4906 162.069C55.021 165.978 46.8396 165.465 42.5804 161.112Z" fill="black"/>
<path d="M182.203 164.589C179.049 170.196 169.035 169.927 163.603 166.234C170.072 168.646 176.326 168.997 182.203 164.589Z" fill="black"/>
<path d="M163.98 170.25C170.881 171.746 177.351 170.385 183.632 167.555C177.553 172.07 170.908 172.501 163.98 170.25Z" fill="black"/>
<path d="M188.079 98.707C184.764 91.6443 178.496 90.6469 171.838 90.3639C173.55 89.6091 175.356 89.1778 177.378 89.9056C180.181 90.903 182.931 92.17 185.519 93.6391C187.311 94.6635 188.43 96.4292 188.066 98.707H188.079Z" fill="black"/>
<path d="M25.126 118.938C25.8134 113.452 31.6765 110.231 38.3752 111.565C32.8086 111.902 28.1047 113.789 25.126 118.938Z" fill="black"/>
<path d="M185.829 140.989C188.78 141.838 191.692 142.997 194.711 143.428C197.609 143.846 200.628 143.523 203.566 143.752C197.07 146.946 191.476 143.752 185.842 140.989H185.829Z" fill="black"/>
<path d="M104.298 125.003C110.538 123.116 116.752 122.011 122.79 125.785C116.698 123.413 110.498 124.019 104.298 125.003Z" fill="black"/>
<path d="M147.9 32.2183C143.304 33.0944 138.695 33.957 134.301 34.7927C136.606 32.5688 142.132 31.2748 147.9 32.2183Z" fill="black"/>
<path d="M19.4381 109.692C19.3572 109.961 19.3707 110.366 19.1955 110.501C14.6668 113.884 11.8363 118.52 9.50455 123.534C9.19455 124.208 8.81715 124.842 8.35889 125.691C8.54758 120.69 14.0602 112.927 19.5055 109.759L19.4381 109.692Z" fill="black"/>
<path d="M62.852 121.175C56.8271 121.822 51.7054 123.979 48.0258 129.923C50.0071 123.723 56.7463 119.949 62.852 121.175Z" fill="black"/>
<path d="M284.207 147.377C288.156 144.884 292.645 142.889 291.93 136.258C293.858 141.986 290.636 146.34 284.207 147.377Z" fill="black"/>
<path d="M122.602 81.5222C126.429 78.1122 133.169 78.894 135.285 82.951C133.276 82.2231 131.295 81.0775 129.192 80.8348C127.022 80.5788 124.758 81.1988 122.534 81.4414L122.602 81.5088V81.5222Z" fill="black"/>
<path d="M230.092 101.794C236.359 99.9606 242.519 99.8663 248.436 103.115C242.384 101.578 236.305 100.608 230.092 101.794Z" fill="black"/>
<path d="M248.193 75.5376C248.004 71.1032 247.829 66.6823 247.627 61.9784C249.554 66.5071 249.5 70.9819 249.015 75.4837L248.193 75.5242V75.5376Z" fill="black"/>
<path d="M232.208 122.995C236.777 121.593 241.198 123.534 242.694 127.551C239.688 124.869 236.44 122.779 232.208 122.995Z" fill="black"/>
<path d="M274.085 94.731C277.32 98.9632 278.87 103.654 277.872 109.005C277.118 104.112 276.552 99.1653 274.085 94.731Z" fill="black"/>
<path d="M69.3081 92.1834C67.0976 93.1673 65.1567 93.7739 63.5259 94.8387C61.9354 95.863 60.6415 97.3591 59.4554 98.4374C60.1293 94.623 64.4963 91.5095 69.3215 92.1834H69.3081Z" fill="black"/>
<path d="M232.437 119.127C237.572 117.496 241.683 118.749 244.621 123.116C242.397 121.903 240.699 120.636 238.785 120.03C236.804 119.396 234.634 119.41 232.437 119.127Z" fill="black"/>
<path d="M66.3428 78.5165C62.3398 79.5543 58.1076 79.1769 54.8862 82.0613C57.3663 78.4221 62.6363 76.7643 66.3428 78.5165Z" fill="black"/>
<path d="M95.1461 118.749C98.8122 115.151 103.53 114.854 108.207 114.382C108.274 114.584 108.341 114.8 108.409 115.002C106.994 115.353 105.592 115.703 104.177 116.04C102.707 116.391 101.211 116.633 99.7962 117.105C98.2731 117.617 96.8309 118.345 95.3618 118.965L95.1596 118.736L95.1461 118.749Z" fill="black"/>
<path d="M269.92 156.61C266.712 160.451 262.979 163.525 258.059 164.899C262.008 162.136 265.958 159.373 269.92 156.61Z" fill="black"/>
<path d="M211.667 102.98C216.182 100.405 220.481 99.0845 225.266 99.6236C220.913 100.702 216.559 101.767 211.667 102.98Z" fill="black"/>
<path d="M165.611 71.8851C168.172 67.5855 173.011 66.5746 177.607 69.7286C175.41 69.5264 173.213 68.8794 171.218 69.2703C169.169 69.6612 167.309 71.0494 165.598 71.8851H165.611Z" fill="black"/>
<path d="M236.13 56.5197C233.111 53.7432 229.485 52.7862 225.024 52.7727C230.334 51.1418 234.876 52.7053 236.13 56.5197Z" fill="black"/>
<path d="M246.926 118.601C242.775 117.038 238.664 115.339 234.108 115.38C238.866 114.436 243.233 115.137 246.926 118.601Z" fill="black"/>
<path d="M113.652 169.832C118.046 170.304 122.763 170.816 127.373 171.328C124.125 172.717 117.655 171.989 113.652 169.832Z" fill="black"/>
<path d="M96.2783 55.2662C94.7013 58.7976 93.1109 62.3289 91.5339 65.8602C91.3856 61.5202 93.4613 58.1506 96.2783 55.2662Z" fill="black"/>
<path d="M178.658 73.826C174.709 71.912 171.043 73.4216 167.35 74.6886C171.852 71.1842 175.868 70.8607 178.658 73.826Z" fill="black"/>
<path d="M137.091 15.8015C135.258 16.3002 133.371 16.6641 131.605 17.3381C129.866 18.012 128.249 18.9959 126.295 19.9798C128.869 16.5833 132.508 15.1276 137.077 15.815L137.091 15.8015Z" fill="black"/>
<path d="M141.458 115.852C142.496 116.889 143.52 117.927 144.571 118.938C146.094 120.407 147.631 121.836 147.981 124.235C147.429 123.71 146.863 123.197 146.35 122.645C144.962 121.135 143.547 119.666 142.28 118.076C141.808 117.483 141.727 116.593 141.458 115.838V115.852Z" fill="black"/>
<path d="M179.763 23.4438C183.712 24.7782 187.055 26.9887 189.4 30.5604C186.192 28.1882 182.985 25.816 179.763 23.4438Z" fill="black"/>
<path d="M146.93 145.207C150.502 144.601 154.788 143.887 158.737 143.226C155.758 145.369 151.998 145.976 146.93 145.207Z" fill="black"/>
<path d="M20.5703 143.752C18.4811 139.884 17.969 136.487 19.0203 132.996C19.492 136.271 19.9772 139.614 20.5703 143.752Z" fill="black"/>
<path d="M201.868 45.6293C199.307 43.0954 196.759 40.548 194.199 38.014C197.622 39.6314 200.48 41.8689 201.868 45.6293Z" fill="black"/>
<path d="M168.091 78.3817C171.946 76.8048 175.652 76.6565 179.009 79.6891C175.437 78.6109 171.865 77.573 168.091 78.3817Z" fill="black"/>
<path d="M53.1475 128.157C54.9671 124.613 58.175 123.696 61.9085 123.804C59.078 125.408 55.358 125.327 53.1475 128.157Z" fill="black"/>
<path d="M205.965 166.611C202.703 166.652 200.223 165.681 196.733 162.878C199.806 164.118 202.879 165.371 205.965 166.611Z" fill="black"/>
<path d="M35.8278 114.086C33.6173 115.838 31.0699 117.833 28.6843 119.72C29.0617 116.889 31.7034 114.841 35.8278 114.086Z" fill="black"/>
<path d="M229.512 86.7786C227.234 84.5951 224.377 85.1478 221.236 85.1073C226.061 83.2877 228.447 83.773 229.512 86.7786Z" fill="black"/>
<path d="M246.468 74.1495L244.109 64.7146C246.117 67.5316 246.939 70.699 247.303 74.0012C247.02 74.0551 246.751 74.0955 246.468 74.1495Z" fill="black"/>
<path d="M120.095 109.921C123.302 110.231 126.119 111.471 128.006 114.18C127.872 114.382 127.75 114.571 127.615 114.773C126.402 113.843 125.243 112.832 123.963 112.01C122.736 111.215 121.375 110.609 120.081 109.921H120.095Z" fill="black"/>
<path d="M186.974 138.091C190.384 138.724 193.713 139.331 196.719 139.897C194.199 141.204 190.856 140.665 186.974 138.091Z" fill="black"/>
<path d="M68.5802 129.263C66.1272 130.22 63.3237 131.311 60.628 132.363C62.4206 129.438 66.5046 128.049 68.5802 129.263Z" fill="black"/>
<path d="M112.56 164.454C116.806 165.155 120.526 165.775 124.852 166.49C120.283 167.191 116.523 166.759 112.56 164.454Z" fill="black"/>
<path d="M131.511 21.2064C134.422 18.3894 138.155 18.3355 141.781 17.8907C141.835 18.1064 141.902 18.3086 141.956 18.5242C140.191 18.8881 138.412 19.1981 136.673 19.6429C134.921 20.0877 133.195 20.6403 131.47 21.1525L131.524 21.2199L131.511 21.2064Z" fill="black"/>
<path d="M227.611 49.4571C232.989 47.961 235.294 48.7427 236.116 52.4223C233.879 49.538 230.86 49.1875 227.611 49.4571Z" fill="black"/>
<path d="M273.141 104.651C272.104 100.904 271.268 97.8849 270.527 95.2296C272.643 97.2244 273.438 99.637 273.141 104.651Z" fill="black"/>
<path d="M115.835 81.8726C113.76 83.436 111.698 84.9995 109.447 86.6843C110.7 83.6652 112.452 82.223 115.835 81.8726Z" fill="black"/>
<path d="M123.033 71.8446C125.526 71.5616 127.966 71.6964 130.284 72.6399C130.257 72.8825 130.23 73.1251 130.19 73.3812C127.804 73.1116 125.419 72.8555 123.046 72.586C123.046 72.3433 123.046 72.0873 123.033 71.8446Z" fill="black"/>
<path d="M269.3 140.274C268.289 137.7 267.305 135.206 266.389 132.848C269.098 134.667 270.19 137.282 269.3 140.274Z" fill="black"/>
<path d="M19.492 109.759C22.6055 107.023 26.3525 105.797 30.3421 105.082L30.2747 105.028C30.0995 105.271 29.9782 105.648 29.7491 105.743C26.6356 107.091 23.5086 108.398 20.3681 109.692C20.112 109.8 19.7616 109.692 19.4516 109.692L19.5055 109.759H19.492Z" fill="black"/>
<path d="M285.326 143.28C287.119 141.218 290.03 140.099 289.491 136.217C290.785 139.83 289.046 142.485 285.326 143.28Z" fill="black"/>
<path d="M149.006 173.674C151.701 172.259 153.912 171.099 156.446 169.765C154.626 172.609 152.833 173.58 149.006 173.674Z" fill="black"/>
<path d="M72.6912 170.951C75.4947 169.981 78.2847 169.024 81.0882 168.053C78.6082 170.223 75.7642 171.261 72.6912 170.951Z" fill="black"/>
<path d="M266.052 142.39C265.054 139.883 264.057 137.363 263.087 134.923C265.567 136.878 266.645 139.263 266.052 142.39Z" fill="black"/>
<path d="M85.8595 76.1713C83.056 74.7021 80.9399 73.5834 79.0394 72.586C81.5599 72.0604 83.2582 72.7882 85.8595 76.1713Z" fill="black"/>
<path d="M101.831 112.361C99.3649 113.196 96.8983 114.032 94.4318 114.854C96.5074 112.738 99.0144 111.835 101.831 112.361Z" fill="black"/>
<path d="M131.794 86.2936C129.785 85.9836 127.764 85.6736 125.257 85.2827C127.925 84.1909 129.988 84.2314 131.794 86.2936Z" fill="black"/>
<path d="M68.5667 131.352C66.4911 132.551 64.5771 133.67 62.7441 134.735C63.2697 132.511 64.3076 131.877 68.5667 131.352Z" fill="black"/>
<path d="M107.479 72.7611C107.344 70.645 107.937 68.7985 109.918 67.4237C109.339 69.2568 108.746 71.0763 108.166 72.9094C107.937 72.8555 107.708 72.8016 107.479 72.7611Z" fill="black"/>
<path d="M58.7949 85.2017C60.5067 83.2473 62.5419 82.1421 65.2106 83.1395C63.0676 83.8269 60.938 84.5143 58.7949 85.2017Z" fill="black"/>
<path d="M69.2676 134.236C67.5828 135.058 66.0328 135.826 64.5502 136.541C64.8467 134.263 65.9519 133.643 69.2676 134.236Z" fill="black"/>
<path d="M258.571 136.312C260.741 137.592 261.968 139.479 262.197 142.013L258.571 136.312Z" fill="black"/>
<path d="M242.869 73.4083C242.209 71.373 241.562 69.3378 240.807 66.9926C242.977 69.4321 243.327 70.4161 242.869 73.4083Z" fill="black"/>
<path d="M69.6315 95.014C68.1354 96.0249 66.6393 97.0492 65.1432 98.0601C65.8037 95.8496 67.1785 94.6096 69.3215 94.3805C69.4294 94.5961 69.5237 94.7983 69.6315 95.014Z" fill="black"/>
<path d="M141.727 123.359C139.8 121.553 138.344 120.178 136.727 118.655C138.964 119.127 140.11 120.178 141.727 123.359Z" fill="black"/>
<path d="M107.209 67.0464C106.603 68.5964 105.996 70.1464 105.39 71.683C104.648 69.5938 105.861 68.1921 106.535 66.6151C106.764 66.7634 106.994 66.8982 107.209 67.0464Z" fill="black"/>
<path d="M269.826 104.125C269.367 101.996 269.057 100.554 268.734 99.0439C270.621 100.864 270.634 100.931 269.826 104.125Z" fill="black"/>
<path d="M126.982 29.617C125.594 30.8974 124.205 32.1644 122.817 33.4448C123.909 31.8678 124.92 30.21 126.928 29.5496L126.995 29.617H126.982Z" fill="black"/>
<path d="M194.886 42.2192C197.069 42.8123 198.215 44.214 198.39 46.3841C197.218 44.9958 196.059 43.6075 194.886 42.2192Z" fill="black"/>
<path d="M280.393 152.028C278.802 153.362 277.468 152.526 276.134 151.569C277.549 151.718 278.977 151.879 280.393 152.028Z" fill="black"/>
<path d="M131.457 21.1526L126.995 24.4683L126.874 24.3335C128.074 22.77 129.449 21.4895 131.511 21.22L131.457 21.1526Z" fill="black"/>
<path d="M293.979 141.137C294.276 139.371 294.478 138.212 294.788 136.379C295.367 138.347 295.704 139.587 293.979 141.137Z" fill="black"/>
<path d="M96.5209 123.372C95.6987 124.262 94.863 125.138 93.6635 126.419C94.7282 124.127 94.7552 124.154 96.5883 123.44L96.5344 123.372H96.5209Z" fill="black"/>
<path d="M227.692 89.4878C226.789 89.1778 225.873 88.8678 224.97 88.5578C225.037 88.3556 225.091 88.1535 225.158 87.9513C226.102 88.2074 227.045 88.4635 228.002 88.733C227.895 88.9891 227.8 89.2452 227.692 89.5013V89.4878Z" fill="black"/>
<path d="M122.534 81.4548C121.523 81.9535 120.499 82.4388 119.367 82.9914C120.755 81.5492 120.768 81.5761 122.602 81.5222L122.548 81.4548H122.534Z" fill="black"/>
<path d="M30.3421 105.082C31.7439 104.907 33.1456 104.732 34.5339 104.557L34.5608 105.042C33.1321 105.042 31.7034 105.042 30.2747 105.042L30.3286 105.096L30.3421 105.082Z" fill="black"/>
<path d="M101.104 54.8485L102.788 51.9641C102.991 52.1259 103.193 52.2741 103.395 52.4359C102.613 53.2176 101.831 54.0128 101.05 54.7946L101.104 54.8485Z" fill="black"/>
<path d="M185.235 147.917C184.13 147.607 183.025 147.297 181.92 146.987C182.014 146.758 182.095 146.528 182.189 146.313C183.187 146.879 184.184 147.431 185.182 147.998L185.235 147.93V147.917Z" fill="black"/>
<path d="M126.995 24.4548C126.349 25.1691 125.702 25.8835 125.055 26.5844C124.879 26.3957 124.704 26.207 124.529 26.0048C125.311 25.4387 126.079 24.8726 126.861 24.3065L126.982 24.4413L126.995 24.4548Z" fill="black"/>
<path d="M19.3977 152.23C19.8694 152.823 20.3412 153.416 20.8129 153.995C20.6916 154.103 20.5838 154.198 20.4625 154.305C19.9638 153.753 19.4786 153.2 18.9799 152.661C19.1146 152.513 19.2629 152.378 19.3977 152.23Z" fill="black"/>
<path d="M95.3483 118.978C94.7552 119.585 94.1757 120.192 93.5826 120.798C93.4209 120.609 93.2592 120.421 93.0974 120.232C93.7713 119.747 94.4587 119.248 95.1326 118.763L95.3348 118.992L95.3483 118.978Z" fill="black"/>
<path d="M209.268 160.101C208.337 159.953 207.421 159.818 206.491 159.67L206.68 158.969C207.515 159.373 208.351 159.778 209.187 160.182L209.254 160.101H209.268Z" fill="black"/>
</svg>
