<svg width="526" height="244" viewBox="0 0 526 244" fill="none" xmlns="http://www.w3.org/2000/svg">
<path d="M232.159 34.5619C235.731 30.8918 238.895 27.0095 242.68 23.8939C263.347 6.88061 286.689 -1.92783 313.881 0.35584C338.121 2.37852 358.054 12.3451 374.219 30.4676C387.334 45.1647 397.235 61.5908 401.33 80.9041C404.657 96.5799 406.924 112.517 405.147 128.682C405.114 128.91 405.277 129.155 405.44 129.677C407.006 129.383 408.588 129.041 410.203 128.796C417.429 127.67 424.28 128.665 430.479 132.678C437.558 137.262 443.48 142.759 447.476 150.572C450.2 155.923 452.109 161.24 452.875 167.096C452.957 167.7 453.267 168.287 453.56 169.135C454.816 168.679 455.926 168.369 456.937 167.879C470.476 161.583 483.509 169.625 486.788 180.537C486.935 181.027 487.228 181.451 487.522 182.054C491.371 180.505 495.188 179.216 499.332 180.048C504.111 180.994 505.204 185.121 506.541 188.987C509.168 188.661 511.468 188.269 513.784 188.106C519.95 187.666 524.631 191.336 525.822 197.436C526.621 201.563 524.697 203.896 520.668 205.054C514.975 206.685 509.885 205.201 504.551 202.852C499.217 208.317 492.464 210.845 484.912 210.91C477.474 210.975 470.737 208.871 465.778 202.868C463.087 204.597 460.77 206.31 458.242 207.648C454.67 209.524 451.048 211.351 447.28 212.753C436.188 216.88 426.564 213.683 417.935 206.343C417.071 205.609 416.581 204.451 415.554 202.983C409.371 212.639 403.042 220.697 392.146 223.242C381.608 225.705 371.723 223.813 362.099 218.642C361.496 219.653 360.958 220.502 360.468 221.366C358.853 224.188 357.434 227.157 355.591 229.832C354.204 231.838 352.541 233.894 350.534 235.199C338.871 242.784 326.132 245.524 312.935 240.63C304.991 237.678 298.124 232.409 293.475 224.889C293.149 224.351 292.741 223.862 292.513 223.536C287.358 225.216 282.481 227.092 277.473 228.364C269.252 230.452 260.884 229.767 252.565 228.935C239.026 227.565 226.237 223.438 214.346 216.978C205.391 212.117 198.246 205.152 193.777 195.414C185.686 202.705 176.453 206.783 165.427 206.751C154.188 206.718 145.591 201.221 137.615 193.962C136.032 195.251 134.532 196.311 133.227 197.551C126.833 203.651 118.986 206.604 110.488 208.039C100.75 209.67 90.9137 209.605 81.2733 207.843C73.7046 206.457 66.5437 203.341 60.0515 199.1C57.8657 197.681 55.9572 197.469 53.5268 198.056C43.2992 200.536 32.9574 201.237 22.5015 199.492C18.9944 198.905 15.6179 198.154 12.8448 195.642C11.8172 194.712 10.3165 194.305 9.07678 193.587C7.51083 192.673 5.91227 191.76 4.44419 190.683C-0.612502 186.964 -1.18342 182.642 1.86691 176.525C2.99243 174.274 5.19454 173.181 7.59239 172.838C10.92 172.349 14.2966 172.137 17.8363 171.794C18.0646 170.864 18.2767 169.869 18.554 168.891C23.2355 151.6 36.5787 141.764 55.2884 144.309C63.7706 145.467 71.3883 148.501 77.4563 154.911C83.3776 150.311 89.8208 149.235 97.2101 151.518C96.9491 139.154 98.9391 127.638 107.16 118.112C115.365 108.602 126.457 104.72 138.642 102.452C138.3 99.3366 137.745 96.4004 137.696 93.4643C137.598 86.8253 137.125 80.1211 137.941 73.5801C140.029 56.7462 148.576 43.6803 162.376 33.8279C167.286 30.3208 172.751 28.6407 178.313 26.7322C188.133 23.3556 197.806 24.3017 207.625 26.145C211.084 26.7975 214.623 27.0748 218.032 27.8741C220.006 28.3308 221.833 29.44 223.693 30.3208C226.596 31.7074 229.467 33.1591 232.208 34.5293L232.159 34.5619ZM41.929 196.719C33.2347 197.73 24.932 196.719 17.2491 192.217C23.5128 194.549 30.005 195.871 36.6602 195.381C43.3318 194.892 49.9545 193.864 56.7239 193.065C56.2019 193.554 55.6799 194.044 55.4026 194.305C56.5118 194.778 57.7026 195.185 58.7955 195.756C61.2097 197.045 63.4933 198.595 65.9564 199.753C77.6847 205.217 90.0818 207.224 102.919 206.359C113.962 205.609 124.19 202.509 132.591 194.794C134.189 193.326 136.163 192.249 138.039 190.944C139.262 191.956 140.192 192.837 141.252 193.587C144.743 196.083 148.103 198.872 151.839 200.927C161.316 206.131 171.054 206.212 180.646 201.139C183.973 199.378 187.121 197.241 190.172 195.022C191.999 193.701 193.679 193.146 195.587 194.076C196.86 196.213 197.92 198.334 199.29 200.226C204.428 207.37 211.214 212.655 218.962 216.603C233.627 224.074 249.27 227.842 265.745 227.483C274.39 227.304 282.905 225.999 290.425 221.105C291.534 220.371 292.986 220.143 294.911 219.458C294.03 222.753 295.71 224.612 297.276 226.162C301.811 230.664 306.818 234.611 312.593 237.45C314.452 238.363 316.475 239.032 318.498 239.44C328.056 241.332 337.044 239.831 345.738 235.248C352.883 231.479 356.553 225.33 359.131 218.169C359.62 216.782 359.62 215.233 359.93 213.308C360.99 213.977 361.659 214.287 362.197 214.743C363.094 215.494 363.796 216.505 364.758 217.092C380.809 226.782 401.003 221.17 408.67 208.578C409.959 206.457 411.41 204.451 412.846 202.428C413.417 201.612 414.134 200.895 415.064 199.818C416.092 200.764 417.038 201.417 417.723 202.281C424.085 210.339 432.518 212.998 442.37 211.546C448.96 210.568 454.637 207.305 460.118 203.684C462.255 202.265 464.359 200.846 466.545 199.378C467.181 200.161 467.621 200.634 467.996 201.156C471.569 206.098 476.511 208.17 482.481 208.349C490.849 208.61 498.157 206.196 504.193 200.063C505.563 200.617 506.851 201.221 508.189 201.678C511.663 202.836 515.203 203.88 518.922 203.113C523.082 202.265 524.305 199.736 522.511 195.936C520.765 192.266 517.96 190.227 513.8 190.7C510.995 191.026 508.205 191.629 505.22 192.151C504.421 190.292 503.703 188.481 502.871 186.736C501.044 182.854 498.516 181.532 494.324 182.429C492.823 182.756 491.388 183.473 489.969 184.126C488.81 184.664 487.75 185.398 486.282 186.246C485.287 183.93 484.292 181.842 483.509 179.673C481.356 173.768 477.164 170.375 471.128 168.874C467.295 167.928 463.625 168.075 460.004 169.494C457.361 170.538 454.784 171.729 451.782 173.018C451.26 170.718 450.722 168.597 450.331 166.476C447.737 152.628 440.886 141.731 428.309 134.864C420.61 130.655 412.715 128.812 404.608 133.853C403.124 134.766 401.949 134.685 401.297 133.657C401.803 131.129 402.455 129.057 402.569 126.969C403.222 115.355 402.83 103.757 401.02 92.2409C398.899 78.7509 395.31 65.7503 388.525 53.7611C379.129 37.1555 365.835 24.3017 350.208 13.6664C349.458 13.1607 348.609 12.7692 347.777 12.443C342.411 10.404 337.093 8.26712 331.661 6.42387C317.225 1.5303 302.561 0.943069 287.684 4.25439C269.252 8.34868 253.576 17.6302 239.483 29.8478C238.129 31.0223 237.232 32.6861 236.09 34.1052C235.078 35.3775 234.018 36.6172 233.284 37.5144C230.087 36.1442 227.477 35.035 224.883 33.9095C224.052 33.5506 223.073 33.3059 222.469 32.6861C220.088 30.3045 217.086 29.6521 213.938 29.2279C210.839 28.8038 207.756 28.2329 204.64 27.9556C200.367 27.5804 196.044 26.9769 191.787 27.2542C167.563 28.8365 145.053 43.1909 139.588 74.7382C138.969 78.2779 139.132 82.0133 139.442 85.6182C139.964 91.8005 140.861 97.9337 141.66 104.54C140.176 104.817 138.43 105.274 136.669 105.437C125.854 106.416 117.16 111.652 109.542 118.943C104.061 124.196 100.929 130.672 100.342 138.289C100.048 142.188 99.8852 146.103 99.7221 150.001C99.6569 151.665 99.7221 153.329 99.7221 155.515C97.781 154.911 96.3782 154.634 95.1222 154.047C89.9023 151.6 85.2208 152.758 80.8003 155.955C79.4627 156.918 78.1415 157.929 76.6081 159.071C72.628 152.318 66.3969 149.528 59.6111 147.555C58.7629 147.31 57.9962 146.837 57.148 146.511C55.0275 146.396 52.9069 146.299 50.8027 146.184C50.8027 146.494 50.819 146.804 50.8353 147.114C52.9558 146.886 55.0764 146.674 57.1969 146.445C57.1643 148.419 58.9749 148.06 59.9863 148.452C64.9614 150.36 69.3004 153.084 72.5465 157.374C72.9053 157.847 73.0032 158.533 73.2316 159.103C65.2224 151.257 56.0388 146.543 44.8814 148.827C33.561 151.127 27.9986 159.984 23.8554 169.935C25.193 161.811 29.7603 155.694 35.7631 150.344C30.9021 152.171 27.7539 156.037 24.6873 159.723C21.1802 163.948 21.0497 169.445 20.6419 174.877C18.9944 174.747 17.3143 174.42 15.6668 174.518C12.959 174.665 10.1207 174.649 7.60871 175.481C2.60095 177.128 1.035 182.332 4.26476 186.475C5.83071 188.481 7.96757 190.145 10.1044 191.548C19.2554 197.567 29.4667 198.79 40.1021 197.795C40.7382 197.73 41.3091 197.061 41.9453 196.702C43.2829 196.866 44.6205 197.029 45.9417 197.192C45.9417 196.963 45.9743 196.751 45.9907 196.523C44.6531 196.588 43.2992 196.653 41.9616 196.719H41.929ZM45.2729 146.494C45.2729 146.576 45.2729 146.657 45.2729 146.755H47.6545C47.6545 146.674 47.6545 146.592 47.6545 146.494H45.2729Z" fill="black"/>
<path d="M57.1806 146.478C57.9962 146.837 58.7629 147.31 59.6111 147.555C66.3969 149.512 72.628 152.318 76.6081 159.071C78.1415 157.929 79.4627 156.934 80.8003 155.955C85.2208 152.742 89.9024 151.584 95.1222 154.047C96.3782 154.634 97.781 154.911 99.7221 155.515C99.7221 153.329 99.6569 151.665 99.7221 150.001C99.8852 146.087 100.048 142.188 100.342 138.289C100.929 130.672 104.061 124.196 109.542 118.944C117.16 111.652 125.854 106.416 136.669 105.437C138.43 105.274 140.176 104.817 141.66 104.54C140.861 97.9501 139.947 91.8005 139.442 85.6183C139.148 82.0133 138.985 78.2779 139.588 74.7382C145.053 43.191 167.563 28.8365 191.787 27.2542C196.044 26.9769 200.367 27.5804 204.64 27.9556C207.756 28.2329 210.839 28.8038 213.938 29.2279C217.07 29.6521 220.088 30.3045 222.469 32.6861C223.073 33.2896 224.052 33.5343 224.883 33.9095C227.477 35.035 230.087 36.1442 233.284 37.5144C234.034 36.6172 235.078 35.3775 236.09 34.1052C237.232 32.6861 238.129 31.0223 239.483 29.8478C253.576 17.6302 269.252 8.34869 287.684 4.2544C302.561 0.943081 317.225 1.53031 331.661 6.42389C337.093 8.26713 342.411 10.404 347.777 12.443C348.626 12.7692 349.474 13.1607 350.208 13.6664C365.835 24.3018 379.145 37.1555 388.525 53.7611C395.294 65.734 398.899 78.7509 401.02 92.2409C402.83 103.757 403.222 115.339 402.569 126.969C402.455 129.057 401.786 131.129 401.297 133.657C401.949 134.685 403.14 134.782 404.608 133.853C412.732 128.796 420.61 130.655 428.31 134.864C440.886 141.731 447.737 152.628 450.331 166.476C450.738 168.613 451.277 170.718 451.782 173.018C454.784 171.729 457.361 170.522 460.004 169.494C463.625 168.075 467.279 167.912 471.128 168.874C477.18 170.375 481.372 173.768 483.509 179.673C484.292 181.842 485.303 183.93 486.282 186.246C487.75 185.398 488.81 184.664 489.969 184.126C491.371 183.457 492.807 182.756 494.324 182.43C498.516 181.516 501.044 182.837 502.871 186.736C503.703 188.481 504.405 190.292 505.22 192.151C508.222 191.629 510.995 191.026 513.8 190.7C517.976 190.227 520.782 192.249 522.511 195.936C524.305 199.736 523.082 202.265 518.922 203.113C515.203 203.863 511.68 202.836 508.189 201.678C506.851 201.221 505.546 200.617 504.193 200.063C498.157 206.196 490.849 208.594 482.481 208.349C476.511 208.17 471.569 206.098 467.996 201.156C467.621 200.634 467.181 200.161 466.545 199.378C464.375 200.829 462.255 202.265 460.118 203.684C454.653 207.305 448.977 210.584 442.37 211.546C432.518 212.998 424.085 210.339 417.723 202.281C417.038 201.417 416.092 200.764 415.064 199.818C414.134 200.895 413.417 201.612 412.846 202.428C411.41 204.451 409.959 206.473 408.67 208.578C401.003 221.187 380.809 226.798 364.758 217.092C363.78 216.505 363.078 215.477 362.197 214.743C361.659 214.287 360.99 213.977 359.93 213.308C359.636 215.233 359.636 216.782 359.131 218.169C356.57 225.314 352.883 231.479 345.738 235.247C337.044 239.831 328.056 241.332 318.498 239.44C316.475 239.032 314.452 238.363 312.593 237.45C306.818 234.628 301.811 230.664 297.276 226.162C295.726 224.612 294.03 222.736 294.911 219.458C292.969 220.143 291.534 220.387 290.425 221.105C282.889 225.999 274.374 227.304 265.745 227.483C249.27 227.842 233.643 224.057 218.962 216.603C211.214 212.655 204.412 207.387 199.29 200.226C197.936 198.334 196.86 196.213 195.587 194.076C193.679 193.146 191.999 193.685 190.172 195.022C187.121 197.241 183.973 199.378 180.646 201.139C171.054 206.229 161.316 206.147 151.839 200.927C148.103 198.872 144.743 196.083 141.252 193.587C140.208 192.837 139.262 191.956 138.039 190.944C136.163 192.249 134.189 193.326 132.591 194.794C124.19 202.509 113.962 205.609 102.919 206.359C90.0818 207.24 77.6847 205.217 65.9564 199.753C63.477 198.595 61.1934 197.061 58.7955 195.756C57.7026 195.169 56.5118 194.778 55.4026 194.305C55.6799 194.044 56.2019 193.554 56.7239 193.065C49.9545 193.864 43.3318 194.892 36.6602 195.381C30.005 195.871 23.5128 194.549 17.2491 192.217C24.9157 196.735 33.2347 197.73 41.929 196.719L41.8801 196.67C41.2765 197.061 40.7056 197.73 40.0694 197.795C29.4341 198.79 19.2228 197.567 10.0718 191.548C7.93495 190.145 5.78177 188.481 4.23214 186.475C1.00238 182.348 2.56832 177.128 7.57608 175.481C10.1044 174.649 12.9427 174.665 15.6342 174.518C17.2817 174.42 18.9618 174.747 20.6093 174.877C21.0334 169.445 21.1476 163.932 24.6547 159.723C27.7213 156.037 30.8695 152.171 35.7305 150.344C29.744 155.678 25.1766 161.811 23.8228 169.935C27.9497 159.984 33.512 151.127 44.8488 148.827C56.0062 146.56 65.1898 151.274 73.1989 159.103C72.9706 158.516 72.8727 157.847 72.5138 157.374C69.2678 153.084 64.9288 150.344 59.9537 148.452C58.9423 148.06 57.1317 148.419 57.1643 146.445V146.478H57.1806ZM65.8749 163.54C65.565 162.268 64.6678 161.974 63.3792 162.464C64.2274 162.806 65.0756 163.133 65.9238 163.475C67.3756 165.53 68.811 167.586 70.5075 170C70.2302 166.199 69.2678 164.959 65.8586 163.54H65.8749ZM175.491 152.497C179.08 151.796 182.652 151.111 187.04 150.262C182.293 149.072 178.688 149.512 175.573 152.579C174.317 152.562 173.615 153.166 173.664 154.601C174.268 153.9 174.887 153.199 175.491 152.497ZM172.522 44.6101C174.121 43.5661 175.687 42.4569 177.351 41.5108C178.982 40.581 180.711 39.8144 182.407 38.9825C178.15 39.3087 174.61 40.8257 172.31 44.4143C171.511 45.2136 170.712 46.0292 169.912 46.8285C170.141 47.0243 170.385 47.22 170.614 47.4321C171.25 46.5023 171.886 45.5562 172.522 44.6264V44.6101ZM303.898 183.898C302.903 182.886 301.908 181.859 300.913 180.847C300.718 181.108 300.506 181.369 300.31 181.63C301.533 182.364 302.757 183.082 303.98 183.816C304.486 184.354 304.893 185.039 305.481 185.415C309.705 188.073 314.436 188.498 319.101 188.514C314.093 186.997 309.004 185.447 303.898 183.898ZM144.971 187.013C144.123 186.165 143.275 185.317 142.427 184.468C142.247 184.697 142.052 184.942 141.872 185.17C142.932 185.773 143.976 186.361 145.037 186.964C148.788 191.303 153.829 192.461 159.228 192.788C154.481 190.863 149.734 188.938 144.988 187.029L144.971 187.013ZM433.334 180.929C439.858 180.488 443.953 184.028 446.66 189.59C447.036 189.248 447.199 189.15 447.199 189.085C446.677 182.951 439.271 178.384 433.546 180.652C433.464 180.684 433.448 180.88 433.399 180.994C429.99 180.749 429.076 181.108 426.727 183.686C428.864 182.788 431.115 181.859 433.35 180.929H433.334ZM460.868 173.996C468.355 172.104 473.102 176.41 477.457 181.598C475.435 174.567 467.703 170.783 461.178 173.376C461.031 173.442 461.015 173.833 460.917 174.045C458.976 173.197 457.687 174.306 456.48 175.693C457.948 175.122 459.4 174.567 460.868 173.996ZM366.65 49.8952C366.667 53.0434 368.167 55.7185 368.901 58.6383C369.228 58.5242 369.554 58.41 369.896 58.3121C368.787 55.5228 367.678 52.7497 366.569 49.9604C366.52 49.4547 366.601 48.8838 366.406 48.4434C362.262 38.5747 356.309 30.0599 347.68 23.5514C347.207 23.1925 346.652 22.9642 346.146 22.6706C345.902 22.9479 345.641 23.2252 345.396 23.5188C345.934 23.7635 346.57 23.9103 346.995 24.2854C354.694 31.3648 361.496 39.1293 365.655 48.9001C365.818 49.3079 366.308 49.5689 366.634 49.9115L366.65 49.8952ZM192.733 88.2934C193.206 88.1466 193.76 88.114 194.168 87.853C200.513 83.8892 207.495 82.1275 214.901 81.8665C217.804 81.7523 220.724 81.8502 223.627 81.8502C223.285 81.1162 222.877 80.7736 222.437 80.7084C212.568 79.2077 203.27 80.7084 194.804 86.2381C194.005 86.7601 193.467 87.6572 192.814 88.375L189.552 90.3487C189.731 90.5771 189.911 90.8055 190.09 91.0338C190.971 90.1203 191.852 89.2069 192.733 88.2934ZM225.65 93.7905L228.684 96.1884C228.847 95.8948 229.01 95.6175 229.174 95.3238C227.966 94.8345 226.776 94.3451 225.569 93.8558C224.753 93.3175 224.003 92.5998 223.122 92.2572C212.225 88.1792 197.985 93.921 192.896 104.426C192.814 104.589 192.994 104.883 193.092 105.241C194.755 103.415 196.289 101.506 198.034 99.8586C203.874 94.3778 210.66 91.1969 218.881 92.2083C221.164 92.4856 223.399 93.2196 225.65 93.7416V93.7905ZM327.388 135.272C328.089 135.027 328.872 134.913 329.492 134.521C338.137 129.057 347.549 127.344 357.597 128.796C359.685 129.09 361.757 129.367 363.845 129.66C362.866 128.519 361.741 127.915 360.55 127.621C348.626 124.669 337.844 127.279 328.024 134.407C327.746 134.603 327.649 135.043 327.469 135.353C325.039 135.989 323.929 138.077 322.478 139.774C324.223 138.665 325.74 137.343 327.241 135.973C327.388 135.843 327.339 135.516 327.388 135.272ZM222.518 35.8506C223.497 36.6499 224.492 37.4655 225.471 38.2648L225.96 37.4328L222.437 35.9321C222.127 35.557 221.882 35.0513 221.491 34.8229C205.733 25.9656 184.463 26.0634 168.917 37.4328C168.509 37.7428 168.183 38.1669 167.824 38.5421C169.211 38.4279 170.206 37.9059 171.201 37.3513C187.219 28.4776 203.564 27.3195 220.3 35.247C220.969 35.5733 221.752 35.6548 222.486 35.8506H222.518ZM341.644 102.795C341.465 101.033 341.497 99.8912 341.22 98.8309C340.6 96.4331 339.834 94.0841 339.116 91.7189C337.044 84.819 334.157 78.2616 330.193 72.2262C319.917 56.583 305.644 48.1987 286.673 48.4434C286.282 48.4434 285.89 48.476 285.499 48.4434C273.265 47.2852 263.119 52.6356 253.739 59.3724C243.495 66.7454 237.444 77.1361 234.915 89.5168C234.671 90.6913 234.279 91.8494 233.92 93.138C223.872 85.0473 213.025 83.1552 201.769 88.3587C193.401 92.2246 187.333 99.0593 183.941 107.786C182.978 110.266 182.913 113.104 182.554 115.795C182.472 116.415 182.88 117.1 183.076 117.753C183.99 116.66 184.365 115.6 184.56 114.507C186.453 104.703 191.917 97.3139 200.138 91.9799C205.179 88.7175 210.92 87.4289 216.94 88.3097C223.057 89.2069 228.374 91.7678 232.485 96.5472C233.545 97.7869 234.573 99.2061 236.726 98.8472C236.791 98.2274 236.971 97.7054 236.873 97.2486C235.976 93.4154 236.628 89.7289 237.835 86.0913C242.712 71.4432 252.19 60.8731 266.185 54.4299C268.404 53.4022 270.867 52.7824 273.281 52.3746C276.739 51.7873 280.262 51.4285 283.77 51.2164C297.896 50.3682 310.358 54.4462 320.52 64.4291C329.998 73.7269 335.625 85.2105 338.382 98.1458C338.724 99.777 338.839 101.506 341.612 102.795H341.644ZM217.804 171.223C222.796 165.53 225.177 164.144 231.115 163.1C239.874 161.567 246.089 164.47 250.428 172.202C251.635 174.355 252.679 176.606 253.853 178.792C254.506 179.999 255.305 181.141 256.039 182.315C256.349 182.25 256.643 182.185 256.953 182.103C257.002 181.206 257.361 180.178 257.051 179.412C255.028 174.437 252.663 169.625 248.764 165.824C243.137 160.327 236.449 158.745 228.961 161.142C225.275 162.333 221.686 163.834 217.788 165.286C217.396 164.47 216.809 163.328 216.254 162.17C213.547 156.445 209.877 151.388 205.162 147.179C198.474 141.209 190.465 138.665 181.69 139.513C173.631 140.296 166.389 143.64 160.011 148.713C157.075 151.045 154.938 153.9 153.812 157.521C153.372 158.957 152.638 160.311 151.871 162.072C149.865 160.457 148.201 159.218 146.635 157.864C145.086 156.494 143.34 155.792 141.285 155.841C133.471 155.988 127.175 159.152 122.575 165.481C121.825 166.509 121.335 167.781 120.993 169.021C120.813 169.706 121.205 170.554 121.335 171.321L122.102 171.468C123.456 169.266 124.794 167.064 126.147 164.862C126.311 164.959 126.474 165.074 126.637 165.171C125.903 166.998 125.152 168.842 124.418 170.669C126.539 168.303 128.137 165.677 130.258 163.557C132.574 161.24 135.853 160.359 138.969 161.094C141.774 161.746 144.352 163.377 147.222 164.65C143.699 159.25 138.708 159.055 132.591 160.408C138.332 157.309 142.427 157.668 146.603 161.208C148.462 162.79 150.289 164.421 152.589 166.444C153.519 164.307 154.546 162.741 154.889 161.045C155.851 156.233 158.788 152.921 162.49 150.05C167.09 146.478 172.229 144.031 177.873 142.628C188.067 140.1 196.957 142.465 204.445 149.904C209.126 154.552 212.878 159.805 215.113 166.085C215.7 167.749 216.728 169.249 217.771 171.223H217.804ZM387.448 156.428C389.471 156.086 388.949 154.911 388.606 153.998C386.975 149.61 385.686 145.026 383.517 140.932C375.932 126.594 364.04 119.841 347.631 121.015C335.005 121.912 324.827 127.785 315.61 135.826C314.354 136.919 313.31 138.355 312.544 139.839C311.973 140.932 311.989 142.351 311.761 143.623C312.038 143.738 312.299 143.835 312.576 143.95C313.147 143.33 313.996 142.824 314.24 142.106C315.594 138.273 318.595 136.006 321.727 133.869C324.207 132.172 326.703 130.525 329.28 128.975C331.041 127.915 332.852 126.79 334.793 126.17C341.563 124.049 348.528 123.168 355.64 123.576C362.311 123.951 368.037 126.382 372.702 131.226C377.351 136.055 381.282 141.389 383.974 147.571C385.213 150.426 386.274 153.362 387.464 156.428H387.448ZM426.434 177.634C424.868 174.73 423.53 171.925 421.866 169.331C421.083 168.108 419.795 166.933 418.473 166.346C413.319 164.079 404.543 166.444 401.052 170.897C400.661 171.403 400.612 172.186 400.416 172.822C400.628 173.001 400.84 173.181 401.069 173.344C402.357 172.381 403.695 171.468 404.918 170.424C410.35 165.791 418.18 167.178 421.344 173.442C422.225 175.171 422.812 177.063 423.514 178.874C423.856 179.771 424.166 180.7 424.493 181.63C427.575 180.309 430.251 178.939 433.073 177.993C436.612 176.802 440.233 176.574 443.724 178.335C447.199 180.097 450.184 182.217 450.836 186.491C451.048 187.845 451.75 189.199 454.196 189.101C453.642 187.095 453.071 185.333 452.696 183.539C452.255 181.5 451.146 180.064 449.515 178.808C444.377 174.91 438.749 173.752 432.551 175.611C430.463 176.247 428.407 176.949 426.45 177.585L426.434 177.634ZM308.123 63.2546C308.286 62.9936 308.449 62.7489 308.629 62.488C306.443 61.0036 304.388 59.2582 302.071 58.0511C293.606 53.6632 284.65 53.027 275.467 55.115C262.939 57.9696 253.478 65.4567 245.469 75.1134C244.882 75.8311 244.425 76.663 243.903 77.446C244.833 77.1361 245.371 76.5815 245.893 76.0105C251.733 69.5999 258.274 64.0702 266.136 60.2858C279.708 53.7285 293.002 53.8589 305.937 62.0312C306.639 62.4716 307.389 62.8631 308.123 63.2709V63.2546ZM268.632 221.023C268.632 220.746 268.616 220.469 268.599 220.175C267.082 220.175 265.565 220.273 264.065 220.159C256.398 219.572 248.666 219.392 241.114 218.202C227.705 216.081 215.635 210.763 205.668 201.253C204.412 200.063 203.238 198.758 202.03 197.518C213.954 215.07 242.288 224.743 268.648 221.023H268.632ZM384.74 55.1965C395.082 75.9616 399.519 97.9827 398.866 121.814C404.249 109.434 395.751 70.0404 384.74 55.1965ZM61.1281 193.049C61.9437 193.799 62.0905 194.011 62.2863 194.109C78.5819 202.151 95.5463 204.973 113.457 200.666C120.373 199.002 126.881 196.507 132.379 191.841C132.966 191.352 133.374 190.651 134.157 189.705C133.406 189.868 133.276 189.868 133.178 189.917C132.835 190.112 132.493 190.292 132.183 190.52C117.763 200.356 101.712 202.95 84.8457 200.258C78.2393 199.198 71.9103 196.474 65.4508 194.484C64.26 194.125 63.0855 193.701 61.1444 193.049H61.1281ZM240.396 89.37C240.624 89.4842 240.853 89.6147 241.081 89.7289C241.668 88.7175 242.256 87.7062 242.859 86.7112C247.867 78.6368 254.098 71.6716 262.009 66.3702C270.965 60.3674 280.638 58.6057 291.045 62.0638C291.648 62.2596 292.317 62.2759 292.953 62.3738C292.513 61.6234 291.974 61.2809 291.403 61.0199C290.702 60.6773 289.984 60.3837 289.25 60.1064C281.698 57.3497 274.374 58.3284 267.262 61.6397C257.899 66.0113 250.754 72.9113 245.061 81.4098C243.349 83.9544 241.946 86.7112 240.396 89.37ZM190.286 190.357C182.407 195.169 174.153 198.366 164.823 198.203C155.362 198.04 147.32 194.207 139.98 188.481C151.822 202.493 177.889 204.402 190.286 190.357ZM303.85 6.78275C302.887 6.37495 302.675 6.21183 302.479 6.21183C301.696 6.21183 300.913 6.21183 300.147 6.27708C282.253 7.82671 265.973 13.9274 250.934 23.5677C246.97 26.1124 243.528 29.3258 240.804 33.2081C240.363 33.8279 240.184 34.6272 239.874 35.3286C244.18 29.7989 249.449 25.623 255.37 22.1812C267.311 15.2649 280.067 10.5671 293.72 8.39763C296.868 7.89196 300.032 7.38629 303.866 6.76644L303.85 6.78275ZM305.464 143.623C317.649 126.838 333.7 118.552 354.335 117.671C340.372 113.006 310.276 129.041 305.464 143.623ZM331.433 10.2735C347.924 15.5749 361.104 25.6883 372.506 38.4279C362.768 23.2904 348.593 14.6125 331.433 10.2735ZM346.831 228.168C330.911 234.334 315.219 236.406 300.31 225.444C311.108 237.906 337.387 236.813 346.831 228.168ZM273.379 213.014C271.96 212.933 271.275 212.835 270.573 212.851C265.892 212.949 261.21 213.161 256.529 213.161C246.562 213.161 236.791 212.085 227.689 207.566C227.493 207.468 227.167 207.664 226.743 207.762C236.824 214.792 259.644 216.57 273.395 212.998L273.379 213.014ZM102.919 141.813C108.759 120.085 120.34 109.254 139.197 107.444C125.789 104.181 102.316 121.651 102.919 141.813ZM460.721 197.942C447.867 208.757 435.405 210.29 421.98 199.378C430.512 211.514 454.196 210.731 460.721 197.942ZM113.343 197.094C97.3895 199.443 82.0237 197.649 67.343 190.651C81.8116 198.986 97.0633 201.808 113.343 197.094ZM389.52 81.4587C392.929 97.7543 393.744 114.278 393.418 130.884C395.881 114.115 394.185 97.6728 389.52 81.4587ZM441.294 155.776C439.173 140.704 422.584 130.868 408.034 135.973C415.244 134.733 422.046 135.696 428.277 139.594C434.492 143.477 438.407 149.202 441.294 155.776ZM257.573 52.0809C246.432 54.6093 232.322 72.9439 233.105 84.5906C237.101 69.9099 245.697 59.7312 257.573 52.0809ZM251.749 181.761C252.222 177.895 251.292 175.057 248.976 172.316C241.832 163.818 227.51 163.654 220.169 172.022C219.664 172.593 219.37 173.36 218.979 174.045C224.459 169.119 230.217 165.579 237.819 167.471C245.273 169.331 250.346 173.67 251.733 181.761H251.749ZM61.3076 156.934C54.7828 152.204 47.7523 151.959 40.5099 155.27C34.3113 158.092 29.5482 164.176 29.5482 168.858C37.59 155.025 44.1963 152.595 61.3076 156.934ZM333.358 138.469C334.549 138.094 335.723 137.735 336.897 137.343C343.781 135.06 350.795 133.999 358.005 135.37C363.225 136.365 367.564 138.681 369.864 143.836C369.962 144.048 370.321 144.145 370.843 144.455C369.684 138.844 365.998 136.169 361.333 134.685C355.509 132.825 349.523 133.053 343.585 134.163C339.915 134.848 336.261 135.68 333.341 138.469H333.358ZM187.97 145.858C177.041 140.116 158.902 150.589 156.895 164.079C163.485 150.996 173.061 143.787 187.97 145.858ZM368.787 213.667C378.754 221.089 396.664 218.511 401.835 209.051C391.754 217.451 380.793 219.278 368.787 213.667ZM188.443 36.9761C203.221 34.0237 216.564 36.1605 227.624 47.3016C220.854 34.9697 201.476 32.5393 188.443 36.9761ZM381.119 75.9453C385.067 89.0764 386.404 102.534 386.437 116.17C388.476 102.256 386.339 88.8806 381.119 75.9453ZM138.332 153.753C128.92 151.274 114.126 162.627 114.517 174.649C117.763 162.643 125.74 155.923 138.332 153.753ZM318.628 15.2323C307.063 11.2848 295.433 11.5458 283.835 15.1997C295.433 12.8508 307.014 13.2749 318.628 15.2323ZM210.529 46.1271C202.601 39.0151 181.608 44.0229 177.383 52.5866C190.547 43.4683 196.158 42.3101 210.529 46.1271ZM146.342 66.6312C143.732 79.2077 144.629 91.3927 150.191 103.105C146.586 91.1969 144.939 79.0772 146.342 66.6312ZM501.093 199.035C495.71 201.368 490.344 203.195 484.471 203.211C478.273 203.227 473.493 199.965 468.779 196.458C475.826 206.017 492.105 207.273 501.093 199.035ZM258.241 162.594C252.761 153.019 234.752 148.957 224.427 156.706C237.476 151.192 248.471 153.476 258.241 162.594ZM386.241 139.741C386.437 139.562 386.632 139.382 386.828 139.203C383.125 131.863 378.623 125.175 371.267 120.885C368.298 119.156 365.15 117.785 361.545 118.34C366.194 118.96 370.321 120.803 373.665 124C376.47 126.675 378.95 129.709 381.38 132.727C383.158 134.946 384.626 137.392 386.241 139.741ZM370.027 210.356C378.313 214.466 390.939 213.259 396.485 207.566C392.146 208.757 387.905 210.535 383.517 210.992C378.982 211.448 374.301 210.617 370.043 210.372L370.027 210.356ZM433.252 157.048C432.502 144.227 422.388 137.164 412.666 141.487C413.678 141.487 414.298 141.552 414.885 141.487C424.395 140.296 428.701 145.434 431.295 152.04C431.947 153.704 432.6 155.384 433.252 157.064V157.048ZM265.924 163.328C261.455 150.148 248.128 144.733 235.78 147.685C249.286 146.25 259.53 151.078 265.924 163.328ZM342.753 30.7776C350.094 38.0038 354.792 47.0243 359.995 55.7022C356.031 46.1434 351.138 37.2208 342.753 30.7776ZM210.007 166.705C209.534 159.348 202.504 150.687 195.555 148.778C202.422 153.296 206.418 159.381 210.007 166.705ZM341.024 222.051C336.816 223.062 332.493 224.596 328.073 225.004C323.701 225.395 319.215 224.628 315.154 224.4C323 228.07 335.805 226.961 341.024 222.067V222.051ZM154.905 94.5898C152.442 87.3147 150.485 80.0233 151.692 72.2588C149.506 80.2027 149.637 87.8041 154.905 94.5898ZM271.666 89.0275C264.326 89.2884 256.463 95.6827 255.093 102.371C258.796 95.6827 264.734 91.8168 271.666 89.0275ZM418.604 180.929C418.408 175.676 415.896 172.137 412.405 171.501C408.882 170.864 404.412 173.181 403.091 176.361C410.709 170.766 414.069 171.615 418.604 180.929ZM288.663 187.992C291.599 194.207 301.647 198.839 309.657 197.746C302.055 195.838 294.095 194.647 288.663 187.992ZM110.896 132.499C107.389 139.921 107.34 147.636 108.661 155.482C109.183 147.799 108.531 140.002 110.896 132.499ZM295.041 183.49C300.718 188.938 307.405 192.282 315.464 192.461C308.205 190.52 301.256 187.91 295.041 183.49ZM363.845 92.3551C364.693 99.3366 365.557 106.318 366.52 114.148C368.184 105.976 366.243 99.0593 363.845 92.3551ZM171.022 139.758C166.797 137.931 157.238 142.579 154.139 148.06C158.788 143.33 164.872 141.552 171.022 139.758ZM125.479 114.849C128.17 113.626 130.78 112.158 133.569 111.261C136.31 110.38 139.23 110.086 142.068 109.532C135.625 108.537 129.964 110.119 125.479 114.833V114.849ZM86.0527 203.619C92.8059 205.217 99.4611 205.397 106.116 203.619H86.0527ZM379.504 145.711C377.906 139.236 373.811 135.06 367.874 132.564C373.028 135.843 376.242 140.818 379.504 145.711ZM13.3179 176.443C8.26118 175.725 5.4066 176.965 4.67256 180.113C3.92221 183.376 6.04276 186.442 10.4144 187.894C9.06047 186.491 7.93495 185.464 6.98885 184.305C4.77043 181.598 5.45553 178.759 8.71792 177.471C10.1207 176.916 11.6867 176.786 13.3179 176.443ZM491.551 196.18C485.189 198.595 479.594 196.523 474.146 193.407C479.937 198.937 486.217 199.916 491.551 196.18ZM187.66 149.284C184.903 147.016 182.636 146.543 179.096 147.212C175.344 147.946 172.62 149.708 171.168 152.562C176.062 148.419 181.396 147.392 187.66 149.267V149.284ZM251.08 97.3955C252.744 95.1118 254.212 92.6324 256.137 90.6097C258.144 88.5055 260.607 86.8253 262.858 84.9658C256.072 86.2381 253.413 91.6047 251.08 97.3955ZM226.629 203.309C231.669 206.326 237.003 208.398 243.137 207.631C237.639 206.196 232.126 204.744 226.629 203.309ZM249.563 42.881C254.669 40.2222 259.775 37.5633 264.88 34.8882C258.894 35.8995 253.902 38.7704 249.563 42.881ZM381.217 104.23C382.636 98.0806 381.625 91.7515 379.586 88.9948C380.091 93.7742 380.646 99.0103 381.217 104.23ZM238.504 171.631C244.001 173.866 246.644 178.368 247.949 183.947C248.813 177.503 245.192 172.822 238.504 171.631ZM85.4655 188.122C91.2073 190.439 97.0307 191.744 103.115 189.607C100.146 189.378 97.1611 189.542 94.2087 189.346C91.2889 189.134 88.3853 188.546 85.4655 188.122ZM308.792 78.4573C310.472 80.8225 312.364 83.0736 313.751 85.6183C315.121 88.1303 315.969 90.9359 317.046 93.6111C317.127 87.0374 313.832 82.2743 308.792 78.4573ZM371.952 204.239C377.922 208.463 385.23 208.626 390.188 204.63C384.055 207.142 377.971 207.175 371.952 204.239ZM224.508 177.585C229.908 173.034 235.013 175.921 240.38 178.286C236.954 173.246 228.423 172.92 224.508 177.585ZM313.751 215.216C319.509 218.887 325.446 221.578 332.934 218.805C329.215 218.642 325.952 218.854 322.853 218.267C319.737 217.663 316.785 216.277 313.751 215.233V215.216ZM51.5856 159.25C47.3119 156.983 40.9992 158.924 37.639 163.818C42.141 160.425 46.7084 159.446 51.5856 159.25ZM40.5425 191.45C33.8872 190.602 27.9823 189.868 21.5391 189.052C27.7376 191.678 33.561 192.902 40.5425 191.45ZM301.093 78.6367C304.649 83.6771 307.813 88.1955 311.222 93.0239C309.477 87.0374 306.182 82.6005 301.093 78.6367ZM115.398 132.352C112.478 137.099 111.858 143.232 113.832 145.613C114.338 141.307 114.892 136.642 115.398 132.352ZM208.033 98.472C213.645 97.8359 219.076 95.9274 224.818 97.4281C219.011 94.9487 213.465 96.1394 208.033 98.472ZM381.021 191.45C377.775 190.553 375.149 189.949 372.588 189.101C369.945 188.22 367.548 186.589 364.611 186.622C369.799 188.595 374.317 192.722 381.021 191.45ZM196.191 160.147C197.643 161.958 199.192 163.703 200.53 165.612C201.9 167.569 203.058 169.69 204.298 171.745C203.596 166.444 200.579 162.757 196.191 160.164V160.147ZM375.785 179.134C373.485 179.134 371.12 179.428 368.885 179.053C366.765 178.694 364.774 177.617 362.736 176.867C366.487 180.57 370.794 181.565 375.785 179.151V179.134ZM247.166 35.8343C251.309 33.0449 255.452 30.2719 259.595 27.4826C254.473 28.8202 250.444 31.7726 247.166 35.8343ZM94.3066 157.064C88.9889 153.835 82.7577 155.221 80.4904 160.082C84.4052 155.776 89.3477 156.477 94.3066 157.064ZM129.801 167.308C134.124 162.937 139.262 164.307 144.922 165.563C139.784 161.762 133.602 162.578 129.801 167.308ZM519.705 196.523C515.79 198.203 511.859 198.905 507.749 197.175C512.153 200.617 516.345 200.438 519.705 196.523ZM365.117 182.185C369.228 184.648 373.11 185.594 378.297 184.55C373.55 183.702 369.701 183.017 365.117 182.185ZM156.178 73.2864C155.77 78.702 155.933 83.2367 159.375 87.9835C158.233 82.731 157.271 78.3595 156.178 73.2864ZM211.002 77.0382C206.011 76.4673 201.655 77.707 197.675 80.8389C202.259 79.5339 206.63 78.2779 211.002 77.0382ZM364.856 145.401C362.931 140.54 358.25 138.567 355.102 141.291C360.501 141.487 361.219 141.797 364.856 145.401ZM331.335 86.0913L334.679 98.994C335.217 94.2636 333.798 90.0388 331.335 86.0913ZM283.182 192.951C285.972 198.138 290.686 200.079 296.101 200.862C291.289 199.035 286.477 197.241 283.182 192.951ZM137.598 123.56C142.149 122.858 146.586 122.157 151.023 121.472C146.211 120.102 141.84 121.243 137.598 123.56ZM330.862 212.884C325.903 213.422 321.303 211.921 316.687 210.453C321.059 213.259 325.691 214.597 330.862 212.884ZM324.794 95.2586C324.745 90.4466 322.266 87.1353 318.775 84.2154C320.847 87.9998 322.82 91.6374 324.794 95.2586ZM274.064 219.278C278.452 219.066 282.823 219.229 286.2 215.885C282.155 217.011 278.109 218.153 274.064 219.278ZM306.41 20.7621C301.566 18.2337 297.08 18.9841 292.594 19.9628C297.015 20.2238 301.419 20.4684 306.41 20.7621ZM370.141 115.159C370.402 115.159 370.679 115.175 370.94 115.192C371.805 109.776 371.854 104.393 370.141 98.8962V115.159ZM202.357 189.542C204.102 193.489 207.903 197.192 210.268 197.844C207.968 195.43 205.179 192.51 202.357 189.542ZM324.451 86.0261C325.822 89.4842 327.176 92.926 328.546 96.3841C328.921 92.1267 327.012 88.8154 324.451 86.0261ZM359.995 108.944C361.186 104.181 360.289 100.152 357.826 96.955C358.462 100.495 359.196 104.507 359.995 108.944ZM174.414 47.8235C177.807 45.8498 181.2 43.8761 185.164 41.5598C180.156 42.0491 177.041 44.5285 174.414 47.8235ZM255.077 83.8239C250.673 85.9119 247.41 89.6147 246.774 92.6487C249.253 90.0062 252.059 87.0211 255.077 83.8239ZM430.577 200.34C434.426 203.749 437.934 204.565 441.163 202.999C437.852 202.167 434.165 201.253 430.577 200.34ZM231.669 171.794C226.091 170.832 223.562 171.99 221.866 176.068C224.149 173.018 227.673 172.659 231.669 171.794ZM311.891 184.387L312.495 183.702L304.355 178.449C306.215 181.386 308.874 183.115 311.891 184.387ZM257.442 32.5556C253.022 33.8116 250.412 35.6712 247.753 39.1456C251.292 36.7314 254.375 34.6435 257.442 32.5556ZM167.629 185.92C163.485 185.251 160.141 184.713 156.047 184.044C159.913 186.1 163.143 187.274 167.629 185.92ZM498.94 190.634C499.658 188.514 498.663 187.225 497.26 186.295C495.188 184.925 493.019 184.958 490.539 186.41C495.612 186.344 495.678 185.659 498.94 190.634ZM38.5524 187.274C34.2787 186.915 30.0213 186.556 25.7476 186.198C29.956 187.405 34.1808 188.302 38.5524 187.274ZM206.565 72.1283C202.243 71.4269 199.502 72.3404 196.484 75.4722C199.812 74.363 203.14 73.2538 206.565 72.1283ZM277.228 45.8661C272.237 45.2789 269.627 45.915 266.479 48.1008C270.067 47.3505 273.64 46.6165 277.228 45.8661ZM161.593 201.727C166.552 203.374 171.429 203.097 174.284 201.727H161.593ZM27.5745 182.381C30.4943 184.093 33.5447 184.762 36.8397 183.359C33.7567 183.033 30.6575 182.707 27.5745 182.381ZM360.713 148.207C357.255 144.879 355.069 144.472 353.112 146.511C355.526 147.049 358.087 147.62 360.713 148.207ZM131.481 116.056C134.76 114.98 138.022 113.903 141.562 112.745C137.549 112.517 134.157 113.381 131.481 116.056ZM65.6139 174.322C64.26 170.897 62.1068 168.515 58.7792 168.32C60.8998 170.179 63.2487 172.251 65.6139 174.322ZM194.282 162.839C195.979 165.677 197.382 168.026 198.948 170.652C199.127 166.917 197.137 164.862 194.282 162.839ZM217.739 102.42H225.797C223.073 100.642 220.447 100.56 217.739 102.42ZM220.463 52.3909C222.828 54.2504 225.21 56.11 227.95 58.2795C226.384 54.4788 223.807 52.8802 220.463 52.3909ZM130.421 184.811C127.42 186.344 124.418 187.861 121.417 189.395C124.989 189.003 128.154 187.78 130.421 184.811ZM84.0627 166.998C85.2208 166.607 86.3463 166.118 87.5371 165.824C88.679 165.547 89.8697 165.465 91.0279 165.302C88.1896 163.932 85.8407 164.535 84.0627 166.998ZM139.67 128.551C142.557 127.997 145.053 127.507 147.744 126.985C144.515 125.468 143.047 125.762 139.67 128.551ZM265.973 176.345C265.451 171.827 264.391 170.44 261.553 169.723C262.825 171.631 264.212 173.719 265.973 176.345ZM468.355 181.842C467.132 178.678 465.957 178.107 462.124 178.596C463.935 179.542 466.088 180.652 468.355 181.842ZM425.83 157.668C425.83 153.329 425.047 152.04 422.127 150.507C423.4 152.97 424.607 155.319 425.83 157.668ZM283.982 220.632C283.867 220.371 283.737 220.126 283.623 219.865C280.85 220.73 278.093 221.594 275.32 222.459C278.452 222.753 281.372 222.247 283.982 220.632ZM238.716 44.4796C239.613 45.5236 241.375 47.5952 243.137 49.6668C242.174 46.8122 239.939 45.2463 238.716 44.4796ZM187.937 115.241C186.094 119.547 186.012 121.7 187.448 124.212C187.594 121.374 187.758 118.601 187.937 115.241ZM485.939 192.233C482.922 191.548 480.475 190.977 477.425 190.276C480.149 192.445 482.465 193.619 485.939 192.233ZM228.994 51.9831C231.147 53.5327 233.317 55.0823 235.47 56.632C234.181 53.7448 231.995 52.2278 228.994 51.9831ZM377.155 202.591C381.641 204.63 381.918 204.663 385.311 203.7C382.489 203.309 379.83 202.95 377.155 202.591ZM120.536 184.925C123.44 185.186 125.511 184.077 126.914 181.761C124.794 182.821 122.657 183.865 120.536 184.925ZM262.27 41.2498C262.075 40.9725 261.879 40.7115 261.683 40.4342C259.432 41.8208 257.197 43.2073 254.946 44.6101C255.109 44.8711 255.256 45.1158 255.419 45.3767C257.703 44.0065 259.987 42.62 262.27 41.2498ZM405.929 203.912C409.534 201.661 409.73 201.368 409.91 198.513C408.49 200.438 407.202 202.167 405.929 203.912ZM378.428 118.78C378.183 118.813 377.938 118.846 377.677 118.878C377.857 120.705 378.052 122.532 378.232 124.359C378.542 124.326 378.852 124.278 379.162 124.245C378.917 122.434 378.672 120.607 378.428 118.797V118.78ZM92.8222 160.996C90.0981 160.294 87.2272 159.886 83.7364 161.909C87.3251 161.55 90.0818 161.273 92.8222 160.996ZM320.112 75.3907C320.276 75.1786 320.439 74.9829 320.602 74.7708C319.101 73.4006 317.584 72.0304 316.083 70.6602C316.018 70.7581 315.937 70.8397 315.871 70.9375L320.112 75.3907ZM119.133 134.554C117.062 138.762 116.915 140.655 118.155 143.575C118.448 140.85 118.726 138.192 119.133 134.554ZM439.597 189.134C438.831 187.16 437.591 185.529 434.948 185.561C435.275 185.251 435.601 184.942 435.911 184.632C437.167 186.181 438.439 187.731 439.581 189.134H439.597ZM350.714 221.464C353.177 220.583 354.596 218.87 355.053 216.391C353.601 218.087 352.149 219.784 350.714 221.464ZM382.603 126.349C382.946 126.316 383.289 126.284 383.647 126.268C383.386 124.506 383.125 122.744 382.864 120.999C382.652 121.031 382.457 121.048 382.245 121.08C382.359 122.842 382.489 124.604 382.603 126.365V126.349ZM204.673 163.491C205.505 165.71 206.337 167.912 207.446 170.881C207.723 167.325 206.663 165.123 204.673 163.491ZM324.99 72.6829C323.146 69.1106 322.298 68.3113 319.574 67.7078C321.434 69.4205 323.032 70.8886 324.99 72.6829ZM372.05 46.0945C371.772 46.2902 371.511 46.5023 371.234 46.698C372.164 48.6228 373.094 50.5476 374.007 52.4724C374.284 52.3419 374.545 52.2114 374.823 52.0809C373.893 50.0909 372.963 48.0845 372.05 46.0945ZM413.025 180.244C412.846 176.9 412.552 176.671 409.502 177.063C410.464 177.944 411.671 179.02 413.025 180.244ZM196.68 153.329C196.501 153.525 196.338 153.721 196.158 153.916C197.626 155.221 199.078 156.526 200.546 157.831C200.677 157.684 200.807 157.538 200.938 157.391C199.518 156.037 198.099 154.683 196.68 153.329ZM102.985 153.818C103.311 153.851 103.621 153.884 103.947 153.933V149.643L103.343 149.61C103.229 151.013 103.115 152.432 102.985 153.835V153.818ZM68.3869 172.969C67.4571 169.217 67.033 168.711 64.5373 168.026C65.7281 169.559 66.8862 171.027 68.3869 172.969ZM445.731 167.031C446.013 164.791 445.404 162.833 443.904 161.159C444.621 163.459 445.176 165.237 445.731 167.031ZM145.281 118.568C145.232 118.291 145.2 118.03 145.151 117.753C142.949 118.095 140.747 118.454 138.544 118.797C138.577 119.041 138.61 119.286 138.659 119.514C140.861 119.188 143.079 118.878 145.281 118.552V118.568ZM300.065 86.9069C301.109 88.0324 302.202 89.2069 303.279 90.365C303.458 90.2019 303.637 90.0551 303.801 89.892C302.545 88.8969 301.305 87.9019 300.049 86.9069H300.065ZM327.616 115.241C327.877 115.143 328.122 115.061 328.383 114.963C327.795 113.332 327.192 111.701 326.605 110.086C326.36 110.168 326.115 110.266 325.871 110.347C326.458 111.978 327.029 113.61 327.616 115.241ZM347.663 47.22C347.468 47.3831 347.272 47.5625 347.076 47.7257C347.924 49.2753 348.773 50.8086 349.621 52.3582C349.816 52.2441 350.029 52.1462 350.224 52.032C349.376 50.4334 348.512 48.8186 347.663 47.22ZM240.478 53.7611C240.641 53.598 240.804 53.4348 240.983 53.2717C239.76 52.1462 238.52 51.0207 237.297 49.8952C237.215 49.993 237.117 50.0909 237.036 50.2051C238.194 51.3958 239.336 52.5703 240.494 53.7611H240.478ZM404.396 137.392C404.266 137.164 404.152 136.936 404.021 136.707C402.406 137.572 400.808 138.42 399.193 139.284C399.307 139.497 399.421 139.709 399.535 139.921C401.15 139.089 402.765 138.241 404.38 137.409L404.396 137.392ZM375.116 114.686C374.969 114.686 374.823 114.686 374.692 114.702V121.064C374.937 121.064 375.198 121.048 375.443 121.031C375.328 118.911 375.23 116.79 375.116 114.67V114.686ZM11.5236 184.86C11.8335 184.713 12.1434 184.55 12.437 184.403C11.8661 183.164 11.2952 181.94 10.7406 180.7L10.0392 181.01C10.5285 182.299 11.0342 183.571 11.5236 184.86ZM136.979 167.227C136.93 167.423 136.881 167.635 136.832 167.83C138.088 168.303 139.327 168.76 140.583 169.233C140.681 168.923 140.763 168.613 140.861 168.303C139.572 167.945 138.284 167.569 136.995 167.21L136.979 167.227ZM122.33 136.642C122.037 136.593 121.727 136.528 121.433 136.479C121.123 138.143 120.83 139.806 120.52 141.487C120.797 141.536 121.074 141.584 121.368 141.65C121.694 139.986 122.004 138.322 122.33 136.658V136.642ZM182.636 155.596C181.342 154.846 180.096 154.786 178.9 155.417C180.124 155.466 181.265 155.531 182.636 155.596ZM386.763 125.713C386.665 125.746 386.551 125.795 386.453 125.827V130.297C386.551 130.297 386.665 130.28 386.763 130.264V125.713ZM154.53 51.4122C154.726 51.5916 154.905 51.7873 155.101 51.9668C155.884 50.7107 156.683 49.4547 157.466 48.1987C157.271 48.0682 157.075 47.9377 156.863 47.8072C156.08 48.998 155.297 50.2051 154.53 51.3958V51.4122ZM304.062 73.7595C303.931 73.9552 303.784 74.1673 303.654 74.363C304.6 75.0971 305.562 75.8148 306.508 76.5488C306.655 76.3531 306.786 76.1573 306.932 75.9453L304.062 73.7595ZM73.0521 164.959C73.2316 163.345 72.7259 162.317 70.5564 161.958C71.6493 163.279 72.3507 164.111 73.0521 164.959ZM297.684 77.1687C297.798 76.9729 297.912 76.7772 298.01 76.5815C297.096 76.1737 296.183 75.7659 295.269 75.3581C295.22 75.4722 295.172 75.5864 295.123 75.7006C295.971 76.19 296.835 76.6793 297.684 77.1687ZM321.368 8.20189C321.368 8.20189 321.368 8.05508 321.368 7.97352H318.498C318.498 7.97352 318.498 8.12033 318.498 8.20189H321.368ZM147.174 132.792C145.526 130.9 144.319 131.275 143.047 132.091C144.172 132.287 145.298 132.482 147.174 132.792ZM46.6921 164.878C46.6431 164.617 46.5942 164.356 46.5616 164.111C45.9907 164.176 45.3545 164.111 44.8488 164.323C44.3105 164.535 43.8538 165.008 43.3808 165.351C43.4786 165.514 43.5928 165.661 43.6907 165.824L46.7084 164.878H46.6921ZM332.379 113.789C332.575 113.724 332.771 113.658 332.966 113.577C332.656 112.696 332.346 111.815 332.004 110.951C331.971 110.885 331.678 110.918 331.254 110.885C331.661 111.946 332.02 112.859 332.379 113.789Z" fill="white"/>
<path d="M57.1807 146.445C55.0601 146.674 52.9396 146.886 50.819 147.114C50.819 146.804 50.8027 146.494 50.7864 146.184C52.9069 146.299 55.0275 146.396 57.148 146.494C57.1643 146.494 57.1643 146.445 57.1643 146.445H57.1807Z" fill="white"/>
<path d="M45.2729 146.494H47.6545C47.6545 146.576 47.6545 146.657 47.6545 146.755H45.2729C45.2729 146.674 45.2729 146.592 45.2729 146.494Z" fill="white"/>
<path d="M41.929 196.719C43.2666 196.653 44.6205 196.588 45.958 196.523C45.958 196.751 45.9254 196.963 45.9091 197.192C44.5715 197.029 43.2339 196.866 41.8964 196.686C41.8801 196.686 41.929 196.719 41.929 196.719Z" fill="white"/>
<path d="M341.644 102.795C338.887 101.506 338.773 99.777 338.414 98.1458C335.658 85.2104 330.046 73.7431 320.553 64.429C310.391 54.4624 297.928 50.3682 283.802 51.2164C280.295 51.4284 276.772 51.7873 273.314 52.3745C270.899 52.7823 268.436 53.4185 266.218 54.4298C252.222 60.873 242.745 71.4595 237.868 86.0913C236.661 89.7288 236.025 93.4153 236.905 97.2486C237.02 97.7053 236.824 98.2273 236.759 98.8472C234.605 99.206 233.578 97.7706 232.517 96.5472C228.407 91.7678 223.089 89.2068 216.972 88.3097C210.953 87.4125 205.195 88.7012 200.171 91.9799C191.966 97.2976 186.485 104.703 184.593 114.507C184.381 115.6 184.022 116.66 183.109 117.753C182.929 117.1 182.505 116.415 182.587 115.795C182.946 113.104 183.011 110.266 183.973 107.786C187.382 99.0592 193.434 92.2245 201.802 88.3586C213.057 83.1714 223.888 85.0473 233.953 93.138C234.312 91.8494 234.703 90.6912 234.948 89.5168C237.476 77.1197 243.528 66.729 253.772 59.3723C263.135 52.6355 273.297 47.2852 285.531 48.4433C285.923 48.476 286.314 48.4433 286.706 48.4433C305.676 48.1987 319.933 56.583 330.226 72.2261C334.19 78.2615 337.061 84.8026 339.148 91.7189C339.866 94.0841 340.633 96.4493 341.253 98.8309C341.53 99.8911 341.497 101.033 341.677 102.795H341.644Z" fill="black"/>
<path d="M217.804 171.223C216.76 169.233 215.749 167.732 215.145 166.085C212.894 159.805 209.159 154.552 204.477 149.904C196.99 142.465 188.1 140.1 177.905 142.628C172.261 144.015 167.123 146.478 162.523 150.05C158.837 152.921 155.884 156.233 154.922 161.045C154.579 162.741 153.551 164.307 152.622 166.444C150.322 164.421 148.495 162.79 146.635 161.208C142.443 157.652 138.349 157.309 132.623 160.408C138.74 159.054 143.748 159.25 147.255 164.649C144.384 163.361 141.807 161.746 139.001 161.093C135.886 160.376 132.607 161.24 130.291 163.557C128.17 165.677 126.572 168.303 124.451 170.669C125.185 168.842 125.935 166.998 126.669 165.171C126.506 165.074 126.343 164.959 126.18 164.862C124.826 167.064 123.489 169.266 122.135 171.468L121.368 171.321C121.238 170.554 120.846 169.706 121.025 169.021C121.352 167.781 121.857 166.509 122.608 165.481C127.208 159.152 133.504 155.988 141.318 155.841C143.356 155.808 145.118 156.51 146.668 157.864C148.217 159.234 149.881 160.474 151.904 162.072C152.671 160.294 153.388 158.957 153.845 157.521C154.971 153.9 157.107 151.062 160.044 148.713C166.422 143.64 173.664 140.296 181.722 139.513C190.498 138.648 198.523 141.193 205.195 147.179C209.909 151.404 213.579 156.445 216.287 162.17C216.842 163.328 217.413 164.486 217.82 165.286C221.703 163.834 225.291 162.317 228.994 161.142C236.481 158.745 243.169 160.311 248.797 165.824C252.695 169.625 255.061 174.453 257.083 179.412C257.393 180.178 257.034 181.19 256.985 182.103C256.675 182.168 256.382 182.234 256.072 182.315C255.338 181.141 254.555 180.015 253.886 178.792C252.695 176.622 251.668 174.371 250.461 172.202C246.122 164.47 239.907 161.567 231.147 163.1C225.21 164.144 222.828 165.547 217.837 171.223H217.804Z" fill="black"/>
<path d="M387.448 156.428C386.241 153.362 385.197 150.426 383.957 147.571C381.266 141.405 377.335 136.071 372.686 131.226C368.037 126.382 362.311 123.951 355.624 123.576C348.512 123.168 341.546 124.049 334.777 126.17C332.836 126.773 331.025 127.915 329.263 128.975C326.702 130.525 324.19 132.172 321.711 133.869C318.579 136.022 315.561 138.289 314.224 142.106C313.963 142.824 313.131 143.346 312.56 143.95C312.283 143.835 312.022 143.738 311.744 143.623C311.989 142.351 311.956 140.932 312.527 139.839C313.294 138.371 314.354 136.919 315.594 135.826C324.81 127.785 334.989 121.912 347.614 121.015C364.024 119.841 375.916 126.594 383.501 140.932C385.67 145.043 386.959 149.626 388.59 153.998C388.932 154.911 389.454 156.086 387.432 156.428H387.448Z" fill="black"/>
<path d="M426.434 177.634C428.375 176.998 430.446 176.28 432.534 175.66C438.733 173.784 444.344 174.959 449.499 178.857C451.146 180.097 452.255 181.549 452.679 183.588C453.055 185.382 453.626 187.127 454.18 189.15C451.733 189.248 451.016 187.894 450.82 186.54C450.151 182.25 447.166 180.13 443.708 178.384C440.217 176.622 436.596 176.851 433.056 178.042C430.234 178.988 427.559 180.358 424.476 181.679C424.15 180.749 423.84 179.82 423.497 178.922C422.796 177.096 422.209 175.22 421.328 173.491C418.163 167.227 410.35 165.84 404.902 170.473C403.678 171.517 402.341 172.414 401.052 173.393C400.84 173.213 400.628 173.034 400.4 172.871C400.612 172.218 400.644 171.435 401.036 170.946C404.527 166.493 413.302 164.128 418.457 166.395C419.778 166.982 421.067 168.157 421.85 169.38C423.514 171.974 424.851 174.779 426.417 177.683L426.434 177.634Z" fill="black"/>
<path d="M308.123 63.2546C307.389 62.8468 306.639 62.4716 305.937 62.0149C293.002 53.8426 279.692 53.7121 266.136 60.2695C258.274 64.0702 251.733 69.5999 245.893 75.9942C245.371 76.5651 244.833 77.1197 243.903 77.4297C244.425 76.6467 244.866 75.8148 245.469 75.0971C253.478 65.4404 262.939 57.9532 275.467 55.0986C284.667 53.0107 293.622 53.6469 302.072 58.0348C304.404 59.2419 306.459 60.9709 308.629 62.4716C308.466 62.7326 308.303 62.9773 308.123 63.2383V63.2546Z" fill="black"/>
<path d="M268.632 221.023C242.272 224.743 213.938 215.07 202.014 197.518C203.221 198.758 204.396 200.063 205.652 201.253C215.618 210.763 227.689 216.081 241.098 218.202C248.666 219.392 256.398 219.572 264.048 220.159C265.549 220.273 267.066 220.175 268.583 220.175C268.583 220.453 268.599 220.73 268.616 221.023H268.632Z" fill="black"/>
<path d="M384.74 55.1965C395.751 70.0403 404.233 109.434 398.866 121.814C399.519 97.9827 395.098 75.9616 384.74 55.1965Z" fill="black"/>
<path d="M61.1281 193.049C63.0692 193.701 64.2437 194.109 65.4345 194.484C71.894 196.458 78.223 199.198 84.8293 200.258C101.696 202.95 117.747 200.356 132.167 190.52C132.493 190.308 132.819 190.112 133.162 189.917C133.259 189.868 133.39 189.868 134.14 189.705C133.357 190.651 132.95 191.336 132.362 191.842C126.865 196.49 120.357 198.986 113.44 200.666C95.5463 204.989 78.5819 202.151 62.27 194.109C62.0742 194.011 61.9274 193.799 61.1118 193.049H61.1281Z" fill="black"/>
<path d="M240.396 89.37C241.946 86.7111 243.365 83.9544 245.061 81.4097C250.738 72.9112 257.899 66.0113 267.262 61.6397C274.374 58.3284 281.698 57.3497 289.25 60.1064C289.984 60.3674 290.702 60.6773 291.404 61.0198C291.974 61.2971 292.513 61.6397 292.953 62.3737C292.317 62.2759 291.648 62.2595 291.045 62.0638C280.638 58.6057 270.965 60.3837 262.009 66.3701C254.098 71.6715 247.867 78.6367 242.859 86.7111C242.239 87.7061 241.668 88.7175 241.081 89.7288C240.853 89.6146 240.624 89.4841 240.396 89.37Z" fill="black"/>
<path d="M190.286 190.357C177.889 204.402 151.839 202.509 139.98 188.481C147.32 194.207 155.362 198.056 164.823 198.203C174.153 198.35 182.407 195.169 190.286 190.357Z" fill="black"/>
<path d="M303.849 6.78275C300.016 7.4026 296.868 7.92458 293.703 8.41394C280.05 10.5834 267.294 15.2649 255.354 22.1975C249.433 25.623 244.164 29.8152 239.858 35.3449C240.151 34.6272 240.347 33.8442 240.788 33.2244C243.512 29.3421 246.937 26.1287 250.917 23.584C265.957 13.9437 282.252 7.84302 300.13 6.29339C300.913 6.22814 301.696 6.21183 302.463 6.22814C302.675 6.22814 302.871 6.39126 303.833 6.79906L303.849 6.78275Z" fill="black"/>
<path d="M305.464 143.623C310.276 129.041 340.388 113.022 354.335 117.671C333.7 118.552 317.649 126.822 305.464 143.623Z" fill="black"/>
<path d="M222.518 35.8506C221.784 35.6549 221.001 35.5733 220.332 35.2471C203.596 27.3032 187.252 28.4776 171.234 37.3513C170.239 37.9059 169.244 38.4279 167.857 38.5421C168.216 38.1669 168.526 37.7265 168.95 37.4329C184.495 26.0634 205.75 25.9656 221.523 34.8229C221.915 35.0513 222.159 35.557 222.469 35.9322L222.535 35.8506H222.518Z" fill="black"/>
<path d="M331.433 10.2735C348.593 14.6125 362.768 23.2741 372.506 38.4279C361.121 25.6883 347.924 15.5749 331.433 10.2735Z" fill="black"/>
<path d="M346.831 228.168C337.387 236.813 311.108 237.89 300.31 225.444C315.219 236.422 330.911 234.334 346.831 228.168Z" fill="black"/>
<path d="M273.379 213.014C259.644 216.57 236.824 214.809 226.727 207.778C227.151 207.68 227.493 207.485 227.673 207.582C236.775 212.101 246.546 213.194 256.512 213.177C261.194 213.177 265.875 212.965 270.557 212.868C271.258 212.868 271.943 212.949 273.363 213.031L273.379 213.014Z" fill="black"/>
<path d="M102.919 141.813C102.316 121.635 125.789 104.181 139.197 107.444C120.34 109.271 108.759 120.085 102.919 141.813Z" fill="black"/>
<path d="M460.721 197.942C454.196 210.731 430.512 211.514 421.98 199.378C435.405 210.307 447.884 208.757 460.721 197.942Z" fill="black"/>
<path d="M113.343 197.094C97.0633 201.808 81.8116 198.986 67.343 190.651C82.0237 197.665 97.4058 199.459 113.343 197.094Z" fill="black"/>
<path d="M389.52 81.4587C394.185 97.6728 395.881 114.115 393.418 130.884C393.745 114.278 392.929 97.7543 389.52 81.4587Z" fill="black"/>
<path d="M441.294 155.776C438.407 149.202 434.492 143.477 428.277 139.594C422.029 135.696 415.244 134.733 408.034 135.973C422.584 130.867 439.173 140.704 441.294 155.776Z" fill="black"/>
<path d="M257.573 52.081C245.697 59.7476 237.085 69.9262 233.105 84.5906C232.338 72.9439 246.432 54.6093 257.573 52.081Z" fill="black"/>
<path d="M251.749 181.761C250.346 173.67 245.29 169.331 237.835 167.471C230.218 165.579 224.476 169.119 218.995 174.045C219.386 173.376 219.68 172.61 220.186 172.022C227.51 163.654 241.848 163.818 248.993 172.316C251.293 175.056 252.239 177.895 251.766 181.761H251.749Z" fill="black"/>
<path d="M61.3075 156.934C44.2127 152.595 37.6063 155.025 29.5482 168.858C29.5482 164.176 34.3113 158.108 40.5098 155.27C47.7523 151.975 54.7828 152.203 61.3075 156.934Z" fill="black"/>
<path d="M333.358 138.469C336.278 135.68 339.931 134.848 343.602 134.163C349.539 133.053 355.526 132.825 361.349 134.685C366.014 136.169 369.701 138.844 370.859 144.455C370.337 144.129 369.978 144.048 369.88 143.836C367.58 138.681 363.241 136.348 358.021 135.37C350.812 133.999 343.797 135.06 336.914 137.343C335.739 137.735 334.549 138.094 333.374 138.469H333.358Z" fill="black"/>
<path d="M327.453 135.337C327.632 135.011 327.73 134.587 327.991 134.391C337.811 127.279 348.609 124.669 360.517 127.605C361.724 127.899 362.833 128.502 363.812 129.644C361.724 129.351 359.653 129.09 357.565 128.78C347.516 127.328 338.105 129.041 329.459 134.505C328.839 134.897 328.056 135.011 327.355 135.255L327.437 135.337H327.453Z" fill="black"/>
<path d="M187.97 145.858C173.061 143.77 163.502 150.98 156.895 164.079C158.885 150.605 177.041 140.116 187.97 145.858Z" fill="black"/>
<path d="M368.787 213.667C380.809 219.294 391.771 217.451 401.835 209.051C396.664 218.511 378.754 221.072 368.787 213.667Z" fill="black"/>
<path d="M188.443 36.9761C201.476 32.5556 220.854 34.9697 227.624 47.3015C216.564 36.1605 203.221 34.0236 188.443 36.9761Z" fill="black"/>
<path d="M381.119 75.9453C386.339 88.8806 388.476 102.256 386.437 116.17C386.404 102.534 385.067 89.0763 381.119 75.9453Z" fill="black"/>
<path d="M225.65 93.7905C223.399 93.2685 221.164 92.5345 218.881 92.2572C210.659 91.2459 203.89 94.4104 198.034 99.9075C196.272 101.555 194.755 103.447 193.092 105.29C192.994 104.932 192.814 104.638 192.896 104.475C197.985 93.9536 212.225 88.2118 223.122 92.3061C224.019 92.6324 224.753 93.3664 225.569 93.9047L225.634 93.8231L225.65 93.7905Z" fill="black"/>
<path d="M192.798 88.3749C193.45 87.6572 194.005 86.7601 194.788 86.2381C203.254 80.7083 212.535 79.2076 222.42 80.7083C222.877 80.7736 223.285 81.1161 223.611 81.8502C220.708 81.8502 217.788 81.7523 214.884 81.8665C207.495 82.1438 200.497 83.8892 194.152 87.853C193.744 88.1139 193.206 88.1466 192.716 88.2934L192.798 88.3749Z" fill="black"/>
<path d="M138.332 153.753C125.74 155.939 117.763 162.659 114.517 174.649C114.126 162.627 128.937 151.274 138.332 153.753Z" fill="black"/>
<path d="M318.628 15.2323C306.998 13.2749 295.416 12.8508 283.835 15.1997C295.449 11.5458 307.063 11.2848 318.628 15.2323Z" fill="black"/>
<path d="M210.529 46.1271C196.175 42.3101 190.547 43.4519 177.383 52.5866C181.608 44.0228 202.585 39.0314 210.529 46.1271Z" fill="black"/>
<path d="M146.342 66.6312C144.939 79.0772 146.586 91.1969 150.191 103.105C144.629 91.409 143.732 79.2077 146.342 66.6312Z" fill="black"/>
<path d="M501.093 199.035C492.089 207.289 475.81 206.017 468.779 196.458C473.494 199.949 478.273 203.227 484.471 203.211C490.344 203.195 495.727 201.368 501.093 199.035Z" fill="black"/>
<path d="M258.241 162.594C248.471 153.476 237.493 151.192 224.427 156.706C234.736 148.941 252.761 153.019 258.241 162.594Z" fill="black"/>
<path d="M386.241 139.741C384.626 137.392 383.158 134.945 381.38 132.727C378.95 129.693 376.47 126.675 373.665 124C370.321 120.803 366.194 118.96 361.545 118.34C365.15 117.802 368.298 119.156 371.267 120.885C378.623 125.158 383.125 131.863 386.828 139.203C386.632 139.382 386.437 139.562 386.241 139.741Z" fill="black"/>
<path d="M366.65 49.8788C366.308 49.5526 365.835 49.2753 365.672 48.8675C361.512 39.0966 354.71 31.3322 347.011 24.2528C346.603 23.8776 345.951 23.7308 345.412 23.4861C345.657 23.2088 345.918 22.9315 346.163 22.6379C346.668 22.9315 347.223 23.1599 347.696 23.5188C356.309 30.0272 362.279 38.5257 366.422 48.4107C366.618 48.8675 366.536 49.4221 366.585 49.9278L366.667 49.8625L366.65 49.8788Z" fill="black"/>
<path d="M370.027 210.356C374.301 210.6 378.966 211.432 383.501 210.975C387.889 210.535 392.146 208.757 396.469 207.55C390.939 213.243 378.297 214.45 370.011 210.339L370.027 210.356Z" fill="black"/>
<path d="M433.252 157.048C432.599 155.368 431.963 153.704 431.295 152.024C428.701 145.401 424.395 140.279 414.885 141.47C414.281 141.552 413.678 141.47 412.666 141.47C422.372 137.164 432.502 144.211 433.252 157.032V157.048Z" fill="black"/>
<path d="M265.924 163.328C259.53 151.078 249.286 146.25 235.78 147.685C248.128 144.733 261.455 150.132 265.924 163.328Z" fill="black"/>
<path d="M342.753 30.7776C351.121 37.2208 356.031 46.1271 359.995 55.7022C354.792 47.0406 350.11 38.0038 342.753 30.7776Z" fill="black"/>
<path d="M210.007 166.705C206.418 159.381 202.422 153.313 195.555 148.778C202.504 150.686 209.534 159.348 210.007 166.705Z" fill="black"/>
<path d="M341.024 222.051C335.788 226.961 322.983 228.07 315.154 224.384C319.215 224.612 323.685 225.379 328.073 224.987C332.493 224.596 336.816 223.046 341.024 222.035V222.051Z" fill="black"/>
<path d="M154.905 94.5898C149.653 87.7877 149.522 80.1864 151.692 72.2588C150.485 80.0396 152.442 87.3147 154.905 94.5898Z" fill="black"/>
<path d="M271.666 89.0275C264.75 91.8168 258.812 95.6827 255.093 102.371C256.463 95.6827 264.309 89.2721 271.666 89.0275Z" fill="black"/>
<path d="M418.604 180.929C414.069 171.615 410.709 170.767 403.091 176.361C404.412 173.197 408.882 170.864 412.405 171.501C415.88 172.137 418.392 175.676 418.604 180.929Z" fill="black"/>
<path d="M288.663 187.992C294.079 194.647 302.039 195.838 309.657 197.746C301.664 198.839 291.599 194.207 288.663 187.992Z" fill="black"/>
<path d="M110.896 132.499C108.547 140.002 109.199 147.799 108.661 155.482C107.34 147.636 107.389 139.921 110.896 132.499Z" fill="black"/>
<path d="M295.041 183.49C301.272 187.91 308.221 190.52 315.464 192.461C307.389 192.282 300.701 188.954 295.041 183.49Z" fill="black"/>
<path d="M363.845 92.355C366.226 99.0592 368.184 105.976 366.52 114.148C365.557 106.318 364.709 99.3365 363.845 92.355Z" fill="black"/>
<path d="M171.022 139.757C164.872 141.552 158.788 143.33 154.139 148.06C157.238 142.579 166.797 137.931 171.022 139.757Z" fill="black"/>
<path d="M125.479 114.849C129.981 110.119 135.625 108.553 142.068 109.548C139.23 110.102 136.31 110.396 133.569 111.277C130.78 112.174 128.17 113.642 125.479 114.866V114.849Z" fill="black"/>
<path d="M86.0527 203.619H106.116C99.4612 205.397 92.7896 205.217 86.0527 203.619Z" fill="black"/>
<path d="M379.504 145.711C376.242 140.818 373.028 135.843 367.874 132.564C373.811 135.06 377.906 139.235 379.504 145.711Z" fill="black"/>
<path d="M460.95 174.062C461.031 173.817 461.031 173.425 461.178 173.376C467.703 170.783 475.435 174.567 477.457 181.598C473.102 176.41 468.355 172.104 460.868 173.996L460.95 174.062Z" fill="black"/>
<path d="M433.415 181.01C433.464 180.896 433.48 180.684 433.562 180.652C439.287 178.384 446.693 182.951 447.215 189.085C447.215 189.15 447.052 189.248 446.677 189.59C443.953 184.028 439.875 180.505 433.35 180.929L433.431 181.01H433.415Z" fill="black"/>
<path d="M13.3179 176.443C11.6867 176.802 10.1207 176.932 8.71791 177.471C5.45553 178.743 4.77043 181.598 6.98885 184.305C7.93494 185.464 9.06046 186.491 10.4144 187.894C6.04276 186.442 3.92221 183.376 4.67256 180.113C5.40659 176.965 8.26118 175.725 13.3179 176.443Z" fill="black"/>
<path d="M491.551 196.18C486.233 199.932 479.937 198.953 474.146 193.407C479.594 196.523 485.189 198.578 491.551 196.18Z" fill="black"/>
<path d="M187.66 149.284C181.396 147.408 176.062 148.419 171.168 152.579C172.62 149.724 175.344 147.946 179.096 147.228C182.636 146.543 184.903 147.033 187.66 149.3V149.284Z" fill="black"/>
<path d="M251.08 97.3954C253.413 91.5884 256.072 86.2218 262.858 84.9658C260.59 86.8253 258.127 88.5054 256.137 90.6097C254.212 92.6324 252.744 95.1118 251.08 97.3954Z" fill="black"/>
<path d="M226.629 203.309C232.126 204.744 237.639 206.196 243.137 207.631C237.003 208.398 231.669 206.326 226.629 203.309Z" fill="black"/>
<path d="M249.563 42.881C253.902 38.7704 258.894 35.8995 264.88 34.8882C259.775 37.547 254.669 40.2059 249.563 42.881Z" fill="black"/>
<path d="M381.217 104.23C380.662 98.994 380.108 93.7742 379.586 88.9948C381.625 91.7515 382.636 98.0969 381.217 104.23Z" fill="black"/>
<path d="M238.504 171.631C245.192 172.805 248.829 177.487 247.949 183.946C246.644 178.368 244.001 173.882 238.504 171.631Z" fill="black"/>
<path d="M85.4655 188.122C88.369 188.546 91.2725 189.134 94.2087 189.346C97.1611 189.558 100.146 189.395 103.115 189.607C97.0306 191.727 91.2073 190.422 85.4655 188.122Z" fill="black"/>
<path d="M308.792 78.4573C313.832 82.2743 317.127 87.0374 317.046 93.6111C315.969 90.9359 315.121 88.1303 313.751 85.6182C312.364 83.0899 310.472 80.8388 308.792 78.4573Z" fill="black"/>
<path d="M371.952 204.239C377.971 207.175 384.055 207.126 390.188 204.63C385.23 208.626 377.922 208.463 371.952 204.239Z" fill="black"/>
<path d="M224.508 177.585C228.423 172.903 236.954 173.23 240.38 178.286C234.997 175.921 229.891 173.034 224.508 177.585Z" fill="black"/>
<path d="M313.751 215.217C316.785 216.26 319.737 217.663 322.853 218.251C325.952 218.838 329.215 218.626 332.934 218.789C325.43 221.562 319.493 218.87 313.751 215.2V215.217Z" fill="black"/>
<path d="M51.5856 159.25C46.7084 159.446 42.141 160.408 37.6389 163.818C40.9992 158.94 47.3119 156.999 51.5856 159.25Z" fill="black"/>
<path d="M40.5425 191.45C33.561 192.902 27.7376 191.678 21.5391 189.052C27.9823 189.868 33.8872 190.618 40.5425 191.45Z" fill="black"/>
<path d="M301.093 78.6367C306.182 82.6168 309.477 87.0537 311.222 93.0238C307.83 88.1955 304.649 83.6771 301.093 78.6367Z" fill="black"/>
<path d="M115.398 132.352C114.892 136.642 114.338 141.323 113.832 145.614C111.858 143.232 112.478 137.099 115.398 132.352Z" fill="black"/>
<path d="M208.033 98.472C213.449 96.1394 219.011 94.9487 224.818 97.4281C219.093 95.9274 213.645 97.8359 208.033 98.472Z" fill="black"/>
<path d="M381.021 191.45C374.317 192.722 369.799 188.595 364.611 186.622C367.548 186.589 369.945 188.22 372.588 189.101C375.149 189.949 377.775 190.569 381.021 191.45Z" fill="black"/>
<path d="M196.191 160.147C200.579 162.741 203.613 166.428 204.298 171.729C203.042 169.674 201.9 167.569 200.53 165.596C199.209 163.687 197.643 161.958 196.191 160.131V160.147Z" fill="black"/>
<path d="M375.785 179.135C370.794 181.549 366.487 180.57 362.736 176.851C364.774 177.617 366.781 178.678 368.885 179.037C371.12 179.412 373.485 179.118 375.785 179.118V179.135Z" fill="black"/>
<path d="M144.971 187.013C149.718 188.938 154.465 190.863 159.212 192.771C153.812 192.445 148.772 191.287 145.02 186.948L144.971 187.013Z" fill="black"/>
<path d="M247.166 35.8342C250.461 31.7726 254.49 28.8201 259.595 27.4825C255.452 30.2719 251.309 33.0449 247.166 35.8342Z" fill="black"/>
<path d="M94.3066 157.064C89.3478 156.494 84.4216 155.776 80.4904 160.082C82.7414 155.221 88.9889 153.835 94.3066 157.064Z" fill="black"/>
<path d="M303.898 183.898C309.004 185.447 314.093 186.997 319.101 188.514C314.436 188.481 309.705 188.057 305.481 185.415C304.877 185.039 304.469 184.354 303.98 183.816L303.915 183.898H303.898Z" fill="black"/>
<path d="M129.801 167.308C133.602 162.578 139.784 161.762 144.922 165.563C139.262 164.307 134.124 162.937 129.801 167.308Z" fill="black"/>
<path d="M519.705 196.523C516.345 200.438 512.153 200.617 507.749 197.175C511.859 198.905 515.79 198.203 519.705 196.523Z" fill="black"/>
<path d="M365.117 182.185C369.684 183 373.534 183.686 378.297 184.55C373.11 185.594 369.244 184.664 365.117 182.185Z" fill="black"/>
<path d="M156.178 73.2865C157.287 78.3595 158.233 82.7311 159.375 87.9835C155.933 83.2367 155.77 78.702 156.178 73.2865Z" fill="black"/>
<path d="M211.002 77.0382C206.63 78.2942 202.259 79.5339 197.675 80.8389C201.655 77.6907 206.011 76.451 211.002 77.0382Z" fill="black"/>
<path d="M364.856 145.401C361.202 141.796 360.484 141.487 355.102 141.291C358.266 138.567 362.948 140.54 364.856 145.401Z" fill="black"/>
<path d="M331.335 86.0913C333.814 90.0388 335.217 94.2635 334.679 98.994L331.335 86.0913Z" fill="black"/>
<path d="M283.182 192.951C286.477 197.241 291.289 199.035 296.101 200.862C290.686 200.095 285.955 198.154 283.182 192.951Z" fill="black"/>
<path d="M137.598 123.56C141.839 121.243 146.195 120.118 151.023 121.472C146.586 122.157 142.149 122.858 137.598 123.56Z" fill="black"/>
<path d="M330.862 212.884C325.691 214.613 321.042 213.259 316.687 210.453C321.303 211.921 325.92 213.422 330.862 212.884Z" fill="black"/>
<path d="M324.794 95.2586C322.82 91.6373 320.83 87.9998 318.775 84.2154C322.266 87.1516 324.761 90.4629 324.794 95.2586Z" fill="black"/>
<path d="M274.064 219.278C278.109 218.153 282.155 217.011 286.2 215.885C282.807 219.229 278.452 219.082 274.064 219.278Z" fill="black"/>
<path d="M306.41 20.762C301.435 20.4684 297.015 20.2237 292.594 19.9628C297.08 18.984 301.566 18.2337 306.41 20.762Z" fill="black"/>
<path d="M370.141 115.159V98.8961C371.854 104.41 371.805 109.793 370.94 115.192C370.679 115.192 370.402 115.175 370.141 115.159Z" fill="black"/>
<path d="M202.357 189.542C205.179 192.494 207.968 195.43 210.268 197.844C207.903 197.192 204.118 193.489 202.357 189.542Z" fill="black"/>
<path d="M324.451 86.0261C327.012 88.8154 328.921 92.143 328.546 96.3841C327.176 92.926 325.822 89.4842 324.451 86.0261Z" fill="black"/>
<path d="M359.995 108.944C359.196 104.507 358.462 100.495 357.826 96.955C360.305 100.152 361.186 104.181 359.995 108.944Z" fill="black"/>
<path d="M174.414 47.8235C177.057 44.5285 180.156 42.0491 185.164 41.5598C181.184 43.876 177.791 45.8498 174.414 47.8235Z" fill="black"/>
<path d="M172.31 44.398C174.61 40.8094 178.166 39.2924 182.407 38.9662C180.711 39.7981 178.982 40.5647 177.351 41.4945C175.687 42.4406 174.121 43.5498 172.522 44.5938L172.294 44.3817L172.31 44.398Z" fill="black"/>
<path d="M255.077 83.8239C252.075 87.0211 249.253 90.0225 246.774 92.6487C247.41 89.6147 250.656 85.9119 255.077 83.8239Z" fill="black"/>
<path d="M175.573 152.579C178.688 149.512 182.293 149.072 187.04 150.262C182.652 151.111 179.08 151.812 175.491 152.497L175.573 152.579Z" fill="black"/>
<path d="M430.577 200.34C434.165 201.237 437.852 202.167 441.163 202.999C437.934 204.581 434.426 203.765 430.577 200.34Z" fill="black"/>
<path d="M231.669 171.794C227.673 172.659 224.149 173.018 221.866 176.068C223.562 171.99 226.091 170.832 231.669 171.794Z" fill="black"/>
<path d="M311.891 184.387C308.874 183.131 306.198 181.385 304.355 178.449L312.495 183.702L311.891 184.387Z" fill="black"/>
<path d="M257.442 32.5556C254.375 34.6435 251.309 36.7315 247.753 39.1456C250.412 35.6712 253.022 33.8116 257.442 32.5556Z" fill="black"/>
<path d="M167.629 185.92C163.143 187.274 159.913 186.1 156.047 184.044C160.141 184.713 163.485 185.251 167.629 185.92Z" fill="black"/>
<path d="M498.94 190.634C495.678 185.659 495.612 186.344 490.539 186.41C493.019 184.958 495.188 184.925 497.26 186.295C498.679 187.225 499.658 188.53 498.94 190.634Z" fill="black"/>
<path d="M38.5524 187.274C34.1808 188.302 29.956 187.405 25.7476 186.198C30.0213 186.556 34.2787 186.915 38.5524 187.274Z" fill="black"/>
<path d="M206.565 72.1283C203.14 73.2701 199.812 74.3793 196.484 75.4722C199.518 72.3404 202.243 71.4106 206.565 72.1283Z" fill="black"/>
<path d="M277.228 45.8661C273.64 46.6165 270.068 47.3505 266.479 48.1008C269.611 45.9314 272.237 45.2789 277.228 45.8661Z" fill="black"/>
<path d="M161.593 201.727H174.284C171.429 203.097 166.552 203.374 161.593 201.727Z" fill="black"/>
<path d="M27.5745 182.381C30.6575 182.707 33.7567 183.033 36.8397 183.359C33.5447 184.746 30.4943 184.093 27.5745 182.381Z" fill="black"/>
<path d="M360.713 148.207C358.087 147.62 355.526 147.049 353.111 146.511C355.069 144.472 357.255 144.879 360.713 148.207Z" fill="black"/>
<path d="M131.481 116.056C134.173 113.365 137.549 112.5 141.562 112.745C138.022 113.903 134.744 114.98 131.481 116.056Z" fill="black"/>
<path d="M65.6139 174.322C63.265 172.251 60.8998 170.179 58.7792 168.32C62.1069 168.515 64.26 170.897 65.6139 174.322Z" fill="black"/>
<path d="M194.282 162.839C197.153 164.862 199.143 166.917 198.948 170.652C197.365 168.01 195.979 165.677 194.282 162.839Z" fill="black"/>
<path d="M217.739 102.419C220.447 100.56 223.073 100.641 225.797 102.419H217.739Z" fill="black"/>
<path d="M220.463 52.3908C223.807 52.8802 226.4 54.4788 227.95 58.2794C225.193 56.1263 222.812 54.2504 220.463 52.3908Z" fill="black"/>
<path d="M130.421 184.811C128.154 187.796 124.989 189.003 121.417 189.395C124.418 187.861 127.42 186.344 130.421 184.811Z" fill="black"/>
<path d="M84.0627 166.998C85.8407 164.552 88.1896 163.948 91.0279 165.302C89.8534 165.465 88.6626 165.547 87.5371 165.824C86.3627 166.118 85.2208 166.591 84.0627 166.998Z" fill="black"/>
<path d="M139.67 128.551C143.047 125.762 144.531 125.468 147.744 126.985C145.053 127.507 142.541 127.997 139.67 128.551Z" fill="black"/>
<path d="M265.973 176.345C264.228 173.719 262.825 171.631 261.553 169.723C264.391 170.424 265.451 171.81 265.973 176.345Z" fill="black"/>
<path d="M468.355 181.842C466.072 180.652 463.918 179.542 462.124 178.596C465.957 178.107 467.132 178.678 468.355 181.842Z" fill="black"/>
<path d="M425.83 157.668C424.623 155.319 423.4 152.97 422.127 150.507C425.047 152.04 425.814 153.345 425.83 157.668Z" fill="black"/>
<path d="M283.982 220.632C281.355 222.247 278.452 222.769 275.32 222.459C278.093 221.594 280.85 220.73 283.623 219.865C283.737 220.126 283.867 220.371 283.982 220.632Z" fill="black"/>
<path d="M238.716 44.4796C239.923 45.2463 242.158 46.8122 243.136 49.6668C241.375 47.5952 239.613 45.5236 238.716 44.4796Z" fill="black"/>
<path d="M187.937 115.241C187.758 118.585 187.611 121.358 187.448 124.212C186.012 121.7 186.094 119.547 187.937 115.241Z" fill="black"/>
<path d="M485.94 192.233C482.465 193.619 480.149 192.445 477.425 190.276C480.475 190.977 482.938 191.548 485.94 192.233Z" fill="black"/>
<path d="M228.994 51.9831C232.012 52.2278 234.181 53.7285 235.47 56.632C233.317 55.0824 231.147 53.5327 228.994 51.9831Z" fill="black"/>
<path d="M65.8749 163.54C69.2841 164.959 70.2465 166.215 70.5238 170C68.8274 167.586 67.3756 165.53 65.9402 163.475L65.8749 163.54Z" fill="black"/>
<path d="M366.569 49.9441C367.678 52.7334 368.787 55.5065 369.896 58.2958C369.57 58.41 369.244 58.5242 368.901 58.622C368.167 55.7022 366.667 53.027 366.65 49.8788L366.569 49.9441Z" fill="black"/>
<path d="M377.155 202.591C379.814 202.95 382.473 203.309 385.311 203.7C381.935 204.663 381.657 204.63 377.155 202.591Z" fill="black"/>
<path d="M120.536 184.925C122.657 183.865 124.794 182.821 126.914 181.761C125.511 184.077 123.44 185.186 120.536 184.925Z" fill="black"/>
<path d="M262.27 41.2498C259.987 42.62 257.703 44.0065 255.419 45.3767C255.256 45.1158 255.109 44.8711 254.946 44.6101C257.197 43.2236 259.432 41.8371 261.683 40.4342C261.879 40.7115 262.075 40.9725 262.27 41.2498Z" fill="black"/>
<path d="M405.93 203.912C407.218 202.167 408.49 200.438 409.91 198.513C409.714 201.351 409.518 201.661 405.93 203.912Z" fill="black"/>
<path d="M378.428 118.78C378.672 120.591 378.917 122.418 379.162 124.229C378.852 124.261 378.542 124.31 378.232 124.343C378.052 122.516 377.857 120.689 377.677 118.862C377.922 118.829 378.167 118.797 378.428 118.764V118.78Z" fill="black"/>
<path d="M92.8222 160.996C90.0818 161.273 87.3251 161.55 83.7364 161.909C87.2272 159.886 90.1144 160.294 92.8222 160.996Z" fill="black"/>
<path d="M320.112 75.3907L315.871 70.9375C315.937 70.8397 316.018 70.7581 316.083 70.6602C317.584 72.0304 319.101 73.4006 320.602 74.7708C320.439 74.9829 320.276 75.1786 320.112 75.3907Z" fill="black"/>
<path d="M119.133 134.554C118.742 138.208 118.448 140.85 118.155 143.575C116.899 140.638 117.062 138.762 119.133 134.554Z" fill="black"/>
<path d="M439.597 189.134C438.455 187.731 437.183 186.181 435.927 184.632C435.601 184.942 435.275 185.251 434.965 185.561C437.591 185.529 438.847 187.16 439.614 189.134H439.597Z" fill="black"/>
<path d="M350.714 221.464C352.165 219.767 353.617 218.071 355.053 216.391C354.596 218.87 353.16 220.583 350.714 221.464Z" fill="black"/>
<path d="M382.603 126.349C382.489 124.587 382.359 122.826 382.245 121.064C382.457 121.031 382.652 121.015 382.864 120.982C383.125 122.744 383.386 124.506 383.647 126.251C383.305 126.284 382.962 126.316 382.603 126.333V126.349Z" fill="black"/>
<path d="M204.673 163.491C206.663 165.123 207.74 167.341 207.446 170.881C206.337 167.912 205.505 165.693 204.673 163.491Z" fill="black"/>
<path d="M324.99 72.6829C323.032 70.8886 321.434 69.4042 319.574 67.7078C322.298 68.3113 323.146 69.1106 324.99 72.6829Z" fill="black"/>
<path d="M372.05 46.0945C372.979 48.0845 373.909 50.0909 374.823 52.081C374.545 52.2115 374.284 52.3419 374.007 52.4724C373.077 50.5476 372.148 48.6228 371.234 46.698C371.511 46.5023 371.772 46.2902 372.05 46.0945Z" fill="black"/>
<path d="M433.334 180.929C431.099 181.859 428.864 182.788 426.711 183.685C429.076 181.108 429.973 180.733 433.399 180.994L433.334 180.929Z" fill="black"/>
<path d="M413.025 180.244C411.671 179.02 410.464 177.927 409.502 177.063C412.552 176.688 412.846 176.9 413.025 180.244Z" fill="black"/>
<path d="M196.68 153.329C198.099 154.683 199.518 156.037 200.938 157.391C200.807 157.537 200.677 157.684 200.546 157.831C199.078 156.526 197.626 155.221 196.158 153.916C196.338 153.72 196.501 153.525 196.68 153.329Z" fill="black"/>
<path d="M102.985 153.818C103.099 152.416 103.213 150.996 103.343 149.594L103.947 149.626V153.916C103.621 153.884 103.311 153.851 102.985 153.802V153.818Z" fill="black"/>
<path d="M327.388 135.272C327.339 135.516 327.388 135.843 327.241 135.973C325.74 137.343 324.207 138.681 322.478 139.774C323.929 138.061 325.039 135.989 327.469 135.353L327.388 135.272Z" fill="black"/>
<path d="M68.3869 172.969C66.8862 171.044 65.7281 169.559 64.5373 168.026C67.033 168.711 67.4572 169.217 68.3869 172.969Z" fill="black"/>
<path d="M445.731 167.031C445.176 165.237 444.621 163.459 443.904 161.159C445.404 162.833 446.013 164.791 445.731 167.031Z" fill="black"/>
<path d="M145.281 118.568C143.079 118.895 140.861 119.204 138.659 119.531C138.626 119.286 138.593 119.041 138.544 118.813C140.747 118.47 142.949 118.112 145.151 117.769C145.2 118.046 145.232 118.307 145.281 118.585V118.568Z" fill="black"/>
<path d="M300.065 86.9069C301.305 87.9019 302.561 88.8969 303.817 89.8919C303.637 90.0551 303.458 90.2019 303.295 90.365C302.218 89.2068 301.125 88.0324 300.081 86.9069H300.065Z" fill="black"/>
<path d="M327.616 115.241C327.029 113.61 326.458 111.978 325.871 110.347C326.115 110.266 326.36 110.168 326.605 110.086C327.192 111.717 327.795 113.349 328.383 114.963C328.122 115.061 327.877 115.143 327.616 115.241Z" fill="black"/>
<path d="M347.663 47.22C348.512 48.8186 349.376 50.4334 350.224 52.032C350.029 52.1462 349.816 52.2441 349.621 52.3583C348.773 50.8086 347.924 49.2753 347.076 47.7257C347.272 47.5626 347.468 47.3831 347.663 47.22Z" fill="black"/>
<path d="M240.478 53.761C239.32 52.5703 238.178 51.3958 237.02 50.205C237.101 50.1072 237.199 50.0093 237.281 49.8951C238.504 51.0206 239.744 52.1462 240.967 53.2717C240.804 53.4348 240.641 53.5979 240.461 53.761H240.478Z" fill="black"/>
<path d="M404.396 137.392C402.781 138.224 401.166 139.072 399.552 139.904C399.437 139.692 399.323 139.48 399.209 139.268C400.824 138.404 402.422 137.555 404.037 136.691C404.168 136.919 404.282 137.148 404.412 137.376L404.396 137.392Z" fill="black"/>
<path d="M375.116 114.686C375.23 116.807 375.328 118.927 375.442 121.048C375.198 121.048 374.937 121.064 374.692 121.08V114.719C374.839 114.719 374.986 114.719 375.116 114.702V114.686Z" fill="black"/>
<path d="M11.5236 184.86C11.0342 183.571 10.5285 182.299 10.0392 181.01L10.7406 180.7C11.3115 181.94 11.8824 183.164 12.437 184.403C12.1271 184.55 11.8172 184.713 11.5236 184.86Z" fill="black"/>
<path d="M136.979 167.227C138.267 167.586 139.556 167.961 140.844 168.32C140.747 168.63 140.665 168.94 140.567 169.249C139.311 168.776 138.071 168.32 136.815 167.847C136.864 167.651 136.913 167.439 136.962 167.243L136.979 167.227Z" fill="black"/>
<path d="M122.33 136.642C122.004 138.306 121.694 139.97 121.368 141.633C121.091 141.584 120.813 141.536 120.52 141.47C120.83 139.806 121.123 138.143 121.433 136.462C121.727 136.511 122.037 136.577 122.33 136.626V136.642Z" fill="black"/>
<path d="M182.636 155.596C181.265 155.531 180.124 155.482 178.9 155.417C180.096 154.775 181.342 154.835 182.636 155.596Z" fill="black"/>
<path d="M386.763 125.713V130.264C386.665 130.264 386.551 130.28 386.453 130.297V125.827C386.551 125.795 386.665 125.746 386.763 125.713Z" fill="black"/>
<path d="M154.53 51.4121C155.313 50.2214 156.096 49.0143 156.863 47.8235C157.058 47.954 157.254 48.0845 157.466 48.215C156.683 49.471 155.884 50.727 155.101 51.9831C154.905 51.8036 154.726 51.6079 154.53 51.4285V51.4121Z" fill="black"/>
<path d="M304.062 73.7595L306.932 75.9453C306.786 76.141 306.655 76.3531 306.508 76.5488C305.562 75.8148 304.6 75.097 303.654 74.363C303.784 74.1673 303.931 73.9552 304.062 73.7595Z" fill="black"/>
<path d="M145.02 186.948C143.96 186.344 142.916 185.757 141.856 185.154C142.035 184.925 142.231 184.681 142.41 184.452C143.259 185.3 144.107 186.149 144.955 186.997L145.004 186.932L145.02 186.948Z" fill="black"/>
<path d="M460.868 173.996C459.4 174.567 457.948 175.122 456.48 175.693C457.687 174.306 458.976 173.181 460.917 174.061L460.852 173.996H460.868Z" fill="black"/>
<path d="M73.0522 164.959C72.3507 164.111 71.6493 163.263 70.5564 161.958C72.7259 162.333 73.2153 163.345 73.0522 164.959Z" fill="black"/>
<path d="M192.733 88.2934C191.852 89.2069 190.971 90.1203 190.09 91.0338C189.911 90.8054 189.731 90.5771 189.552 90.3487C190.645 89.6962 191.721 89.0437 192.814 88.375L192.733 88.2934Z" fill="black"/>
<path d="M303.98 183.816C302.757 183.082 301.533 182.364 300.31 181.63C300.506 181.369 300.718 181.108 300.913 180.847C301.908 181.859 302.903 182.886 303.898 183.898L303.964 183.816H303.98Z" fill="black"/>
<path d="M297.684 77.1687C296.835 76.6793 295.971 76.19 295.123 75.7006C295.172 75.5864 295.22 75.4722 295.269 75.3581C296.183 75.7659 297.096 76.1737 298.01 76.5815C297.896 76.7772 297.781 76.9729 297.684 77.1687Z" fill="black"/>
<path d="M321.369 8.20188H318.498C318.498 8.20188 318.498 8.05507 318.498 7.97351H321.369C321.369 7.97351 321.369 8.12032 321.369 8.20188Z" fill="black"/>
<path d="M147.174 132.792C145.298 132.466 144.172 132.287 143.047 132.091C144.319 131.275 145.526 130.9 147.174 132.792Z" fill="black"/>
<path d="M225.569 93.8721C226.776 94.3614 227.966 94.8508 229.173 95.3401C229.01 95.6338 228.847 95.9111 228.684 96.2047C227.673 95.4054 226.661 94.6061 225.65 93.8068L225.585 93.8884L225.569 93.8721Z" fill="black"/>
<path d="M222.453 35.9158L225.976 37.4165L225.487 38.2484C224.508 37.4491 223.513 36.6335 222.535 35.8343L222.469 35.9158H222.453Z" fill="black"/>
<path d="M46.6921 164.878L43.6743 165.824C43.5765 165.661 43.4623 165.514 43.3644 165.351C43.8538 164.992 44.2942 164.535 44.8325 164.323C45.3545 164.111 45.9743 164.176 46.5452 164.111C46.5942 164.372 46.6431 164.633 46.6757 164.878H46.6921Z" fill="black"/>
<path d="M175.491 152.497C174.887 153.199 174.268 153.9 173.664 154.601C173.615 153.182 174.317 152.562 175.573 152.579L175.491 152.497Z" fill="black"/>
<path d="M172.522 44.6101C171.886 45.5398 171.25 46.4859 170.614 47.4157C170.385 47.22 170.141 47.0242 169.912 46.8122C170.712 46.0129 171.511 45.1973 172.31 44.398L172.539 44.6101H172.522Z" fill="black"/>
<path d="M332.379 113.789C332.02 112.875 331.678 111.962 331.254 110.885C331.678 110.918 331.971 110.885 332.004 110.951C332.346 111.815 332.656 112.696 332.966 113.577C332.771 113.642 332.575 113.707 332.379 113.789Z" fill="black"/>
<path d="M65.9238 163.475C65.0756 163.133 64.2274 162.806 63.3791 162.464C64.6678 161.974 65.5486 162.268 65.8749 163.54L65.9401 163.475H65.9238Z" fill="black"/>
</svg>
