<svg width="344" height="159" viewBox="0 0 344 159" fill="none" xmlns="http://www.w3.org/2000/svg">
<path d="M15.8801 103.722C16.0111 101.699 16.1421 99.7483 16.2731 97.7978C16.9136 88.0303 21.8191 80.7375 30.1018 76.094C36.5504 72.4694 43.6539 72.2947 50.6848 74.9731C51.66 75.337 52.548 75.9047 53.8435 76.5452C54.4258 75.3079 55.008 74.0997 55.5758 72.8915C60.1756 63.095 66.7988 55.1326 76.9011 50.7947C81.2389 48.9315 85.9116 47.5632 90.5697 46.8499C97.0036 45.8746 103.074 47.9125 108.503 51.3479C112.128 53.6333 115.432 56.4135 119.173 59.1938C125.403 51.0131 133.511 46.2968 144.866 48.8733C145.39 47.6214 145.914 46.3841 146.438 45.1322C154.618 25.4372 168.112 10.968 188.448 3.86445C205.581 -2.11828 222.51 -1.40501 238.653 7.7656C252.54 15.6698 263.705 26.2233 271.129 40.5178C271.333 40.9254 271.595 41.2893 271.944 41.857C274.462 41.3184 276.922 40.7507 279.412 40.2849C285.831 39.0622 292.28 38.1014 298.83 39.0767C301.115 39.4115 303.488 39.7609 305.599 40.6634C322.324 47.8397 333.402 59.8343 336.692 78.1319C337.769 84.1437 337.361 90.1993 336.095 96.182C336.007 96.6187 335.949 97.07 335.906 97.3756C336.051 97.6377 336.095 97.7687 336.182 97.8269C344.174 103.387 345.265 111.073 342.893 119.793C341.743 124.014 339.719 127.784 336.997 131.19C330.49 139.328 320.359 142.617 310.402 139.59C308.248 138.935 306.923 139.24 305.599 140.885C301.479 145.98 296.399 149.823 290.111 151.759C280.358 154.757 270.663 154.976 261.216 150.449C257.242 148.542 253.268 146.65 248.77 144.495C247.46 145.107 245.582 145.98 243.704 146.868C232.51 152.166 221.04 156.694 208.652 158.164C203.252 158.804 197.735 158.95 192.305 158.717C180.675 158.237 169.073 157.159 157.719 154.452C154.022 153.564 150.557 151.686 146.845 150.9C143.061 150.099 140.033 148.032 136.816 146.213C134.778 145.063 133.22 145.107 131.168 146.635C121.779 153.622 111.24 156.956 99.4346 155.98C94.2961 155.558 89.638 153.709 85.4458 150.958C81.9376 148.644 78.7498 148.542 74.7322 149.59C57.1479 154.19 39.5053 153.811 21.9356 149.211C17.7724 148.12 14.2352 145.907 11.1055 143.069C8.79104 140.958 6.54934 138.716 4.56965 136.3C-2.81051 127.333 -0.627034 114.552 6.66579 107.856C9.25685 105.484 12.3574 104.363 15.9237 103.766L15.8801 103.722ZM106.407 53.051L106.538 53.1529C106.436 52.9491 106.393 52.658 106.232 52.5706C98.9979 48.7277 91.5013 48.1309 83.7426 51.0567H88.8957C81.5155 52.7162 74.9214 55.5402 69.6083 60.9989C64.3825 66.3702 61.4129 73.0371 58.5307 79.7913C60.0301 71.5378 64.0185 64.5652 69.5355 58.3496C62.1844 63.8956 57.5991 71.2903 55.1245 80.3736C54.1201 79.7331 53.3049 79.442 52.8391 78.8597C51.0778 76.6908 48.6032 75.9921 46.0558 75.6718C43.9887 75.4098 41.8635 75.3953 39.7819 75.5408C27.4816 76.356 16.8699 89.2531 18.2965 101.51C18.5003 103.3 18.8933 105.178 17.656 107.07C15.4288 106.153 13.289 106.153 11.222 107.245C7.83031 109.05 5.18102 111.554 3.63803 115.135C-0.00110329 123.636 3.69626 135.368 10.3486 139.182C11.6441 139.924 12.7941 140.987 13.8567 142.05C16.0548 144.262 18.7477 145.543 21.6736 146.46C40.5243 152.327 59.3605 150.827 78.1675 146.256C80.1617 145.776 81.7047 145.922 83.3642 147.174C87.3236 150.143 91.7487 152.254 96.6106 153.127C106.713 154.961 116.32 153.709 125.054 147.916C127.849 146.067 130.644 144.219 133.017 142.646C138.694 145.092 143.817 147.61 149.16 149.532C165.041 155.252 181.65 156.577 198.332 156.519C212.845 156.475 226.586 152.458 239.745 146.446C243.108 144.903 246.339 143.098 249.731 141.351C255.684 146.096 262.395 149.168 269.848 150.58C278.946 152.297 287.811 151.773 295.759 146.65C299.121 144.481 302.236 141.657 304.813 138.585C306.749 136.3 308.19 136.314 310.694 137.246C318.452 140.128 325.585 138.731 331.83 133.257C336.59 129.08 339.938 123.985 341.437 117.784C342.951 111.554 341.932 105.993 336.91 101.568C335.702 100.505 334.508 99.399 333.242 98.2636C333.518 97.0699 333.78 95.9491 334.013 94.8137C339.108 70.9264 324.144 48.3638 302.047 42.3228C293.735 40.052 285.423 41.0127 277.199 43.0215C274.972 43.5601 272.745 44.1424 270.401 44.7392C269.717 43.4146 269.135 42.2792 268.538 41.1583C264.841 34.0838 260.255 27.6644 254.302 22.3076C247.169 15.8736 239.177 10.6769 230.487 6.60108C223.733 3.44231 216.556 1.85565 209.133 2.26323C192.553 3.1803 177.822 8.81367 165.579 20.3133C163.891 21.9 162.464 23.7487 160.921 25.4809L160.965 25.4518C160.121 26.529 159.291 27.6062 158.447 28.6833L155.492 33.1959C153.119 35.4812 151.285 38.0869 150.12 41.2165C148.839 44.681 147.326 48.0727 145.885 51.5808C145.244 51.4352 144.807 51.3042 144.371 51.2314C139.64 50.3726 135.054 50.1106 130.425 52.1776C127.732 53.3858 125.767 55.118 123.933 57.2433C122.303 59.1356 121.036 61.4356 118.46 62.5419C116.873 61.1444 115.432 59.8052 113.918 58.5679C112.958 57.7819 111.88 57.1268 110.861 56.4135L110.643 56.2825C110.003 54.1573 108.343 53.3712 106.349 53.0364L106.407 53.051Z" fill="black"/>
<path d="M110.92 56.4281C111.939 57.1414 113.016 57.7964 113.977 58.5825C115.49 59.8343 116.946 61.1735 118.518 62.5564C121.095 61.4355 122.376 59.1356 123.991 57.2578C125.826 55.1326 127.791 53.4003 130.484 52.1921C135.127 50.1105 139.713 50.3871 144.429 51.246C144.866 51.3187 145.302 51.4498 145.943 51.5953C147.384 48.0872 148.898 44.7101 150.179 41.2311C151.329 38.1014 153.163 35.4812 155.55 33.2104C154.473 35.5103 153.396 37.8248 152.333 40.1248C152.086 40.6488 151.867 41.1874 151.707 41.7405C151.562 42.2646 151.503 42.8177 151.401 43.3709C155.317 35.7869 160.266 29.1346 166.22 23.181C172.217 17.1837 179.568 13.6028 187.502 10.8952C185.042 11.1864 182.669 11.6813 180.413 12.4819C173.935 14.7527 168.578 18.7703 163.687 23.4866C162.887 24.2581 161.868 24.8259 160.951 25.4955C162.493 23.7632 163.92 21.9145 165.609 20.3279C177.836 8.82822 192.582 3.19484 209.162 2.27778C216.586 1.87019 223.762 3.45686 230.516 6.61563C239.206 10.6915 247.198 15.8881 254.331 22.3221C260.27 27.6789 264.87 34.0984 268.567 41.1728C269.149 42.2937 269.732 43.4145 270.43 44.7537C272.774 44.1569 274.986 43.5747 277.228 43.0361C285.467 41.0273 293.779 40.052 302.076 42.3374C324.158 48.3929 339.122 70.941 334.042 94.8282C333.809 95.9491 333.533 97.0699 333.271 98.2781C334.537 99.4281 335.716 100.52 336.939 101.582C341.946 106.008 342.98 111.568 341.466 117.798C339.967 124 336.619 129.094 331.859 133.272C325.614 138.745 318.496 140.143 310.723 137.261C308.219 136.329 306.778 136.314 304.842 138.6C302.251 141.671 299.15 144.495 295.788 146.664C287.825 151.788 278.975 152.312 269.877 150.594C262.424 149.197 255.714 146.125 249.76 141.365C246.368 143.098 243.122 144.917 239.774 146.46C226.63 152.472 212.874 156.49 198.361 156.533C181.679 156.592 165.07 155.267 149.189 149.546C143.847 147.625 138.723 145.092 133.046 142.661C130.673 144.233 127.878 146.067 125.083 147.93C116.349 153.724 106.742 154.976 96.6397 153.142C91.7778 152.254 87.3526 150.143 83.3933 147.188C81.7338 145.951 80.1908 145.791 78.1966 146.271C59.3895 150.827 40.5534 152.341 21.7027 146.475C18.7622 145.558 16.0838 144.291 13.8858 142.064C12.8232 141.002 11.6732 139.939 10.3777 139.197C3.73991 135.383 0.0279884 123.65 3.66712 115.149C5.21011 111.554 7.84485 109.065 11.2511 107.26C13.3181 106.168 15.4579 106.168 17.6851 107.085C18.9224 105.192 18.5293 103.329 18.3256 101.524C16.899 89.2531 27.5253 76.356 39.811 75.5554C41.8926 75.4244 44.0178 75.4244 46.0849 75.6864C48.6323 76.0066 51.0923 76.7053 52.8682 78.8743C53.334 79.4565 54.1637 79.7477 55.1536 80.3881C57.6136 71.3194 62.2135 63.9101 69.5646 58.3641C64.0622 64.5798 60.0737 71.5523 58.5598 79.8059C61.4275 73.0517 64.4115 66.3848 69.6373 61.0134C74.9505 55.5547 81.5446 52.7307 88.9248 51.0713H83.7717C91.5304 48.1454 99.0415 48.7422 106.262 52.5852C106.422 52.6725 106.465 52.9636 106.567 53.1674C105.476 52.8472 104.355 52.5852 103.292 52.1776C100.614 51.1732 97.877 50.6783 95.0239 50.882C96.8726 51.5225 98.8232 51.7991 100.628 52.4687C102.564 53.1965 104.442 54.1864 106.218 55.2636C107.906 56.2825 109.406 57.6072 111.036 58.7135C112.623 59.7906 113.816 61.5229 115.811 61.945L116.378 61.2754C114.573 59.6596 112.754 58.0439 110.949 56.4426L110.92 56.4281ZM227.925 131.933C226.79 132.428 225.64 132.908 224.504 133.403C220.283 134.509 216.062 135.63 211.433 136.838C212.495 136.838 213.194 136.969 213.834 136.809C216.309 136.242 218.798 135.659 221.229 134.931C222.35 134.597 223.369 133.883 224.446 133.33C225.887 133.549 227.139 133.33 227.852 131.86C228.799 131.685 229.745 131.525 230.691 131.351C230.618 131.132 230.56 130.928 230.487 130.71C229.628 131.118 228.769 131.525 227.911 131.933H227.925ZM208.434 77.6078C208.055 76.8072 207.692 76.0212 207.313 75.2206L206.658 75.6282C207.269 76.2686 207.895 76.8946 208.507 77.5351C208.929 79.3401 209.366 81.1596 209.788 82.9647C210.588 80.7666 210.559 78.816 208.434 77.5933V77.6078ZM257.431 140.405C258.887 142.224 260.823 143.039 263.108 143.127C264.287 143.724 265.394 144.51 266.631 144.874C278.305 148.338 289.106 147.013 298.612 138.876C299.136 138.425 299.529 137.799 299.98 137.261C298.146 137.828 296.719 138.774 295.293 139.677C288.218 144.189 280.591 146.562 272.148 145.31C269.076 144.859 266.078 143.913 263.05 143.2C261.158 142.283 259.265 141.38 257.388 140.463C255.568 139.066 253.748 137.668 251.929 136.271C251.798 136.46 251.681 136.649 251.55 136.824C253.326 138.309 254.986 139.983 257.446 140.405H257.431ZM302.76 52.4542C303.313 53.4877 304.187 53.9826 305.482 53.7642C304.609 53.2839 303.736 52.8181 302.862 52.3377C302.658 52.0611 302.513 51.7118 302.251 51.5371C296.792 47.9125 290.78 47.4613 284.521 48.5384C284.375 48.5676 284.273 48.8878 284.142 49.077C282.949 49.2372 281.755 49.3973 280.562 49.5574C280.605 49.7612 280.649 49.9795 280.693 50.1833C281.828 49.7903 282.949 49.3973 284.084 49.0043C290.431 48.2619 296.501 49.0625 302.091 52.3959C302.265 52.4978 302.542 52.4396 302.76 52.4687V52.4542ZM113.453 88.7145C118.067 86.8512 122.812 86.8367 128.373 88.205C124.938 85.7449 121.357 85.25 117.426 86.4437C115.971 86.8804 114.151 86.9095 113.511 88.7873C111.691 88.9474 111.327 90.3303 111.138 91.8587C111.91 90.8106 112.666 89.7626 113.438 88.7145H113.453ZM322.703 74.4636C322.63 73.5175 322.572 72.5567 322.499 71.6106L321.96 71.6833C322.222 72.6004 322.47 73.532 322.732 74.4491C325.658 80.6356 325.861 87.0114 324.027 93.5909C324.61 93.0087 324.988 92.4264 325.236 91.8005C327.463 85.9779 326.211 80.4318 323.78 75.0168C323.649 74.7402 323.067 74.6674 322.717 74.4782L322.703 74.4636ZM106.451 90.0828C106.742 89.9227 107.091 89.8208 107.31 89.5879C113.409 83.1248 120.673 82.3969 128.679 85.1627C129.523 85.4538 130.338 85.7741 131.182 86.0798C130.702 85.0317 130.003 84.333 129.174 83.838C122.376 79.6749 110.541 82.8045 106.494 89.8062C106.451 89.8936 106.509 90.0391 106.524 90.141C104.486 91.4366 104.02 93.4599 104.195 95.7598C104.952 93.8675 105.694 91.9752 106.451 90.0828ZM140.702 140.463C139.392 139.546 138.082 138.629 136.772 137.712C136.627 137.974 136.481 138.236 136.35 138.498C137.82 139.124 139.29 139.75 140.775 140.376C143.104 141.802 145.36 143.374 147.762 144.655C155.754 148.92 164.269 151.453 173.309 152.327C183.44 153.316 193.543 152.923 203.601 151.57C216.28 149.866 228.405 146.373 239.556 139.924C240.764 139.226 241.914 138.425 243.093 137.654C240.91 138.032 239.046 138.905 237.183 139.779C222.714 146.533 207.648 151.133 191.577 151.642C185.085 151.846 178.549 151.715 172.057 151.249C162.624 150.565 153.992 147.101 145.739 142.603C144.138 141.729 142.391 141.162 140.717 140.448L140.702 140.463ZM132.667 80.2135C129.043 79.0926 125.898 77.899 122.652 77.1857C119.566 76.5016 116.364 76.5889 113.467 78.1464C111.022 79.4711 108.605 80.8976 106.334 82.5134C102.229 85.4247 99.0852 89.0784 98.4156 94.3042C98.3283 94.9884 98.6631 95.7162 98.9105 97.0263C99.4491 96.0219 99.7257 95.6434 99.8713 95.2213C101.458 90.2429 104.733 86.5456 108.765 83.4305C115.447 78.2629 123.322 77.899 130.556 82.3387C131.415 82.8628 132.274 83.3868 133.206 83.9545C134.137 82.3242 134.88 80.8685 135.768 79.5148C143.133 68.2771 153.643 62.964 166.904 64.3468C174.372 65.1183 181.271 68.0588 185.813 74.813C187.225 76.9237 189.045 78.7724 190.748 80.6647C191.126 81.0869 191.796 81.2615 192.48 81.6255C192.378 76.7927 182.465 66.6468 175.172 64.2158C156.598 58.0293 142.42 63.9975 132.711 80.2135H132.667ZM288.917 100.84C289.528 100.593 289.892 100.534 290.154 100.331C295.118 96.4731 300.737 95.6143 306.661 97.1427C309.777 97.9433 312.673 99.5446 314.668 102.208C316.05 104.043 317.113 106.11 318.379 108.046C318.656 108.453 319.165 108.715 319.893 109.297C321.189 105.294 318.816 102.994 316.909 100.709C314.202 97.4775 310.301 96.1383 306.472 94.6535C300.504 92.3391 295.38 94.8719 290.198 97.5794C289.63 96.4295 289.223 95.6288 288.83 94.7991C287.17 91.2764 284.87 88.2487 281.959 85.6576C268.509 73.7067 250.036 78.2775 240.211 86.3418C239.599 86.8512 239.017 87.5063 238.682 88.205C238.42 88.7436 238.566 89.486 238.508 90.6214C239.541 89.9663 240.269 89.6461 240.822 89.1366C248.799 81.7273 258.232 79.5293 268.64 81.8147C277.592 83.7798 284.244 88.8164 287.359 97.8123C287.723 98.8604 288.378 99.8211 288.902 100.84H288.917ZM85.4748 121.598C85.7369 121.423 86.0134 121.234 86.2755 121.059C86.2464 120.506 86.421 119.807 86.159 119.429C84.5432 117.173 83.1458 114.611 81.0788 112.864C67.3229 101.262 50.6119 103.038 39.6218 118.002C38.9522 118.919 38.5009 120.055 38.1952 121.161C37.9478 122.034 38.0642 123.024 38.006 123.956C38.9667 123.475 39.1851 122.864 39.5344 122.34C40.83 120.448 41.9363 118.322 43.5666 116.75C46.0703 114.349 48.8943 112.267 51.7037 110.185C55.2264 107.565 59.2585 106.444 63.5527 107.434C66.9153 108.22 70.2342 109.341 73.4366 110.637C76.9156 112.049 79.9143 114.159 81.8939 117.566C82.7819 119.079 84.2667 120.258 85.4748 121.583V121.598ZM210.734 5.17453C217.706 5.75679 223.951 8.3333 229.861 11.8705C238.042 16.7615 245.175 22.8462 250.939 30.4738C253.676 34.0984 256.354 37.7521 259.091 41.3766C259.6 42.0462 260.211 42.6431 260.765 43.269C260.91 42.4975 260.706 41.988 260.43 41.5222C255.932 33.8363 250.531 26.8492 243.894 20.8956C236.644 14.4034 228.711 8.97378 219.279 6.06248C216.513 5.20364 213.703 4.53404 210.734 5.15997V5.17453ZM136.99 83.0666C141.75 75.0896 147.267 70.6935 155.841 68.1607C160.441 66.8069 164.983 66.8651 169.553 68.3208C174.182 69.7764 178.156 72.3675 182.014 75.1769C183.266 76.0794 184.503 76.9965 185.944 78.0445C185.988 77.4477 186.046 77.2876 185.988 77.2294C173.949 64.769 158.083 61.7412 143.25 73.4447C140.12 75.9047 137.587 78.9034 136.976 83.0811L136.99 83.0666ZM335.498 107.099C335.847 108.031 336.182 108.963 336.531 109.894C339.21 117.085 337.623 123.388 332.383 128.789C328.773 132.53 324.173 134.437 319.049 134.873C316.443 135.092 313.794 134.917 311.159 134.917C316.298 136.431 321.32 136.023 326.196 134.131C334.435 130.914 339.632 123.199 339.035 114.931C338.817 111.976 338.176 109.094 335.483 107.114L335.498 107.099ZM50.6847 81.3198C46.7254 79.0926 42.5476 77.8262 38.0205 78.4812C27.5544 79.9951 19.1553 90.5341 19.9122 101.117C19.9559 101.801 20.2325 102.47 20.3926 103.14C19.9268 88.4088 32.5764 74.0706 50.6993 81.3198H50.6847ZM198.87 145.616C211.724 146.62 233.034 140.128 240.851 132.894C233.981 135.79 227.328 138.745 220.56 141.395C213.601 144.117 206.309 145.427 198.87 145.616ZM330.272 95.4105C332.776 79.3983 327.39 60.9115 318.86 56.5445C329.078 67.8986 330.054 81.5672 330.272 95.4105ZM282.891 98.9477C281.712 91.6403 274.564 85.2937 265.889 83.3431C258.275 81.64 249.512 83.8089 246.616 88.4234C249.134 87.186 251.565 85.4975 254.243 84.7697C263.647 82.2514 271.726 84.7406 278.087 92.1644C279.877 94.2605 281.304 96.6769 282.891 98.9477ZM87.6001 145.5C99.5947 152.574 119.013 150.9 126 139.633C114.34 149.706 101.502 150.653 87.6001 145.5ZM237.503 82.4406C250.153 75.2497 263.385 74.289 277.126 78.7578C264.855 71.6833 245.291 75.3225 237.503 82.4406ZM43.2609 123.199C43.3337 123.199 43.4501 123.243 43.4792 123.199C44.0178 122.457 44.5419 121.685 45.0805 120.943C49.2145 115.266 54.9352 112.209 61.7623 111.263C67.9051 110.404 72.4031 113.65 76.4644 117.74C76.9011 118.177 77.4542 118.512 77.9637 118.89C75.5036 114.64 72.1847 111.452 67.3229 110.36C58.356 108.351 46.7399 114.407 43.159 122.893C43.1299 122.966 43.2318 123.097 43.2755 123.199H43.2609ZM23.3621 139.983C35.7643 144.524 48.4721 145.296 61.4129 142.035C48.6468 143.534 35.9681 143.229 23.3621 139.983ZM258.829 134.306C266.878 139.822 287.228 138.352 294.041 132.937C282.09 136.329 270.561 138.41 258.829 134.306ZM67.6722 143.665C61.5876 144.35 55.5175 145.296 49.4183 145.645C43.4647 145.98 37.4674 145.718 31.4992 145.718C43.7267 148.032 55.8086 147.698 67.6722 143.665ZM273.312 47.3594C278.844 44.6664 284.681 43.6766 290.78 43.9386C296.836 44.2006 302.367 46.1803 307.608 49.1498C301.261 40.9545 281.158 40.8817 273.312 47.3594ZM177.938 127.333C187.138 131.38 207.997 129.487 212.815 126.052C201.083 127.77 189.612 129.88 177.938 127.333ZM122.055 137.115C116.67 140.245 111.284 143.287 105.112 144.655C98.896 146.038 92.9715 144.932 87.1052 142.836C97.2656 149.299 114.093 145.893 122.055 137.13V137.115ZM14.4972 110.069C9.22772 111.918 5.73415 117.318 5.89427 123.01C6.02528 127.784 9.38784 132.253 14.8757 134.175C10.5669 130.666 6.97146 127.537 7.14613 122.136C7.32081 116.707 10.4068 113.111 14.4972 110.069ZM155.157 142.079C160.572 147.406 177.72 150.187 187.152 148.993C176.206 148.003 165.216 147.232 155.157 142.079ZM195.784 13.7483C186.847 13.399 171.868 21.638 168.811 28.8871C176.133 20.0804 185.842 16.7179 195.784 13.7483ZM290.722 102.834C294.798 100.84 298.903 99.1079 303.59 99.8648C308.583 100.68 311.189 104.683 314.522 108.177C313.037 99.5882 299.005 94.77 290.722 102.834ZM104.471 71.8435C96.5233 68.6119 88.4298 66.9088 80.0453 70.3296C88.357 68.0733 96.3486 70.708 104.471 71.8435ZM228.143 19.1051C235.917 23.0208 242.001 29.0764 248.13 35.0591C242.904 27.9264 236.601 22.1474 228.143 19.1051ZM284.958 131.54C276.282 131.438 267.519 132.006 259.513 127.624C267.373 132.908 276.005 133.287 284.958 131.54ZM33.5226 121.656C38.5009 114.911 45.4929 109.162 54.4985 104.406C47.4968 104.756 36.1719 113.082 33.5226 121.656ZM98.4156 85.3665C107.455 77.1275 108.707 76.3851 118.955 73.5029C109.842 73.4738 103.481 78.292 98.4156 85.3665ZM143.308 53.5022C136.204 51.5662 126.728 55.8749 124.21 62.4108C129.13 55.4674 136.277 54.6813 143.308 53.5022ZM84.4413 138.454C89.2304 141.817 101.982 142.85 106.582 139.793C102.753 139.968 99.027 140.478 95.3587 140.23C91.5886 139.983 87.8767 139.036 84.4559 138.44L84.4413 138.454ZM272.104 93.6783C267.956 85.119 258.581 84.2893 252.278 89.2385C255.699 87.7392 259.193 86.8076 262.948 87.3171C266.922 87.8557 268.902 91.3347 272.104 93.6783ZM328.875 109.327C329.559 117.609 325.643 123.519 318.903 128.512C326.167 126.154 330.403 117.769 328.875 109.327ZM146.816 129.502C152.566 134.16 161.009 137.013 166.322 136.038C159.116 134.757 152.755 132.763 146.816 129.502ZM235.451 47.767C237.998 49.8777 240.779 51.7554 243.006 54.1427C245.247 56.5445 246.936 59.4558 248.872 62.1488C246.951 54.9433 241.972 50.6346 235.451 47.7524V47.767ZM267.111 45.6563C265.175 38.8292 261.027 33.3705 256.267 28.3194C259.877 34.0984 263.501 39.8773 267.111 45.6563ZM34.8472 85.1481C40.3496 82.79 45.6336 83.445 50.7284 86.3854C46.7545 81.5236 39.4616 80.9704 34.8472 85.1481ZM66.0128 114.392C60.8306 111.757 54.2511 114.276 50.4955 119.953C54.5422 115.586 59.7826 114.363 66.0128 114.392ZM82.0104 57.054C84.6888 56.4718 87.3526 55.6712 90.0747 55.38C92.8405 55.0889 95.6499 55.3218 98.4447 55.3218C92.6367 52.8181 87.1634 53.837 82.0249 57.054H82.0104ZM238.173 41.7114C243.093 45.0012 246.82 49.4118 250.342 55.0307C249.221 49.4264 243.501 43.4 238.173 41.7114ZM89.7108 135.179C95.5043 137.872 101.385 138.032 107.324 135.688C101.414 136.533 95.5334 136.868 89.7108 135.179ZM318.714 118.119C315.017 121.176 310.897 123.475 306.254 124.844C311.654 124.917 315.788 122.631 318.714 118.119ZM82.156 75.5408C76.7409 74.7693 70.9038 77.5205 68.9532 81.6982C72.8689 78.2629 77.2941 76.4433 82.156 75.5408ZM265.554 62.964C267.868 62.0469 270.139 60.9115 272.526 60.2856C274.928 59.6596 277.461 59.5723 280.489 59.1647C273.909 58.1166 269.688 59.1356 265.554 62.964ZM187.545 122.806C194.736 123.534 201.607 123.388 208.667 121.205C201.49 121.743 194.649 122.267 187.545 122.806ZM172.96 74.1871C175.318 75.468 177.472 76.5452 179.525 77.7971C181.461 78.9616 183.222 80.4464 185.609 80.5337C181.868 77.6224 178.098 74.7984 172.96 74.1871ZM290.445 68.7866C286.428 64.1431 280.3 62.5273 274.433 64.2013C280.067 63.6772 285.03 65.6569 290.445 68.7866ZM172.814 77.768C176.686 80.3736 180.544 82.9938 184.416 85.5994C181.621 81.3634 177.618 78.9616 172.814 77.768ZM84.5432 63.7937H99.158C93.9177 61.5374 89.4342 61.9305 84.5432 63.7937ZM26.4772 92.4555C23.3912 96.2693 22.4451 101.219 24.1336 103.548C24.876 100.054 25.6475 96.3567 26.4772 92.4555ZM93.0006 122.617C91.705 117.697 87.6874 112.864 83.9464 111.51C86.8432 115.062 89.9292 118.861 93.0006 122.617ZM33.377 138.003C39.0249 139.837 44.1925 139.997 49.4183 139.153C44.3235 138.789 39.2287 138.425 33.377 138.003ZM332.514 112.529C332.368 114.814 332.485 117.173 331.99 119.371C331.495 121.496 330.359 123.475 329.297 126.008C334.057 122.049 333.169 117.289 332.514 112.529ZM209.002 131.03C212.99 131.321 216.687 130.128 220.035 127.711C216.353 128.818 212.67 129.924 209.002 131.03ZM141.649 81.771C145.39 79.4711 148.505 77.5496 151.707 75.5845C147.588 76.0357 144.443 77.9426 141.649 81.771ZM196.003 73.6194C198.011 76.8072 200.064 80.0825 202.218 83.5178C201.782 78.9762 199.351 75.9338 196.003 73.6194ZM274.055 140.652C280.052 141.511 284.288 140.536 287.432 137.654C283.182 139.662 278.757 140.827 274.055 140.652ZM133.482 59.1647C136.423 58.0875 139.363 57.0104 142.304 55.9477C138.723 55.5401 135.637 56.4135 133.482 59.1647ZM84.354 59.5577C88.9248 59.3103 93.2335 59.0774 97.9207 58.8299C93.117 57.0249 88.8229 57.5344 84.354 59.5577ZM307.331 106.779C305.599 103.329 302.324 102.47 298.19 104.319C301.727 103.373 304.463 105.178 307.331 106.779ZM241.972 63.1387C240.575 58.5242 238.158 55.6129 235.902 55.1617C237.736 57.5635 239.76 60.2273 241.972 63.1387ZM304.012 58.4951C301.989 54.8997 299.208 53.5896 294.871 54.3465C299.005 54.4338 301.392 56.661 304.012 58.4951ZM301.581 89.6607C305.555 90.4758 309.107 91.2182 312.659 91.946C309.34 89.9809 305.803 89.1657 301.581 89.6607ZM170.572 96.706C167.399 94.5517 164.852 94.5953 161.722 96.706H170.572ZM265.466 100.942C264.797 99.2534 263.225 99.1079 261.755 98.8313C259.746 98.4528 259.484 98.5401 258.246 99.5154C260.474 99.9521 262.904 100.432 265.466 100.942ZM55.7795 119.502C58.487 118.861 61.1654 118.221 63.6837 117.609C60.8598 116.139 58.9965 116.561 55.7795 119.502ZM295.118 118.701C299.951 118.046 302.571 116.648 304.492 113.985C301.567 115.455 298.699 116.896 295.118 118.701ZM317.404 115.731C314.566 117.536 312.12 119.109 309.544 120.753C313.081 120.448 314.522 119.545 317.404 115.731ZM187.662 19.8912C184.343 20.1386 181.956 21.9291 179.539 24.7967C182.596 22.9481 185.129 21.4196 187.662 19.8912ZM320.024 77.9135C320.374 79.4565 320.781 80.9995 321.058 82.5571C321.349 84.1146 321.524 85.6867 321.742 87.2443C322.863 83.8235 321.902 80.8248 320.024 77.9135ZM144.924 58.2622C141.532 57.5926 138.766 58.5825 136.539 61.0862C139.188 60.1982 141.998 59.2521 144.924 58.2622ZM265.496 104.93C263.778 101.917 261.667 101.044 258.523 101.684C260.517 102.616 262.977 103.751 265.496 104.93ZM160.397 93.4163C162.974 92.7467 165.565 92.0625 168.141 91.3929C165.172 90.5777 162.683 91.553 160.397 93.4163ZM161.431 40.8672C161.213 40.7944 160.921 40.6342 160.878 40.6925C159.087 42.9342 157.952 45.4525 157.937 48.4657C159.102 45.9328 160.266 43.4 161.431 40.8672ZM155.244 41.8133C153.119 44.186 152.406 47.01 152.682 50.1251C153.541 47.3594 154.385 44.5936 155.244 41.8133ZM25.3709 131.161C22.9254 129.691 20.4799 128.221 18.0344 126.751C19.7375 129.342 22.1685 130.783 25.3709 131.161ZM173.804 45.8164C170.441 47.272 168.593 49.5283 168.433 52.1921C170.165 50.1397 171.97 47.9999 173.804 45.8164ZM166.628 89.5588C163.76 88.2341 162.421 88.5107 160.383 90.7378C162.406 90.3594 164.459 89.9663 166.628 89.5588ZM116.902 92.1353C119.304 91.8005 121.75 91.4366 124.632 91.029C121.386 89.1803 119.159 90.9416 116.902 92.1353ZM181.257 46.0493C176.846 47.3739 175.303 48.5676 174.226 50.9694C176.279 49.5428 178.506 47.9707 181.257 46.0493ZM256.267 47.7524C255.568 44.7101 253.748 42.7013 250.735 41.3766C252.729 43.6766 254.491 45.7145 256.267 47.7524ZM151.154 84.2602C147.369 85.0899 146.263 86.0361 145.288 88.9765C147.151 87.4772 148.941 86.0361 151.154 84.2602ZM28.7335 100.447C29.243 98.118 29.767 95.789 30.422 92.7903C28.2386 95.5124 27.7582 97.8851 28.7335 100.447ZM193.353 139.4C193.353 139.298 193.324 139.211 193.324 139.109H185.624C185.624 139.211 185.624 139.298 185.638 139.4H193.353ZM262.599 107.9C261.551 105.222 259.309 104.916 256.456 104.96C258.741 106.051 260.677 106.983 262.599 107.9ZM95.8973 112.791C96.1594 112.544 96.4214 112.311 96.6834 112.063C95.2569 110.506 93.8303 108.948 92.4038 107.391C92.2582 107.522 92.0981 107.667 91.9525 107.798C93.2626 109.458 94.5872 111.117 95.8973 112.776V112.791ZM71.4715 74.0124L70.962 73.5029C68.9095 74.6238 66.9444 75.8319 65.9545 79.18C68.1817 77.0838 69.8266 75.5554 71.4715 74.0124ZM195.318 119.414C195.318 119.21 195.348 119.021 195.362 118.817C192.829 118.599 190.296 118.366 187.764 118.148C187.749 118.366 187.735 118.599 187.705 118.817C190.238 119.021 192.771 119.21 195.304 119.414H195.318ZM245.684 18.9305C244.52 16.6451 242.744 15.3204 240.225 15.1312C242.045 16.3976 243.865 17.664 245.684 18.9305ZM99.3618 133.752C99.3181 133.476 99.289 133.214 99.2453 132.937C96.7707 132.661 94.2961 132.384 91.8361 132.108C91.8069 132.399 91.7924 132.69 91.7633 132.981C94.2961 133.243 96.8289 133.49 99.3763 133.752H99.3618ZM229.293 27.1695C228.347 24.9277 226.702 23.5449 224.213 23.3993C225.902 24.6512 227.59 25.903 229.293 27.1695ZM214.475 81.6837C214.766 81.6109 215.057 81.5527 215.348 81.4799C214.81 79.7913 214.286 78.1028 213.747 76.4142C213.558 76.4579 213.369 76.5161 213.194 76.5598L214.475 81.6691V81.6837ZM185.114 141.234C185.114 141.234 185.1 141.38 185.085 141.453H190.544C190.529 141.22 190.5 141.002 190.486 140.769C188.695 140.929 186.905 141.089 185.1 141.234H185.114ZM271.42 56.0205C268.698 55.9768 267.155 56.8793 266.165 58.8445C267.635 58.0584 269.12 57.2578 271.42 56.0205ZM14.0605 127.435C13.2162 125.47 12.3865 123.505 11.4694 121.35C11.0327 124.029 11.8188 126.052 14.0605 127.435ZM195.1 7.00865C195.202 7.28523 195.304 7.57636 195.391 7.85293C197.196 7.53269 199.016 7.21244 200.821 6.90676C200.777 6.63018 200.719 6.35361 200.675 6.06248C198.812 6.38272 196.963 6.68841 195.1 7.00865ZM81.2971 80.7957C79.3029 79.6603 77.5707 80.1407 75.3581 81.8438C77.8181 81.4071 79.5503 81.1014 81.2971 80.7957ZM182.48 51.8719C179.728 51.377 178.346 52.7744 176.73 55.1471C178.971 53.8661 180.616 52.9345 182.48 51.8719ZM92.7531 114.771C92.9715 114.64 93.1753 114.523 93.3936 114.392C92.331 113.111 91.2829 111.816 90.2203 110.535C90.0747 110.637 89.9292 110.753 89.7981 110.855C90.788 112.165 91.7778 113.461 92.7677 114.771H92.7531ZM185.944 27.7808C187.443 27.0676 188.928 26.3543 191.01 25.3499C188.39 25.1607 187.021 26.1651 185.944 27.7808ZM290.344 86.8658C290.125 87.0405 289.921 87.2006 289.703 87.3753C290.416 88.598 291.144 89.8208 291.857 91.029C292.061 90.9125 292.265 90.7961 292.469 90.6796C291.756 89.4132 291.042 88.1322 290.329 86.8658H290.344ZM258.494 58.3787C258.94 56.9133 258.591 55.7342 257.446 54.8414C257.824 56.0933 258.159 57.2433 258.494 58.3787ZM15.6326 123.927C15.8364 123.898 16.0256 123.854 16.2294 123.825C15.9528 122.311 15.6908 120.812 15.4142 119.298C15.225 119.327 15.0503 119.356 14.8611 119.385C15.1086 120.899 15.3706 122.413 15.618 123.912L15.6326 123.927ZM41.9945 136.009L42.1692 135.47C41.0192 135.295 39.8547 135.135 38.7047 134.961L38.661 135.354C39.7673 135.572 40.8882 135.79 41.9945 136.009ZM301.101 128.614C301.101 128.745 301.115 128.876 301.13 129.022H306.181C306.181 128.803 306.167 128.585 306.152 128.366C304.463 128.454 302.775 128.541 301.101 128.629V128.614ZM161.737 141.788C161.649 142.035 161.562 142.283 161.475 142.53C162.916 142.923 164.342 143.301 165.783 143.695C165.841 143.462 165.914 143.229 165.972 142.981C164.561 142.588 163.149 142.181 161.737 141.788ZM270.328 127.362C270.299 127.479 270.27 127.595 270.226 127.711H274.491C274.491 127.595 274.491 127.479 274.491 127.362H270.314H270.328ZM255.146 59.5286C255.107 60.9649 255.631 62.1731 256.718 63.1532C256.048 61.6102 255.597 60.5767 255.146 59.5286ZM189.976 29.2365C189.874 28.9745 189.787 28.7124 189.685 28.465C188.477 29.0181 187.269 29.5713 186.075 30.1244C186.162 30.3282 186.25 30.532 186.352 30.7358C187.56 30.2409 188.768 29.746 189.976 29.2365ZM137.165 136.3C137.369 136.111 137.573 135.921 137.776 135.747C136.83 134.99 135.899 134.218 134.953 133.461C134.836 133.607 134.734 133.738 134.618 133.883C135.462 134.699 136.306 135.499 137.165 136.314V136.3ZM252.86 61.8431C252.613 61.945 252.351 62.0324 252.104 62.1343C252.555 63.3279 253.021 64.507 253.472 65.7006C253.69 65.6278 253.894 65.5405 254.112 65.4677C253.69 64.2595 253.283 63.0513 252.86 61.8431ZM129.537 74.9586C129.625 74.6965 129.712 74.4345 129.785 74.1871C128.722 73.925 127.645 73.6776 126.583 73.4156C126.553 73.532 126.524 73.6485 126.495 73.7795C127.514 74.1725 128.519 74.5801 129.537 74.9731V74.9586ZM254.141 26.4707C254.258 26.2815 254.374 26.0923 254.491 25.9176C253.457 25.2771 252.424 24.6512 251.39 24.0107C251.288 24.1708 251.201 24.3164 251.099 24.4765C252.104 25.1461 253.122 25.8157 254.127 26.4853L254.141 26.4707ZM141.43 133.388C141.547 133.214 141.663 133.039 141.78 132.879C141.008 132.486 140.251 132.078 139.48 131.685C139.421 131.816 139.349 131.933 139.29 132.064C140.004 132.515 140.717 132.952 141.43 133.403V133.388ZM208.376 137.29C208.376 137.29 208.376 137.275 208.376 137.261H206.454V137.29H208.361H208.376ZM260.182 50.3435C259.877 50.5036 259.586 50.6783 259.28 50.8384C259.644 51.7118 260.022 52.5706 260.386 53.444L261.187 53.1238L260.182 50.3435ZM301.596 130.812C301.596 130.914 301.596 131.016 301.61 131.118H304.143C304.143 130.943 304.129 130.783 304.114 130.608C303.27 130.681 302.44 130.739 301.596 130.812ZM234.825 84.333C234.636 84.1437 234.446 83.9691 234.243 83.7798C233.719 84.1292 233.195 84.4931 232.671 84.8424C232.889 85.0608 233.093 85.2791 233.311 85.4829C233.821 85.0899 234.33 84.7114 234.825 84.3184V84.333Z" fill="white"/>
<path d="M160.965 25.4809C161.882 24.8113 162.887 24.2582 163.702 23.4721C168.593 18.7413 173.95 14.7382 180.427 12.4674C182.683 11.6668 185.056 11.1719 187.516 10.8807C179.583 13.5883 172.217 17.1692 166.235 23.1665C160.281 29.1201 155.317 35.7724 151.416 43.3564C151.518 42.8178 151.562 42.2646 151.722 41.726C151.882 41.1729 152.115 40.6343 152.348 40.1103C153.41 37.7958 154.487 35.4958 155.565 33.1959C156.554 31.682 157.53 30.1827 158.52 28.6834C159.844 27.9847 160.921 27.0822 161.038 25.4518L160.994 25.4809H160.965Z" fill="black"/>
<path d="M110.92 56.428C112.725 58.0438 114.544 59.6596 116.349 61.2608L115.782 61.9304C113.787 61.5083 112.594 59.7761 111.007 58.6989C109.377 57.5926 107.877 56.2679 106.189 55.249C104.413 54.1718 102.535 53.1819 100.599 52.4541C98.7941 51.7845 96.8436 51.5079 94.9949 50.8675C97.8625 50.6637 100.599 51.1586 103.263 52.163C104.326 52.5706 105.446 52.8326 106.538 53.1528L106.407 53.0509C107.834 54.1281 109.275 55.2199 110.701 56.297L110.92 56.428Z" fill="black"/>
<path d="M110.701 56.2971C109.275 55.2199 107.834 54.1282 106.407 53.051C108.401 53.3858 110.061 54.1719 110.701 56.2971Z" fill="white"/>
<path d="M161.009 25.4518C160.892 27.0967 159.815 27.9992 158.49 28.6833C159.335 27.6061 160.164 26.529 161.009 25.4518Z" fill="white"/>
<path d="M132.667 80.2136C142.376 64.0122 156.554 58.044 175.129 64.216C182.421 66.6469 192.334 76.7928 192.436 81.6256C191.767 81.2617 191.097 81.087 190.704 80.6648C189.001 78.7579 187.181 76.9093 185.769 74.8131C181.228 68.0589 174.343 65.133 166.86 64.347C153.599 62.9787 143.09 68.2918 135.724 79.5149C134.836 80.8686 134.094 82.3097 133.162 83.9546C132.23 83.3869 131.372 82.8629 130.513 82.3389C123.278 77.8991 115.403 78.263 108.722 83.4306C104.69 86.5457 101.414 90.243 99.8276 95.2214C99.6966 95.6435 99.4055 96.022 98.8669 97.0264C98.6194 95.7163 98.2846 94.9885 98.372 94.3043C99.0561 89.0785 102.186 85.4248 106.291 82.5135C108.562 80.9123 110.978 79.4858 113.423 78.1466C116.306 76.589 119.523 76.5017 122.609 77.1858C125.855 77.8991 128.999 79.0927 132.623 80.2136H132.667Z" fill="black"/>
<path d="M288.917 100.84C288.393 99.8212 287.738 98.875 287.374 97.8124C284.259 88.8164 277.607 83.7799 268.654 81.8147C258.246 79.5294 248.799 81.7274 240.837 89.1367C240.284 89.6462 239.57 89.9664 238.522 90.6215C238.581 89.486 238.45 88.7437 238.697 88.2051C239.032 87.4918 239.614 86.8368 240.225 86.3418C250.037 78.2921 268.509 73.7213 281.974 85.6577C284.885 88.2487 287.185 91.2765 288.844 94.7992C289.223 95.6143 289.645 96.4295 290.213 97.5795C295.409 94.8865 300.519 92.3391 306.487 94.6536C310.315 96.1384 314.202 97.4776 316.924 100.709C318.831 102.98 321.203 105.294 319.908 109.297C319.18 108.715 318.656 108.468 318.394 108.046C317.128 106.124 316.065 104.057 314.682 102.208C312.673 99.5446 309.791 97.9434 306.676 97.1428C300.752 95.6143 295.133 96.4877 290.169 100.331C289.907 100.534 289.543 100.593 288.932 100.84H288.917Z" fill="black"/>
<path d="M85.4748 121.598C84.2667 120.273 82.7819 119.094 81.8939 117.58C79.9142 114.174 76.9156 112.063 73.4366 110.651C70.2342 109.356 66.9153 108.22 63.5527 107.449C59.2585 106.459 55.2264 107.58 51.7037 110.2C48.9088 112.282 46.0849 114.363 43.5666 116.765C41.9362 118.323 40.83 120.448 39.5344 122.355C39.1705 122.879 38.9522 123.49 38.006 123.971C38.0497 123.039 37.9332 122.049 38.1952 121.176C38.5155 120.069 38.9522 118.934 39.6218 118.017C50.6119 103.053 67.3228 101.277 81.0788 112.878C83.1458 114.625 84.5432 117.187 86.159 119.443C86.4356 119.822 86.2463 120.521 86.2755 121.074C86.0134 121.248 85.7369 121.438 85.4748 121.612V121.598Z" fill="black"/>
<path d="M140.702 140.463C142.376 141.176 144.138 141.759 145.724 142.617C153.978 147.115 162.595 150.58 172.043 151.264C178.52 151.744 185.056 151.861 191.563 151.657C207.633 151.148 222.699 146.562 237.169 139.793C239.032 138.92 240.91 138.032 243.079 137.668C241.899 138.425 240.749 139.226 239.541 139.939C228.391 146.373 216.265 149.881 203.587 151.584C193.528 152.938 183.44 153.331 173.294 152.341C164.255 151.468 155.739 148.935 147.748 144.67C145.346 143.389 143.09 141.831 140.761 140.39L140.702 140.463Z" fill="black"/>
<path d="M210.734 5.17456C213.703 4.54863 216.513 5.21823 219.279 6.07707C228.711 8.98837 236.645 14.418 243.894 20.9102C250.531 26.8638 255.932 33.8509 260.43 41.5368C260.706 42.0026 260.91 42.4975 260.765 43.2836C260.197 42.6576 259.6 42.0608 259.091 41.3912C256.354 37.7666 253.676 34.0984 250.939 30.4884C245.175 22.8608 238.042 16.7761 229.861 11.8851C223.951 8.34789 217.692 5.77138 210.734 5.18912V5.17456Z" fill="black"/>
<path d="M136.99 83.0666C137.602 78.8888 140.135 75.8902 143.264 73.4301C158.112 61.7267 173.979 64.769 186.002 77.2148C186.061 77.2731 186.002 77.4332 185.959 78.03C184.518 76.9819 183.28 76.0649 182.028 75.1624C178.171 72.353 174.182 69.7619 169.568 68.3062C164.997 66.8651 160.456 66.7924 155.856 68.1461C147.282 70.6789 141.75 75.075 137.005 83.052L136.99 83.0666Z" fill="black"/>
<path d="M335.498 107.099C338.191 109.094 338.831 111.976 339.05 114.916C339.647 123.184 334.45 130.899 326.211 134.116C321.334 136.009 316.327 136.416 311.174 134.902C313.809 134.902 316.443 135.092 319.064 134.859C324.202 134.422 328.787 132.515 332.397 128.774C337.638 123.374 339.21 117.071 336.546 109.88C336.197 108.948 335.862 108.016 335.512 107.085L335.498 107.099Z" fill="black"/>
<path d="M50.6848 81.3198C32.5619 74.0707 19.9123 88.4234 20.3781 103.14C20.2179 102.47 19.9414 101.801 19.8977 101.117C19.1553 90.5341 27.5399 79.9952 38.006 78.4813C42.5331 77.8262 46.7108 79.0927 50.6702 81.3198H50.6848Z" fill="black"/>
<path d="M198.87 145.616C206.309 145.412 213.602 144.102 220.56 141.395C227.328 138.745 233.981 135.79 240.851 132.894C233.035 140.128 211.724 146.62 198.87 145.616Z" fill="black"/>
<path d="M330.272 95.4106C330.039 81.5528 329.079 67.8842 318.86 56.5447C327.39 60.9262 332.776 79.3984 330.272 95.4106Z" fill="black"/>
<path d="M282.891 98.9476C281.304 96.6768 279.877 94.2604 278.087 92.1643C271.711 84.7405 263.647 82.2658 254.243 84.7696C251.55 85.4828 249.134 87.186 246.616 88.4233C249.512 83.8088 258.29 81.6399 265.889 83.343C274.564 85.279 281.712 91.6403 282.891 98.9476Z" fill="black"/>
<path d="M87.6001 145.5C101.502 150.653 114.34 149.706 126 139.633C119.013 150.9 99.5947 152.574 87.6001 145.5Z" fill="black"/>
<path d="M263.036 143.2C266.063 143.913 269.062 144.844 272.133 145.31C280.576 146.577 288.204 144.189 295.278 139.677C296.719 138.76 298.131 137.814 299.965 137.26C299.514 137.799 299.136 138.425 298.597 138.876C289.092 147.013 278.291 148.353 266.616 144.874C265.379 144.51 264.258 143.709 263.094 143.127L263.036 143.2Z" fill="black"/>
<path d="M237.503 82.4406C245.291 75.3225 264.855 71.6688 277.126 78.7578C263.385 74.3035 250.153 75.2643 237.503 82.4406Z" fill="black"/>
<path d="M43.2609 123.199C43.2172 123.097 43.1153 122.966 43.1444 122.893C46.7253 114.421 58.356 108.366 67.3083 110.36C72.1702 111.452 75.4891 114.64 77.9491 118.89C77.4542 118.512 76.901 118.177 76.4498 117.74C72.3885 113.65 67.8905 110.418 61.7477 111.263C54.9207 112.209 49.1999 115.266 45.0659 120.943C44.5273 121.685 44.0033 122.457 43.4647 123.199C43.4356 123.228 43.3191 123.199 43.2463 123.199H43.2609Z" fill="black"/>
<path d="M23.3622 139.983C35.9681 143.229 48.6323 143.534 61.413 142.035C48.4868 145.296 35.7644 144.51 23.3622 139.983Z" fill="black"/>
<path d="M258.829 134.306C270.561 138.411 282.075 136.329 294.041 132.937C287.228 138.352 266.893 139.823 258.829 134.306Z" fill="black"/>
<path d="M67.6723 143.665C55.8087 147.698 43.7268 148.032 31.4993 145.718C37.4674 145.718 43.4647 145.98 49.4184 145.645C55.5176 145.296 61.5876 144.35 67.6723 143.665Z" fill="black"/>
<path d="M273.312 47.3594C281.173 40.8817 301.261 40.9545 307.608 49.1498C302.353 46.1948 296.836 44.2006 290.78 43.9386C284.681 43.6766 278.844 44.6664 273.312 47.3594Z" fill="black"/>
<path d="M177.938 127.333C189.598 129.895 201.068 127.784 212.815 126.052C207.997 129.473 187.152 131.38 177.938 127.333Z" fill="black"/>
<path d="M106.509 90.1557C106.509 90.0392 106.436 89.8937 106.48 89.8209C110.512 82.8192 122.347 79.6895 129.159 83.8527C129.974 84.3476 130.687 85.0463 131.168 86.0944C130.338 85.7887 129.508 85.4685 128.664 85.1773C120.658 82.4116 113.394 83.154 107.295 89.6025C107.077 89.8354 106.727 89.9373 106.436 90.0974L106.509 90.1557Z" fill="black"/>
<path d="M122.055 137.115C114.093 145.878 97.2657 149.299 87.1052 142.821C92.9715 144.917 98.896 146.023 105.112 144.641C111.284 143.272 116.67 140.23 122.055 137.1V137.115Z" fill="black"/>
<path d="M14.4972 110.069C10.4068 113.126 7.32086 116.707 7.14618 122.136C6.9715 127.537 10.5524 130.666 14.8757 134.174C9.38789 132.268 6.03989 127.784 5.89432 123.01C5.7342 117.303 9.22777 111.918 14.4972 110.069Z" fill="black"/>
<path d="M155.157 142.079C165.216 147.217 176.206 147.989 187.152 148.993C177.72 150.187 160.572 147.421 155.157 142.079Z" fill="black"/>
<path d="M195.784 13.7484C185.842 16.7179 176.118 20.0805 168.811 28.8872C171.882 21.6381 186.847 13.3991 195.784 13.7484Z" fill="black"/>
<path d="M290.722 102.834C299.005 94.7847 313.037 99.5884 314.522 108.177C311.189 104.698 308.583 100.68 303.59 99.8649C298.903 99.0934 294.783 100.84 290.722 102.834Z" fill="black"/>
<path d="M104.471 71.8434C96.3486 70.708 88.3716 68.0732 80.0453 70.3295C88.4299 66.9233 96.5087 68.6118 104.471 71.8434Z" fill="black"/>
<path d="M228.144 19.1052C236.615 22.133 242.904 27.9265 248.13 35.0592C241.987 29.0765 235.902 23.0209 228.144 19.1052Z" fill="black"/>
<path d="M284.958 131.54C276.005 133.287 267.373 132.908 259.513 127.624C267.519 132.02 276.282 131.438 284.958 131.54Z" fill="black"/>
<path d="M33.5226 121.656C36.1719 113.097 47.4969 104.756 54.4986 104.406C45.4832 109.162 38.4912 114.911 33.5226 121.656Z" fill="black"/>
<path d="M98.4156 85.3666C103.481 78.2921 109.857 73.4593 118.955 73.503C108.707 76.3852 107.441 77.1276 98.4156 85.3666Z" fill="black"/>
<path d="M143.308 53.5023C136.277 54.6814 129.13 55.4674 124.21 62.4109C126.728 55.8895 136.219 51.5808 143.308 53.5023Z" fill="black"/>
<path d="M84.4413 138.454C87.8621 139.051 91.5886 139.997 95.3442 140.245C99.027 140.477 102.739 139.983 106.567 139.808C101.982 142.85 89.2159 141.831 84.4268 138.469L84.4413 138.454Z" fill="black"/>
<path d="M272.104 93.6782C268.902 91.3491 266.922 87.8555 262.948 87.317C259.193 86.8075 255.699 87.7245 252.278 89.2384C258.596 84.2746 267.97 85.1189 272.104 93.6782Z" fill="black"/>
<path d="M328.875 109.327C330.403 117.769 326.167 126.154 318.903 128.512C325.643 123.519 329.559 117.624 328.875 109.327Z" fill="black"/>
<path d="M146.816 129.502C152.755 132.763 159.116 134.742 166.322 136.038C161.009 137.013 152.566 134.175 146.816 129.502Z" fill="black"/>
<path d="M235.451 47.767C241.972 50.6346 246.951 54.9579 248.872 62.1634C246.936 59.4704 245.247 56.5591 243.006 54.1573C240.779 51.77 237.998 49.8777 235.451 47.7815V47.767Z" fill="black"/>
<path d="M267.111 45.6562C263.501 39.8772 259.877 34.0983 256.267 28.3193C261.027 33.3705 265.175 38.8292 267.111 45.6562Z" fill="black"/>
<path d="M34.8473 85.1483C39.4763 80.9705 46.7545 81.5237 50.7285 86.3856C45.6191 83.4452 40.3497 82.7901 34.8473 85.1483Z" fill="black"/>
<path d="M66.0127 114.392C59.7826 114.378 54.5422 115.586 50.4955 119.953C54.2511 114.261 60.8306 111.743 66.0127 114.392Z" fill="black"/>
<path d="M82.0104 57.054C87.1489 53.8225 92.6367 52.8181 98.4302 55.3218C95.6353 55.3218 92.8259 55.0889 90.0602 55.38C87.3527 55.6712 84.6888 56.4718 81.9958 57.054H82.0104Z" fill="black"/>
<path d="M322.674 74.5073C323.052 74.6674 323.649 74.7402 323.765 75.0168C326.211 80.4318 327.463 85.9779 325.221 91.8005C324.974 92.4264 324.595 93.0087 324.013 93.5909C325.847 87.0114 325.643 80.6211 322.717 74.4491L322.659 74.5073H322.674Z" fill="black"/>
<path d="M238.173 41.7114C243.515 43.4 249.221 49.4264 250.342 55.0307C246.82 49.4118 243.079 45.0012 238.173 41.7114Z" fill="black"/>
<path d="M89.7108 135.179C95.548 136.882 101.429 136.547 107.324 135.688C101.385 138.032 95.5043 137.872 89.7108 135.179Z" fill="black"/>
<path d="M318.714 118.119C315.774 122.631 311.64 124.917 306.254 124.844C310.912 123.475 315.017 121.176 318.714 118.119Z" fill="black"/>
<path d="M82.156 75.5408C77.2941 76.4433 72.869 78.2483 68.9532 81.6982C70.8893 77.535 76.741 74.7838 82.156 75.5408Z" fill="black"/>
<path d="M265.554 62.9639C269.688 59.1356 273.909 58.1166 280.489 59.1647C277.461 59.5577 274.928 59.6596 272.526 60.2855C270.125 60.9115 267.868 62.0469 265.554 62.9639Z" fill="black"/>
<path d="M113.525 88.7874C114.166 86.9096 115.985 86.8805 117.441 86.4438C121.371 85.2501 124.938 85.745 128.388 88.2051C122.827 86.8368 118.082 86.8513 113.467 88.7146L113.525 88.7874Z" fill="black"/>
<path d="M187.545 122.806C194.649 122.267 201.49 121.758 208.667 121.205C201.607 123.374 194.736 123.534 187.545 122.806Z" fill="black"/>
<path d="M172.96 74.1873C178.113 74.7986 181.883 77.608 185.609 80.5339C183.222 80.4611 181.461 78.9764 179.525 77.7973C177.472 76.56 175.318 75.4682 172.96 74.1873Z" fill="black"/>
<path d="M302.76 52.4542C302.527 52.4396 302.265 52.4978 302.091 52.3814C296.501 49.0625 290.445 48.2619 284.084 48.9897L284.157 49.0625C284.273 48.8733 284.375 48.553 284.535 48.5239C290.795 47.4467 296.807 47.898 302.265 51.5226C302.527 51.6972 302.673 52.0466 302.877 52.3232L302.775 52.4396L302.76 52.4542Z" fill="black"/>
<path d="M290.446 68.7868C285.031 65.6571 280.067 63.692 274.433 64.2014C280.3 62.5129 286.428 64.1432 290.446 68.7868Z" fill="black"/>
<path d="M172.814 77.7679C177.618 78.9616 181.621 81.3634 184.416 85.5994C180.544 82.9937 176.686 80.3736 172.814 77.7679Z" fill="black"/>
<path d="M84.5432 63.7937C89.4342 61.9304 93.9176 61.5374 99.158 63.7937H84.5432Z" fill="black"/>
<path d="M26.4773 92.4556C25.6475 96.3567 24.876 100.054 24.1337 103.548C22.4305 101.233 23.3767 96.2694 26.4773 92.4556Z" fill="black"/>
<path d="M93.0006 122.617C89.9437 118.861 86.8432 115.047 83.9464 111.51C87.6874 112.878 91.705 117.696 93.0006 122.617Z" fill="black"/>
<path d="M33.3771 138.003C39.2288 138.425 44.3236 138.789 49.4184 139.153C44.1926 139.997 39.025 139.837 33.3771 138.003Z" fill="black"/>
<path d="M332.514 112.529C333.169 117.289 334.057 122.049 329.297 126.008C330.36 123.476 331.495 121.51 331.99 119.371C332.499 117.158 332.368 114.814 332.514 112.529Z" fill="black"/>
<path d="M209.002 131.03C212.684 129.924 216.367 128.818 220.035 127.711C216.687 130.128 212.976 131.321 209.002 131.03Z" fill="black"/>
<path d="M141.649 81.771C144.443 77.9426 147.573 76.0357 151.707 75.5845C148.505 77.5496 145.404 79.4711 141.649 81.771Z" fill="black"/>
<path d="M196.003 73.6194C199.351 75.9339 201.782 78.9762 202.218 83.5178C200.064 80.097 197.997 76.8073 196.003 73.6194Z" fill="black"/>
<path d="M274.055 140.652C278.757 140.827 283.182 139.662 287.432 137.654C284.288 140.536 280.052 141.526 274.055 140.652Z" fill="black"/>
<path d="M133.482 59.1646C135.637 56.4135 138.708 55.5401 142.304 55.9476C139.363 57.0248 136.423 58.102 133.482 59.1646Z" fill="black"/>
<path d="M84.354 59.5577C88.8229 57.5343 93.117 57.0249 97.9207 58.8299C93.248 59.0773 88.9393 59.3102 84.354 59.5577Z" fill="black"/>
<path d="M307.331 106.779C304.463 105.163 301.727 103.373 298.189 104.319C302.324 102.485 305.599 103.329 307.331 106.779Z" fill="black"/>
<path d="M224.446 133.33C223.383 133.869 222.365 134.582 221.244 134.931C218.813 135.659 216.324 136.242 213.849 136.809C213.208 136.955 212.495 136.838 211.447 136.838C216.076 135.63 220.298 134.509 224.519 133.403L224.461 133.345L224.446 133.33Z" fill="black"/>
<path d="M241.972 63.1387C239.745 60.2129 237.736 57.5636 235.902 55.1617C238.158 55.6276 240.575 58.5389 241.972 63.1387Z" fill="black"/>
<path d="M304.012 58.4951C301.392 56.6464 299.005 54.4339 294.871 54.3465C299.194 53.5896 301.989 54.9142 304.012 58.4951Z" fill="black"/>
<path d="M301.581 89.6606C305.803 89.1657 309.34 89.9809 312.659 91.946C309.107 91.2182 305.555 90.4758 301.581 89.6606Z" fill="black"/>
<path d="M170.572 96.706H161.722C164.852 94.5953 167.399 94.5516 170.572 96.706Z" fill="black"/>
<path d="M265.466 100.942C262.904 100.433 260.488 99.9668 258.246 99.5156C259.484 98.5403 259.746 98.4529 261.754 98.8314C263.21 99.108 264.782 99.2535 265.466 100.942Z" fill="black"/>
<path d="M55.7795 119.502C58.9965 116.561 60.8598 116.139 63.6837 117.609C61.1655 118.206 58.4871 118.847 55.7795 119.502Z" fill="black"/>
<path d="M295.118 118.701C298.699 116.896 301.567 115.455 304.493 113.985C302.571 116.648 299.951 118.046 295.118 118.701Z" fill="black"/>
<path d="M317.404 115.731C314.522 119.531 313.081 120.448 309.544 120.753C312.12 119.108 314.566 117.551 317.404 115.731Z" fill="black"/>
<path d="M187.662 19.8912C185.129 21.4197 182.596 22.9627 179.539 24.7968C181.941 21.9291 184.343 20.1387 187.662 19.8912Z" fill="black"/>
<path d="M320.024 77.9135C321.917 80.8102 322.863 83.8234 321.742 87.2442C321.524 85.6866 321.349 84.1 321.058 82.557C320.767 80.9994 320.374 79.4564 320.024 77.9135Z" fill="black"/>
<path d="M144.924 58.2623C141.998 59.2522 139.188 60.1983 136.539 61.0863C138.766 58.5826 141.518 57.5927 144.924 58.2623Z" fill="black"/>
<path d="M265.496 104.931C262.963 103.752 260.503 102.616 258.523 101.684C261.667 101.044 263.778 101.917 265.496 104.931Z" fill="black"/>
<path d="M160.397 93.4163C162.683 91.5676 165.172 90.5778 168.141 91.393C165.565 92.0626 162.974 92.7467 160.397 93.4163Z" fill="black"/>
<path d="M161.431 40.8671C160.266 43.4 159.102 45.9328 157.937 48.4657C157.937 45.4525 159.087 42.9342 160.878 40.6925C160.921 40.6488 161.212 40.7944 161.431 40.8671Z" fill="black"/>
<path d="M155.244 41.8134C154.386 44.5791 153.541 47.3448 152.682 50.1251C152.406 47.01 153.134 44.1861 155.244 41.8134Z" fill="black"/>
<path d="M25.3709 131.161C22.1685 130.783 19.7375 129.342 18.0344 126.751C20.4799 128.221 22.9254 129.691 25.3709 131.161Z" fill="black"/>
<path d="M173.804 45.8164C171.97 47.9853 170.165 50.1251 168.433 52.1922C168.578 49.5429 170.427 47.2866 173.804 45.8164Z" fill="black"/>
<path d="M166.628 89.5588C164.459 89.9664 162.406 90.3594 160.383 90.7379C162.435 88.5108 163.76 88.2342 166.628 89.5588Z" fill="black"/>
<path d="M116.902 92.1352C119.159 90.9415 121.386 89.1947 124.632 91.0289C121.75 91.4364 119.304 91.7858 116.902 92.1352Z" fill="black"/>
<path d="M181.257 46.0492C178.506 47.9707 176.264 49.5282 174.226 50.9693C175.303 48.582 176.846 47.3884 181.257 46.0492Z" fill="black"/>
<path d="M256.267 47.7523C254.505 45.7144 252.729 43.662 250.735 41.3766C253.748 42.7158 255.553 44.7246 256.267 47.7523Z" fill="black"/>
<path d="M151.154 84.2601C148.941 86.036 147.151 87.4771 145.288 88.9764C146.263 86.036 147.369 85.0899 151.154 84.2601Z" fill="black"/>
<path d="M28.7335 100.447C27.7582 97.8705 28.2386 95.4978 30.422 92.7903C29.7524 95.7889 29.243 98.118 28.7335 100.447Z" fill="black"/>
<path d="M193.353 139.4H185.638C185.638 139.298 185.638 139.211 185.624 139.109H193.324C193.324 139.211 193.353 139.298 193.353 139.4Z" fill="black"/>
<path d="M262.599 107.9C260.677 106.983 258.741 106.051 256.456 104.96C259.309 104.916 261.551 105.222 262.599 107.9Z" fill="black"/>
<path d="M95.8973 112.791C94.5872 111.132 93.2626 109.472 91.9525 107.813C92.0981 107.682 92.2582 107.536 92.4038 107.405C93.8303 108.963 95.2568 110.52 96.6834 112.078C96.4214 112.325 96.1594 112.558 95.8973 112.806V112.791Z" fill="black"/>
<path d="M71.4715 74.0124C69.8266 75.5554 68.1963 77.0838 65.9546 79.18C66.9444 75.8174 68.9096 74.6092 70.962 73.5029L71.4715 74.0124Z" fill="black"/>
<path d="M195.318 119.414C192.786 119.21 190.253 119.021 187.72 118.817C187.735 118.599 187.749 118.366 187.778 118.148C190.311 118.366 192.844 118.599 195.377 118.817C195.377 119.021 195.348 119.21 195.333 119.414H195.318Z" fill="black"/>
<path d="M245.684 18.9304C243.865 17.6639 242.045 16.3975 240.225 15.1311C242.744 15.3203 244.52 16.645 245.684 18.9304Z" fill="black"/>
<path d="M99.3619 133.752C96.829 133.49 94.2962 133.243 91.7488 132.981C91.7779 132.69 91.7924 132.399 91.8216 132.107C94.2962 132.384 96.7708 132.661 99.2308 132.937C99.2745 133.214 99.3036 133.476 99.3473 133.752H99.3619Z" fill="black"/>
<path d="M229.293 27.1694C227.605 25.9176 225.916 24.6657 224.213 23.3993C226.702 23.5303 228.347 24.9132 229.293 27.1694Z" fill="black"/>
<path d="M257.431 140.405C254.957 139.997 253.312 138.323 251.536 136.824C251.667 136.635 251.783 136.445 251.914 136.271C253.734 137.668 255.554 139.066 257.373 140.463L257.431 140.39V140.405Z" fill="black"/>
<path d="M214.475 81.6837L213.194 76.5744C213.383 76.5307 213.572 76.4725 213.747 76.4288C214.286 78.1174 214.81 79.8059 215.348 81.4945C215.057 81.5673 214.766 81.6255 214.475 81.6983V81.6837Z" fill="black"/>
<path d="M185.114 141.234C186.905 141.074 188.695 140.914 190.5 140.769C190.515 141.002 190.544 141.22 190.559 141.453H185.1C185.1 141.453 185.114 141.307 185.129 141.234H185.114Z" fill="black"/>
<path d="M271.42 56.0206C269.106 57.2579 267.635 58.0439 266.165 58.8445C267.155 56.8794 268.698 55.9769 271.42 56.0206Z" fill="black"/>
<path d="M14.0605 127.435C11.8188 126.052 11.0327 124.029 11.4694 121.35C12.3865 123.504 13.2308 125.47 14.0605 127.435Z" fill="black"/>
<path d="M195.1 7.00867C196.963 6.68843 198.812 6.38274 200.675 6.0625C200.719 6.33907 200.777 6.61565 200.821 6.90678C199.016 7.22702 197.196 7.54727 195.391 7.85295C195.289 7.57638 195.187 7.28525 195.1 7.00867Z" fill="black"/>
<path d="M81.2972 80.7958C79.5504 81.1015 77.8182 81.4217 75.3582 81.8439C77.5707 80.1262 79.303 79.6604 81.2972 80.7958Z" fill="black"/>
<path d="M208.434 77.6078C210.559 78.8305 210.588 80.7666 209.788 82.9791C209.366 81.1741 208.929 79.3546 208.507 77.5496L208.434 77.6078Z" fill="black"/>
<path d="M182.48 51.8717C180.616 52.9343 178.986 53.8659 176.73 55.1469C178.346 52.7742 179.728 51.3913 182.48 51.8717Z" fill="black"/>
<path d="M92.7531 114.771C91.7633 113.461 90.7734 112.165 89.7836 110.855C89.9291 110.753 90.0747 110.637 90.2057 110.535C91.2683 111.816 92.3164 113.111 93.379 114.392C93.1607 114.523 92.9569 114.64 92.7385 114.771H92.7531Z" fill="black"/>
<path d="M106.451 90.0829C105.694 91.9752 104.951 93.8676 104.195 95.7599C104.02 93.46 104.486 91.4366 106.524 90.1411L106.451 90.0829Z" fill="black"/>
<path d="M185.944 27.7808C187.036 26.165 188.39 25.1606 191.01 25.3498C188.928 26.3542 187.429 27.0675 185.944 27.7808Z" fill="black"/>
<path d="M257.373 140.478C259.265 141.395 261.158 142.297 263.05 143.2L263.108 143.127C260.823 143.04 258.887 142.224 257.431 140.405L257.373 140.478Z" fill="black"/>
<path d="M290.344 86.8658C291.057 88.1323 291.77 89.4132 292.483 90.6797C292.28 90.7961 292.076 90.9126 291.872 91.029C291.159 89.8063 290.431 88.5835 289.718 87.3753C289.936 87.2006 290.14 87.0405 290.358 86.8658H290.344Z" fill="black"/>
<path d="M258.494 58.3787C258.159 57.2433 257.81 56.0933 257.446 54.8414C258.591 55.7342 258.94 56.9133 258.494 58.3787Z" fill="black"/>
<path d="M15.6327 123.927C15.3852 122.413 15.1232 120.899 14.8757 119.4C15.065 119.371 15.2396 119.342 15.4289 119.312C15.7055 120.826 15.9675 122.326 16.244 123.84C16.0403 123.869 15.851 123.912 15.6472 123.941L15.6327 123.927Z" fill="black"/>
<path d="M41.9945 136.009C40.8882 135.79 39.7673 135.572 38.661 135.354L38.7047 134.961C39.8546 135.135 41.0192 135.295 42.1691 135.47L41.9945 136.009Z" fill="black"/>
<path d="M301.101 128.614C302.789 128.527 304.478 128.439 306.152 128.352C306.152 128.57 306.167 128.789 306.181 129.007H301.13C301.13 128.876 301.115 128.745 301.101 128.599V128.614Z" fill="black"/>
<path d="M140.761 140.39C139.29 139.764 137.82 139.138 136.335 138.512C136.481 138.25 136.627 137.988 136.758 137.726C138.068 138.643 139.378 139.56 140.688 140.478L140.746 140.405L140.761 140.39Z" fill="black"/>
<path d="M161.737 141.788C163.149 142.181 164.561 142.588 165.973 142.981C165.914 143.214 165.842 143.447 165.783 143.695C164.342 143.302 162.916 142.923 161.475 142.53C161.562 142.283 161.649 142.035 161.737 141.788Z" fill="black"/>
<path d="M270.328 127.362H274.506C274.506 127.479 274.506 127.595 274.506 127.712H270.241C270.27 127.595 270.299 127.479 270.343 127.362H270.328Z" fill="black"/>
<path d="M255.146 59.5286C255.597 60.5766 256.048 61.6247 256.718 63.1531C255.631 62.173 255.107 60.9648 255.146 59.5286Z" fill="black"/>
<path d="M189.976 29.2365C188.768 29.7314 187.56 30.2263 186.352 30.7358C186.264 30.532 186.177 30.3282 186.075 30.1244C187.283 29.5713 188.491 29.0181 189.685 28.465C189.787 28.727 189.874 28.989 189.976 29.2365Z" fill="black"/>
<path d="M137.165 136.3C136.321 135.485 135.477 134.684 134.618 133.869C134.734 133.723 134.836 133.592 134.953 133.447C135.899 134.204 136.83 134.975 137.777 135.732C137.573 135.921 137.369 136.111 137.165 136.285V136.3Z" fill="black"/>
<path d="M252.86 61.8431C253.283 63.0513 253.69 64.2595 254.112 65.4677C253.894 65.5405 253.69 65.6278 253.472 65.7006C253.021 64.507 252.555 63.3279 252.104 62.1343C252.351 62.0324 252.613 61.945 252.86 61.8431Z" fill="black"/>
<path d="M129.538 74.9587C128.519 74.5656 127.514 74.1581 126.495 73.765C126.524 73.6486 126.553 73.5321 126.583 73.4011C127.645 73.6631 128.722 73.9106 129.785 74.1726C129.698 74.4346 129.61 74.6967 129.538 74.9441V74.9587Z" fill="black"/>
<path d="M254.142 26.4707C253.137 25.8011 252.118 25.1315 251.114 24.4619C251.216 24.3018 251.303 24.1562 251.405 23.9961C252.438 24.6366 253.472 25.2625 254.505 25.903C254.389 26.0922 254.273 26.2815 254.156 26.4561L254.142 26.4707Z" fill="black"/>
<path d="M113.453 88.7146C112.681 89.7627 111.924 90.8107 111.153 91.8588C111.342 90.3304 111.706 88.9329 113.525 88.7874L113.467 88.7146H113.453Z" fill="black"/>
<path d="M141.43 133.389C140.717 132.937 140.004 132.501 139.29 132.049C139.349 131.918 139.421 131.802 139.48 131.671C140.251 132.064 141.008 132.472 141.78 132.865C141.663 133.039 141.547 133.214 141.43 133.374V133.389Z" fill="black"/>
<path d="M208.376 137.29H206.469V137.26H208.39C208.39 137.26 208.39 137.275 208.39 137.29H208.376Z" fill="black"/>
<path d="M284.084 49.0044L280.693 50.1835C280.649 49.9797 280.605 49.7613 280.562 49.5575C281.755 49.3974 282.949 49.2373 284.142 49.0772L284.07 49.0044H284.084Z" fill="black"/>
<path d="M260.182 50.3435L261.187 53.1238L260.386 53.444C260.022 52.5707 259.644 51.7118 259.28 50.8384C259.586 50.6783 259.877 50.5036 260.182 50.3435Z" fill="black"/>
<path d="M301.596 130.812C302.44 130.739 303.27 130.681 304.114 130.608C304.114 130.783 304.129 130.943 304.143 131.118H301.61C301.61 131.016 301.61 130.914 301.596 130.812Z" fill="black"/>
<path d="M227.852 131.86C227.154 133.345 225.902 133.563 224.461 133.345C224.461 133.345 224.519 133.418 224.519 133.403C225.654 132.908 226.804 132.428 227.94 131.933L227.867 131.845L227.852 131.86Z" fill="black"/>
<path d="M234.825 84.3331C234.315 84.7262 233.806 85.1046 233.311 85.4977C233.093 85.2793 232.889 85.061 232.671 84.8572C233.195 84.5078 233.719 84.1439 234.243 83.7946C234.432 83.9838 234.621 84.1585 234.825 84.3477V84.3331Z" fill="black"/>
<path d="M208.507 77.5497C207.895 76.9092 207.269 76.2687 206.658 75.6428L207.313 75.2352C207.692 76.0358 208.056 76.8219 208.434 77.6225L208.507 77.5643V77.5497Z" fill="black"/>
<path d="M322.732 74.4491C322.47 73.5321 322.222 72.6004 321.96 71.6834L322.499 71.6106C322.572 72.5568 322.63 73.5175 322.688 74.4782C322.674 74.4928 322.732 74.4346 322.732 74.4346V74.4491Z" fill="black"/>
<path d="M302.877 52.3378C303.75 52.8181 304.624 53.2839 305.497 53.7643C304.201 53.9827 303.328 53.4877 302.775 52.4542L302.877 52.3378Z" fill="black"/>
<path d="M227.925 131.933C228.784 131.525 229.643 131.118 230.502 130.71C230.574 130.928 230.633 131.132 230.705 131.351C229.759 131.525 228.813 131.685 227.867 131.86L227.94 131.933H227.925Z" fill="black"/>
</svg>
