<svg width="796" height="212" viewBox="0 0 796 212" fill="none" xmlns="http://www.w3.org/2000/svg">
<path d="M349.679 157.509C349.679 164.99 343.619 171.05 336.138 171.05H291.024C286.467 171.05 282.452 168.796 279.994 165.349C277.543 168.796 273.521 171.05 268.972 171.05H223.851C223.33 171.05 222.815 171.016 222.307 170.955C220.351 170.732 218.516 170.102 216.904 169.134C216.241 168.735 215.611 168.281 215.022 167.78C209.341 170.624 203.071 172.33 196.321 172.872C194.764 173 193.179 173.061 191.568 173.061C189.212 173.061 186.903 172.905 184.635 172.635C184.235 172.587 183.836 172.547 183.436 172.492C182.779 172.398 182.129 172.276 181.486 172.161C181.263 172.12 181.039 172.093 180.823 172.052C180.301 171.951 179.794 171.822 179.279 171.707C178.934 171.633 178.588 171.565 178.257 171.484C176.896 171.145 175.562 170.746 174.248 170.299C173.923 170.19 173.598 170.096 173.28 169.98C173.199 169.947 173.118 169.913 173.036 169.886C172.305 169.615 171.587 169.337 170.876 169.039C170.727 168.978 170.578 168.904 170.43 168.843C164.194 166.141 158.696 162.296 154.112 157.387C151.234 154.32 148.756 150.853 146.698 147.041C144.701 149.797 142.466 152.349 140.002 154.699C137.937 156.662 135.729 158.49 133.346 160.149C126.616 164.841 118.782 168.342 110.068 170.542C101.869 172.614 93.1614 173.664 84.1968 173.664C77.4125 173.664 70.4048 173.075 63.3699 171.93C56.3892 170.793 49.4627 169.134 42.7867 167.001C37.7357 165.397 32.7728 163.481 27.979 161.294C26.3811 160.562 24.8035 159.804 23.2463 159.019C16.902 155.809 10.9776 152.099 5.649 147.982C0.543832 144.042 -1.08116 137.054 1.76934 131.272L19.0145 96.2873C19.6104 95.0686 20.3822 93.9649 21.2895 93.0035C20.3213 91.8727 19.414 90.6946 18.5473 89.4691C18.439 89.3134 18.3239 89.1644 18.2156 89.0087C18.2088 88.9952 18.2088 88.9884 18.202 88.9816C16.6109 86.666 15.1958 84.1947 13.9771 81.5744C11.0724 75.3453 9.59637 68.0057 9.59637 59.7589C9.59637 50.5981 11.5125 42.1075 15.2771 34.531C19.0213 26.9883 24.3905 20.5019 31.229 15.241C37.7628 10.2171 45.6508 6.34422 54.6762 3.74424C63.2819 1.25937 72.8761 0 83.1948 0C89.3562 0 95.6192 0.453642 101.814 1.34061C107.976 2.22759 114.049 3.52081 119.859 5.18642C125.614 6.83849 131.206 8.81556 136.481 11.0635C141.931 13.3926 147.009 16.0603 151.58 18.9988C156.725 22.3097 158.926 28.5862 157.206 34.2872H198.386C203.789 34.2872 208.441 37.4492 210.614 42.0195C210.797 42.4122 210.973 42.8049 211.122 43.2111C211.542 42.0398 212.131 40.9565 212.842 39.9679C214.812 37.2054 217.798 35.2216 221.258 34.5513C222.097 34.3888 222.964 34.2872 223.851 34.2872H268.972C273.521 34.2872 277.543 36.5487 279.994 39.995C282.452 36.5487 286.467 34.2872 291.024 34.2872H336.138C337.011 34.2872 337.857 34.3685 338.677 34.531C341.148 34.9982 343.376 36.1357 345.177 37.7403C352.374 34.118 360.526 32.2831 369.423 32.2831C376.911 32.2831 383.966 33.6169 390.399 36.2508C396.96 38.9388 402.708 42.8455 407.495 47.8559C408.084 48.472 408.66 49.1085 409.215 49.7585C411.07 51.9184 412.742 54.2678 414.232 56.7595V47.8288C414.232 40.3539 420.292 34.2872 427.773 34.2872H472.887C476.361 34.2872 479.523 35.594 481.919 37.7403C489.124 34.118 497.276 32.2831 506.172 32.2831C513.661 32.2831 520.716 33.6169 527.148 36.2508C530.351 37.5643 533.357 39.1757 536.16 41.0513C536.289 40.8278 536.431 40.5976 536.573 40.3742C539.085 36.5758 543.33 34.2872 547.88 34.2872H594.199C599.968 34.2872 605.107 37.9502 606.996 43.4007L614.606 65.3922L620.673 44.1184C622.332 38.3023 627.654 34.2872 633.7 34.2872H678.617C683.079 34.2872 687.25 36.4877 689.776 40.1643C690.378 41.0377 690.859 41.9653 691.231 42.9268C695.991 39.7919 701.415 37.3002 707.434 35.506C714.611 33.3664 722.594 32.2831 731.152 32.2831C742.54 32.2831 753.787 34.03 764.796 37.4763C772.907 40.0153 780.897 43.4684 788.704 47.8491C792.719 50.1038 795.149 54.0986 795.562 58.3709C795.813 60.9303 795.332 63.5844 794.032 66.0219L780.721 91.0332C780.863 91.1618 781.012 91.2972 781.147 91.4259C785.074 95.0618 788.257 99.3951 790.626 104.324C793.145 109.572 794.418 115.591 794.418 122.219C794.418 130.033 792.739 137.284 789.428 143.771C786.151 150.183 781.479 155.694 775.528 160.17C769.921 164.388 763.164 167.651 755.452 169.872C748.106 171.985 739.934 173.061 731.152 173.061C719.757 173.061 708.849 171.558 698.727 168.606C692.626 166.819 686.729 164.469 681.095 161.605C680.818 161.47 680.54 161.341 680.269 161.199C680.175 161.151 680.08 161.09 679.978 161.043C674.927 158.687 669.544 152.952 663.518 153.927C661.494 154.252 659.625 155.22 657.939 156.392C654.249 158.951 651.358 162.465 648.806 166.121C646.199 169.859 644.635 173.826 642.556 177.855C638.758 185.215 633.829 192.046 627.586 197.531C625.961 198.959 624.248 200.293 622.461 201.519C616.766 205.412 610.327 208.229 603.204 209.948C602.419 210.138 601.613 210.321 600.808 210.483C597.578 211.14 594.206 211.573 590.712 211.797C588.965 211.905 587.185 211.959 585.377 211.959C576.697 211.959 568.524 210.666 561.09 208.12C556.5 206.549 551.929 204.43 547.433 201.783C544.732 200.198 542.057 198.418 539.41 196.461C533.709 192.236 532.24 184.314 536.045 178.322L540.663 171.05H500.363C499.165 171.05 497.966 170.895 496.808 170.583C495.651 170.272 494.547 169.804 493.518 169.202C492.319 168.498 491.31 167.584 490.281 166.656C489.713 166.141 489.144 165.634 488.568 165.119C488.291 164.869 488.013 164.618 487.735 164.368C487.62 164.259 486.943 163.792 486.943 163.65C486.774 163.501 486.591 163.345 486.368 163.345C486.117 163.345 485.914 163.562 485.752 163.751C484.817 164.821 483.808 165.803 482.752 166.744C482.536 166.934 482.393 167.171 482.183 167.367C481.94 167.597 481.682 167.821 481.425 168.031C480.917 168.444 480.376 168.823 479.814 169.154C478.791 169.764 477.681 170.238 476.537 170.556C475.392 170.874 474.126 171.05 472.901 171.05H427.787C424.07 171.05 420.711 169.554 418.26 167.137C415.816 169.554 412.451 171.05 408.741 171.05H363.627C356.145 171.05 350.085 164.99 350.085 157.509" fill="url(#paint0_linear_33_12)"/>
<path d="M132.005 53.4147C128.877 59.9959 121.05 62.7922 114.422 59.7725C114.381 59.7521 114.334 59.7318 114.293 59.7115C109.946 57.7412 105.606 55.9673 101.259 54.3965C96.9123 52.8256 92.7009 51.573 88.6249 50.6387C84.5421 49.7043 80.9671 49.2371 77.8932 49.2371C75.2864 49.2371 73.1943 49.7246 71.6302 50.6928C70.0594 51.6611 69.274 53.2522 69.274 55.4527C69.274 57.7954 70.3099 59.7115 72.3818 61.2146C74.4536 62.7178 77.1958 64.0584 80.6015 65.2229C84.0072 66.3943 87.9004 67.5115 92.2811 68.5812C96.6618 69.651 101.103 70.9375 105.613 72.4406C110.122 73.9437 114.571 75.7515 118.944 77.8572C123.318 79.9629 127.212 82.6374 130.624 85.8806C134.03 89.1238 136.772 93.0509 138.844 97.6618C140.916 102.273 141.952 107.825 141.952 114.304C141.952 122.192 140.36 129.01 137.192 134.759C134.016 140.507 129.724 145.267 124.307 149.045C118.897 152.823 112.607 155.613 105.457 157.414C98.3071 159.222 90.7847 160.122 82.8968 160.122C76.8166 160.122 70.601 159.601 64.25 158.565C57.8991 157.529 51.6835 156.039 45.6033 154.103C39.5164 152.167 33.6732 149.776 28.0602 146.933C26.3675 146.073 24.7087 145.179 23.104 144.252C17.0103 140.737 14.6608 133.127 17.7686 126.817L23.0228 116.16C26.4488 109.213 35.0409 106.674 41.7169 110.594C41.9132 110.709 42.1096 110.824 42.3059 110.932C46.9846 113.641 51.7647 115.997 56.6397 118.001C61.5214 120.005 66.2948 121.576 70.9802 122.714C75.6588 123.851 79.7687 124.42 83.3098 124.42C86.8509 124.42 89.4374 123.817 91.4821 122.612C93.5201 121.407 94.5425 119.437 94.5425 116.694C94.5425 114.291 93.5066 112.334 91.4347 110.831C89.3629 109.328 86.6207 107.987 83.215 106.823C79.8093 105.651 75.9161 104.568 71.5354 103.566C67.1615 102.564 62.7131 101.359 58.2037 99.9571C53.6944 98.5555 49.246 96.8493 44.8721 94.8451C40.4914 92.841 36.5982 90.2816 33.1925 87.1738C29.7868 84.066 27.0446 80.2879 24.9727 75.8463C22.9009 71.4047 21.865 66.0354 21.865 59.7521C21.865 52.6699 23.2868 46.2715 26.1238 40.5502C28.9607 34.8357 32.9893 29.9742 38.2029 25.9659C43.4164 21.9576 49.7335 18.8837 57.1475 16.7441C64.5683 14.6046 72.8219 13.5348 81.915 13.5348C87.4603 13.5348 93.0259 13.9343 98.605 14.74C104.184 15.5389 109.601 16.6967 114.848 18.1999C120.095 19.703 125.106 21.4769 129.886 23.5149C130.211 23.6503 130.529 23.7925 130.854 23.9347C137.733 26.9545 140.753 35.0523 137.523 41.8367L132.012 53.4079L132.005 53.4147Z" fill="white"/>
<path d="M226.729 47.8288H263.521C265.823 47.8288 267.685 49.6908 267.685 51.9928V153.345C267.685 155.647 265.823 157.509 263.521 157.509H226.729C224.426 157.509 222.564 155.647 222.564 153.345C222.564 149.729 218.306 147.867 215.604 150.264C213.553 152.092 211.325 153.67 208.928 154.997C203.511 158.003 197.296 159.506 190.281 159.506C184.668 159.506 179.523 158.518 174.844 156.547C170.165 154.577 166.123 151.767 162.718 148.124C159.305 144.482 156.664 140.087 154.796 134.942C152.927 129.796 151.986 124.081 151.986 117.798V51.9793C151.986 49.6772 153.848 47.8153 156.15 47.8153H192.942C195.244 47.8153 197.106 49.6772 197.106 51.9793V104.764C197.106 109.375 198.21 113.038 200.41 115.74C202.618 118.448 205.522 119.802 209.138 119.802C213.282 119.802 216.559 118.198 218.962 114.988C221.366 111.779 222.571 107.506 222.571 102.158V51.9793C222.571 49.6772 224.433 47.8153 226.735 47.8153L226.729 47.8288Z" fill="white"/>
<path d="M294.01 47.8288H330.586C332.942 47.8288 334.858 49.7381 334.858 52.1011C334.858 55.8048 339.225 57.7209 341.994 55.2631C344.1 53.4011 346.382 51.7897 348.84 50.4355C354.419 47.3616 360.858 45.8246 368.143 45.8246C373.892 45.8246 379.173 46.8132 383.98 48.7835C388.794 50.7538 392.938 53.5636 396.411 57.2063C399.885 60.849 402.593 65.2297 404.529 70.3416C406.466 75.4536 407.434 81.1884 407.434 87.5326V153.243C407.434 155.599 405.525 157.515 403.162 157.515H366.593C364.236 157.515 362.32 155.606 362.32 153.243V100.566C362.32 95.9555 361.129 92.2993 358.759 89.591C356.382 86.8827 353.227 85.5285 349.287 85.5285C344.872 85.5285 341.365 87.1332 338.765 90.3425C336.158 93.5519 334.851 97.831 334.851 103.173V153.243C334.851 155.599 332.942 157.515 330.579 157.515H294.003C291.647 157.515 289.731 155.606 289.731 153.243V52.1011C289.731 49.7449 291.64 47.8288 294.003 47.8288H294.01Z" fill="white"/>
<path d="M430.759 47.8288H467.335C469.691 47.8288 471.607 49.7381 471.607 52.1011C471.607 55.8048 475.975 57.7209 478.744 55.2631C480.85 53.4011 483.131 51.7897 485.589 50.4355C491.168 47.3616 497.607 45.8246 504.893 45.8246C510.641 45.8246 515.922 46.8132 520.73 48.7835C525.544 50.7538 529.687 53.5636 533.161 57.2063C536.634 60.849 539.342 65.2297 541.279 70.3416C543.215 75.4536 544.183 81.1884 544.183 87.5326V153.243C544.183 155.599 542.274 157.515 539.911 157.515H503.342C500.986 157.515 499.07 155.606 499.07 153.243V100.566C499.07 95.9555 497.878 92.2993 495.508 89.591C493.132 86.8827 489.977 85.5285 486.036 85.5285C481.621 85.5285 478.114 87.1332 475.514 90.3425C472.907 93.5519 471.601 97.831 471.601 103.173V153.243C471.601 155.599 469.691 157.515 467.328 157.515H430.753C428.396 157.515 426.48 155.606 426.48 153.243V52.1011C426.48 49.7449 428.39 47.8288 430.753 47.8288H430.759Z" fill="white"/>
<path d="M632.217 165.133C627.606 176.562 621.37 184.964 613.523 190.347C605.669 195.73 595.858 198.418 584.097 198.418C576.879 198.418 570.244 197.382 564.198 195.31C559.81 193.807 555.45 191.688 551.117 188.959C548.341 187.212 547.501 183.549 549.255 180.78L561.605 161.341C563.351 158.585 566.974 157.82 569.757 159.526C570.549 160.014 571.334 160.427 572.12 160.779C574.428 161.815 576.947 162.336 579.689 162.336C584.767 162.336 588.376 160.461 590.516 156.723C591.525 155.092 591.674 153.067 590.915 151.3L550.128 56.0756C548.462 52.1756 551.32 47.8423 555.558 47.8423H588.715C591.233 47.8423 593.475 49.4402 594.294 51.8168L608.452 92.7123C610.341 98.1695 618.127 97.9529 619.711 92.4008L631.195 52.1282C631.919 49.5892 634.235 47.8423 636.875 47.8423H668.739C672.882 47.8423 675.74 51.9996 674.25 55.8657L632.224 165.139L632.217 165.133Z" fill="white"/>
<path d="M772.894 74.4989C769.088 81.6488 760.483 84.7025 752.981 81.6353C742.96 77.5457 734.923 75.4942 728.857 75.4942C726.92 75.4942 725.397 75.8124 724.293 76.4489C723.189 77.0853 722.641 77.9723 722.641 79.103C722.641 80.3759 723.46 81.4593 725.099 82.3598C726.737 83.2603 728.89 84.1337 731.565 84.9665C734.233 85.8061 737.279 86.6525 740.685 87.5259C744.098 88.3925 747.571 89.4488 751.112 90.6811C754.653 91.9201 758.133 93.3894 761.539 95.0956C764.952 96.8018 767.992 98.8872 770.666 101.359C773.334 103.83 775.494 106.775 777.132 110.181C778.771 113.587 779.59 117.602 779.59 122.213C779.59 127.893 778.419 133.026 776.076 137.603C773.74 142.18 770.416 146.093 766.103 149.33C761.79 152.573 756.563 155.078 750.415 156.852C744.267 158.626 737.415 159.506 729.865 159.506C719.702 159.506 710.162 158.199 701.238 155.593C697.643 154.543 694.149 153.284 690.757 151.808C682.531 148.233 678.908 138.55 682.829 130.48L682.842 130.453C686.553 122.815 695.659 119.504 703.412 122.971C713.033 127.277 722.045 129.423 730.461 129.423C732.601 129.423 734.273 129.139 735.472 128.57C736.677 128.002 737.279 127.216 737.279 126.214C737.279 125.009 736.48 123.993 734.876 123.154C733.271 122.321 731.165 121.515 728.559 120.75C725.952 119.985 722.98 119.179 719.635 118.346C716.29 117.514 712.884 116.491 709.411 115.293C705.937 114.088 702.525 112.639 699.187 110.932C695.842 109.226 692.87 107.141 690.263 104.669C687.656 102.198 685.551 99.2393 683.946 95.7998C682.341 92.3602 681.542 88.3316 681.542 83.7207C681.542 77.9723 682.693 72.7588 685.002 68.0802C687.311 63.4016 690.568 59.4068 694.779 56.0959C698.991 52.785 704.069 50.246 710.02 48.4788C715.965 46.7116 722.587 45.8246 729.872 45.8246C741.728 45.8246 753.333 47.9371 764.701 52.1621C773.591 55.4662 777.484 65.9 773.022 74.2755L772.9 74.4989H772.894Z" fill="white"/>
<defs>
<linearGradient id="paint0_linear_33_12" x1="398.002" y1="-7.26505" x2="398.002" y2="222.813" gradientUnits="userSpaceOnUse">
<stop stop-color="#FF6161"/>
<stop offset="1" stop-color="#FFE46E"/>
</linearGradient>
</defs>
</svg>
